<?xml version="1.0" encoding="UTF-8"?>
<svg version="1.1" xmlns="http://www.w3.org/2000/svg" width="512" height="512">
<path d="M0 0 C1.29372153 -0.00445668 1.29372153 -0.00445668 2.61357886 -0.0090034 C5.50953131 -0.01768849 8.40544241 -0.01919857 11.30140686 -0.02069092 C13.37627246 -0.02531967 15.45113722 -0.03034441 17.52600098 -0.03573608 C23.17162187 -0.04886709 28.81723086 -0.05530783 34.46286464 -0.05974674 C37.99683653 -0.06267976 41.5308052 -0.06678527 45.06477547 -0.07125092 C56.14023891 -0.08493521 67.21569494 -0.09459411 78.29116625 -0.09845281 C91.03866719 -0.10291901 103.78606013 -0.12039585 116.53352827 -0.1494534 C126.40561988 -0.17116718 136.27768134 -0.18116243 146.14979655 -0.18249393 C152.03524939 -0.18353616 157.92060086 -0.18931748 163.80602837 -0.20731354 C169.3587485 -0.2239597 174.91129291 -0.22587063 180.46402931 -0.21717453 C182.48542633 -0.21641259 184.50683344 -0.22063322 186.52820587 -0.23063278 C231.9249985 -0.44174713 264.85385403 16.16336059 302.09217834 40.6519165 C308.43903887 44.81319347 314.84588344 48.85192264 321.348526 52.76544189 C322.12993958 53.23804443 322.91135315 53.71064697 323.71644592 54.1975708 C325.97344307 55.54281371 328.24961818 56.84587002 330.536026 58.14044189 C331.22783463 58.53835434 331.91964325 58.93626678 332.63241577 59.34623718 C339.34251288 62.96418312 346.26185709 64.88209605 353.63467026 66.6340313 C355.80092847 67.14937365 357.96282289 67.68044138 360.12431335 68.21540833 C365.49081668 69.54056903 370.86298621 70.84203434 376.23628235 72.13934326 C380.79104498 73.239451 385.34265231 74.35117529 389.89068985 75.47877693 C391.9971516 75.99622874 394.10712237 76.49689295 396.21775818 76.99699402 C410.05918845 80.36750305 421.99552246 85.35355703 430.14149475 97.54278564 C437.72712614 111.39215556 446.33724378 131.341955 441.97645569 147.17169189 C439.19863975 156.1518055 436.22394798 165.56008336 427.54582214 170.30767822 C424.07101837 171.74747119 420.69723332 171.74373394 416.97743225 171.74981689 C416.18827927 171.76635315 415.39912628 171.7828894 414.58605957 171.79992676 C412.09013368 171.84812553 409.59481571 171.8697138 407.098526 171.89044189 C405.39602192 171.91862529 403.69354581 171.94855602 401.99110413 171.98028564 C397.83946155 172.05387611 393.68815088 172.10362158 389.536026 172.14044189 C389.15220764 172.9443335 388.76838928 173.7482251 388.37294006 174.57647705 C381.92996693 187.81280253 374.0570471 196.5389077 360.161026 201.95294189 C348.19298747 205.87350624 334.9879486 205.60064128 323.536026 200.14044189 C311.43519249 193.7758224 304.81027554 185.69817889 299.536026 173.14044189 C299.536026 172.48044189 299.536026 171.82044189 299.536026 171.14044189 C218.686026 171.14044189 137.836026 171.14044189 54.536026 171.14044189 C53.546026 174.11044189 52.556026 177.08044189 51.536026 180.14044189 C45.19232218 191.64588585 35.05132309 199.36022417 22.536026 203.14044189 C8.70329437 206.62788185 -4.70509891 203.8397362 -16.85850525 196.86309814 C-25.97813093 190.83348057 -31.5196773 182.18056466 -35.463974 172.14044189 C-36.45409485 172.12642334 -36.45409485 172.12642334 -37.46421814 172.11212158 C-40.48569864 172.05808616 -43.50568576 171.97450497 -46.526474 171.89044189 C-47.56481384 171.87626221 -48.60315369 171.86208252 -49.67295837 171.84747314 C-56.0884084 171.64380806 -60.37464525 171.19072693 -65.463974 167.14044189 C-69.94842903 161.41638141 -70.1081104 156.31491273 -70.026474 149.20294189 C-70.05032166 148.2522583 -70.07416931 147.30157471 -70.09873962 146.32208252 C-70.08676955 140.53255752 -69.29850641 136.7721663 -65.83091736 132.08746338 C-61.61811558 126.08691075 -61.03380389 121.43417174 -61.057724 114.30841064 C-61.04146973 112.88338982 -61.04146973 112.88338982 -61.02488708 111.42958069 C-60.99073866 108.39563271 -60.97508178 105.36205619 -60.963974 102.32794189 C-60.82521958 65.1568409 -51.87855069 36.32923058 -25.6905365 9.16387939 C-18.22748269 1.83417378 -10.12875909 -0.01087955 0 0 Z M-30.307724 25.33575439 C-31.0192865 26.26130127 -31.730849 27.18684814 -32.463974 28.14044189 C-33.0724115 28.92161377 -33.680849 29.70278564 -34.307724 30.50762939 C-42.6193805 41.72836567 -49.99328797 55.88152328 -51.8155365 69.83184814 C-51.70360743 72.26841813 -51.70360743 72.26841813 -49.7061615 73.62481689 C-48.92498962 74.04247314 -48.14381775 74.46012939 -47.338974 74.89044189 C-41.09525715 78.715333 -37.9082489 83.63291714 -35.151474 90.32794189 C-32.80446373 103.34318066 -32.20605645 115.58474779 -39.71006775 126.97637939 C-44.07308839 132.35970553 -48.50354628 134.13983316 -55.276474 134.95294189 C-59.00234547 135.43220423 -59.00234547 135.43220423 -61.8311615 137.64825439 C-64.57921945 144.11273358 -64.54494654 152.11371878 -62.213974 158.64044189 C-59.48466121 162.53946016 -57.07716576 164.1980936 -52.463974 165.14044189 C-49.70426992 165.20971158 -46.97201358 165.23461549 -44.213974 165.20294189 C-43.09635681 165.19617432 -43.09635681 165.19617432 -41.9561615 165.18927002 C-40.1253976 165.17753435 -38.29467527 165.1596004 -36.463974 165.14044189 C-36.49877869 164.25743408 -36.53358337 163.37442627 -36.56944275 162.46466064 C-36.8949603 148.03338241 -33.60773276 134.83286978 -23.542099 124.02325439 C-14.40814931 115.74775863 -3.22831387 111.03679795 9.098526 110.95294189 C10.49264709 110.93167236 10.49264709 110.93167236 11.91493225 110.90997314 C17.1641544 111.24406603 22.34774856 112.27572899 27.536026 113.14044189 C27.536026 102.91044189 27.536026 92.68044189 27.536026 82.14044189 C25.21184631 82.09145752 22.88766663 82.04247314 20.49305725 81.99200439 C18.2324959 81.93793457 15.97203715 81.88065078 13.71156311 81.82305908 C12.14523519 81.7848678 10.57882251 81.74999795 9.01234436 81.71856689 C6.755608 81.67270118 4.49945017 81.61474421 2.24305725 81.55450439 C1.54702896 81.54295319 0.85100067 81.53140198 0.13388062 81.51950073 C-4.96817967 81.36597164 -8.78640701 80.81800888 -12.463974 77.14044189 C-13.54566149 72.93566094 -13.13254537 69.37438548 -11.06895447 65.56573486 C-9.11099074 62.8095679 -7.04803916 60.18975378 -4.901474 57.57794189 C-4.19700134 56.68397705 -3.49252869 55.79001221 -2.76670837 54.86895752 C14.94060542 32.55937415 35.24072639 19.30704509 63.86739826 15.82699203 C75.35154736 14.58861503 86.91908985 14.85341747 98.45399475 14.87481689 C101.04500362 14.8734658 103.63601225 14.87152159 106.22702026 14.86901855 C111.63546929 14.86608555 117.04384617 14.87010734 122.45228577 14.87969971 C128.64101354 14.89055159 134.82960911 14.88707206 141.01833361 14.8760469 C147.0459146 14.86575191 153.07343277 14.86700145 159.10102272 14.87281036 C161.63110181 14.87412797 164.16118435 14.87256689 166.69125938 14.86785126 C206.01448121 14.81064507 206.01448121 14.81064507 223.411026 19.39044189 C224.69722839 19.7146814 224.69722839 19.7146814 226.00941467 20.04547119 C241.2464573 24.02164614 257.50478751 29.84609212 270.098526 39.51544189 C273.9701585 42.29259367 277.39261925 42.69807591 282.098526 43.20294189 C289.55958792 44.01957554 294.03967661 44.90364533 298.91249084 50.80841064 C307.072712 61.21381388 307.072712 61.21381388 309.536026 66.14044189 C315.476026 66.14044189 321.416026 66.14044189 327.536026 66.14044189 C324.24141996 63.50475706 321.14919446 61.14136687 317.64930725 58.85528564 C316.72037659 58.24797607 315.79144592 57.6406665 314.83436584 57.01495361 C313.8490387 56.37573975 312.86371155 55.73652588 311.848526 55.07794189 C310.82194885 54.41036865 309.7953717 53.74279541 308.73768616 53.05499268 C301.24933906 48.20507516 293.692287 43.48925819 286.04774475 38.89044189 C282.82522759 36.94541499 279.65213122 34.93684449 276.49305725 32.89044189 C247.77425058 14.4000311 219.37632236 6.8188807 185.42909241 6.86578369 C183.33165812 6.86142846 181.23422542 6.85624262 179.13679504 6.85029602 C173.48022438 6.83698929 167.82372087 6.83631748 162.16713762 6.83885932 C157.4351188 6.83993365 152.7031133 6.83503446 147.97109735 6.8302539 C136.81027552 6.81918985 125.64948737 6.8187053 114.48866272 6.82476807 C102.98572826 6.83082046 91.48291572 6.81845764 79.98000205 6.797198 C70.08412734 6.77958303 60.18829148 6.77358005 50.29240167 6.77683574 C44.39019405 6.7786472 38.48807365 6.77602497 32.58588028 6.7621212 C27.0420853 6.74954747 21.49848108 6.75148274 15.95468903 6.76453209 C13.92298951 6.76689752 11.89127656 6.7641644 9.85959244 6.75590897 C7.08221471 6.74543821 4.30547691 6.75354455 1.52812195 6.76622009 C0.72831142 6.75884581 -0.07149911 6.75147152 -0.89554632 6.74387378 C-14.65161062 6.87557065 -22.22556867 15.12234577 -30.307724 25.33575439 Z M165.536026 21.14044189 C165.536026 38.96044189 165.536026 56.78044189 165.536026 75.14044189 C205.466026 75.14044189 245.396026 75.14044189 286.536026 75.14044189 C283.52237997 73.13134454 282.13113077 72.78226601 278.661026 72.26544189 C274.32332148 71.46122514 271.63694765 70.44142301 268.536026 67.14044189 C267.34964857 63.58130961 267.38987254 60.34229689 267.411026 56.64044189 C267.40715881 55.96368408 267.40329163 55.28692627 267.39930725 54.58966064 C267.40540184 51.49970423 267.55162371 49.09364878 268.536026 46.14044189 C241.10848906 27.72480995 211.54807839 20.85742057 178.786026 21.07794189 C174.413526 21.09856689 170.041026 21.11919189 165.536026 21.14044189 Z M315.536026 73.14044189 C315.577276 74.25419189 315.618526 75.36794189 315.661026 76.51544189 C315.536026 80.14044189 315.536026 80.14044189 313.536026 82.14044189 C305.121026 82.63544189 305.121026 82.63544189 296.536026 83.14044189 C296.536026 110.20044189 296.536026 137.26044189 296.536026 165.14044189 C296.866026 165.14044189 297.196026 165.14044189 297.536026 165.14044189 C297.56180725 164.05247314 297.5875885 162.96450439 297.614151 161.84356689 C298.16293872 145.71325939 301.80140737 133.29801518 313.786026 121.82794189 C324.26004803 113.01052539 337.10580185 110.03847478 350.536026 111.14044189 C362.70864717 113.26898767 373.95189082 118.73978081 381.4813385 128.71856689 C388.02892739 138.52625234 390.59544702 147.58747379 390.55555725 159.37091064 C390.55273743 160.45138672 390.5499176 161.53186279 390.54701233 162.64508057 C390.54338684 163.4685498 390.53976135 164.29201904 390.536026 165.14044189 C395.05680462 165.1987861 399.57748554 165.23415442 404.098526 165.26544189 C405.37534241 165.28219971 406.65215881 165.29895752 407.96766663 165.31622314 C419.085681 165.70075859 419.085681 165.70075859 428.348526 160.45294189 C430.62077143 157.0121131 431.4984677 154.0981869 432.536026 150.14044189 C431.46118958 150.10285767 431.46118958 150.10285767 430.36463928 150.06451416 C427.12991086 149.94874438 423.89548759 149.8259322 420.661026 149.70294189 C419.53309631 149.66362549 418.40516663 149.62430908 417.24305725 149.58380127 C416.16669006 149.54190674 415.09032288 149.50001221 413.9813385 149.45684814 C412.98634338 149.42019043 411.99134827 149.38353271 410.96620178 149.34576416 C408.536026 149.14044189 408.536026 149.14044189 406.536026 148.14044189 C406.536026 146.82044189 406.536026 145.50044189 406.536026 144.14044189 C416.106026 143.81044189 425.676026 143.48044189 435.536026 143.14044189 C437.070067 134.16989848 437.070067 134.16989848 433.536026 126.14044189 C429.24466107 123.42755087 424.34052878 121.91170255 419.6063385 120.14825439 C405.04803722 114.6431063 390.37199558 103.15823273 383.3497467 89.13409424 C380.76605228 83.98938595 378.8379615 80.30808364 373.2625885 78.15216064 C369.54425073 77.01310717 365.79376406 76.195454 361.95375061 75.58843994 C359.536026 75.14044189 359.536026 75.14044189 355.80189514 74.1050415 C351.44859582 73.00208439 347.3516027 72.88326546 342.879776 72.94512939 C342.09203796 72.94795929 341.30429993 72.95078918 340.49269104 72.95370483 C338.00697336 72.96479021 335.5216325 72.9898718 333.036026 73.01544189 C331.33811458 73.02548679 329.64019745 73.03460998 327.942276 73.04278564 C323.80671686 73.06469118 319.67143504 73.09913864 315.536026 73.14044189 Z M34.536026 83.14044189 C34.0731985 87.79994385 33.92190355 92.45847041 33.80140686 97.13800049 C33.75004127 98.70601977 33.67534276 100.27347179 33.57582092 101.83917236 C32.83196514 110.74082525 32.83196514 110.74082525 35.70747375 118.92041016 C38.10143475 121.62328882 40.75385377 123.82742488 43.6466217 125.97540283 C51.26236674 131.68190279 53.30665605 140.22296208 55.536026 149.14044189 C56.031026 157.06044189 56.031026 157.06044189 56.536026 165.14044189 C90.196026 165.14044189 123.856026 165.14044189 158.536026 165.14044189 C158.536026 159.20044189 158.536026 153.26044189 158.536026 147.14044189 C129.331026 146.64544189 129.331026 146.64544189 99.536026 146.14044189 C99.866026 144.49044189 100.196026 142.84044189 100.536026 141.14044189 C129.246026 140.64544189 129.246026 140.64544189 158.536026 140.14044189 C158.536026 121.00044189 158.536026 101.86044189 158.536026 82.14044189 C135.63155743 82.11042432 135.63155743 82.11042432 112.72708607 82.09018803 C104.53896318 82.08463617 96.35085042 82.07757635 88.16273499 82.06500244 C81.68221258 82.05505548 75.20169781 82.04858844 68.72116798 82.0463534 C65.28772058 82.04504631 61.854295 82.04196059 58.42085457 82.03471184 C54.59408779 82.02669774 50.76734265 82.02645076 46.94056702 82.0269165 C45.79402145 82.02332123 44.64747589 82.01972595 43.46618652 82.01602173 C42.42987091 82.01739639 41.3935553 82.01877106 40.32583618 82.02018738 C39.41971368 82.01926558 38.51359118 82.01834379 37.58001041 82.01739407 C35.54207165 81.91328356 35.54207165 81.91328356 34.536026 83.14044189 Z M165.536026 82.14044189 C165.536026 101.28044189 165.536026 120.42044189 165.536026 140.14044189 C194.576026 140.47044189 223.616026 140.80044189 253.536026 141.14044189 C254.031026 143.61544189 254.031026 143.61544189 254.536026 146.14044189 C210.481026 146.63544189 210.481026 146.63544189 165.536026 147.14044189 C165.536026 153.08044189 165.536026 159.02044189 165.536026 165.14044189 C206.456026 165.14044189 247.376026 165.14044189 289.536026 165.14044189 C289.536026 137.75044189 289.536026 110.36044189 289.536026 82.14044189 C248.616026 82.14044189 207.696026 82.14044189 165.536026 82.14044189 Z M6.536026 132.14044189 C5.16879921 136.24212226 6.04855087 138.84538246 7.317276 142.89825439 C8.32813118 145.24548101 8.32813118 145.24548101 10.379776 146.13262939 C12.45006684 146.61634564 12.45006684 146.61634564 14.50086975 146.76153564 C16.536026 147.14044189 16.536026 147.14044189 18.46180725 148.75762939 C20.48566044 150.43911694 20.48566044 150.43911694 23.114151 149.77716064 C23.99586975 149.46391846 24.8775885 149.15067627 25.786026 148.82794189 C26.67805725 148.52243408 27.5700885 148.21692627 28.489151 147.90216064 C29.50235413 147.52510986 29.50235413 147.52510986 30.536026 147.14044189 C30.87468268 143.24305119 30.87468268 143.24305119 29.098526 140.70294189 C23.74487925 135.34929514 17.3595344 132.20416703 9.786026 132.07794189 C8.713526 132.09856689 7.641026 132.11919189 6.536026 132.14044189 Z M340.536026 132.14044189 C338.86926495 135.47396399 340.18997042 138.35665724 341.24305725 141.79278564 C342.84966775 144.70992434 343.95923647 145.17489552 347.098526 146.14044189 C347.88356506 146.30544189 348.66860413 146.47044189 349.47743225 146.64044189 C351.536026 147.14044189 351.536026 147.14044189 353.536026 149.14044189 C358.29492808 148.82838274 362.18520866 148.17988752 366.536026 146.14044189 C362.82596203 139.64782995 357.98495669 135.47160813 350.973526 132.76544189 C347.41530521 132.11849266 344.14474755 131.99314714 340.536026 132.14044189 Z M-8.4561615 140.08966064 C-14.1257231 145.88055528 -15.14119245 152.26457208 -15.463974 160.14044189 C-11.28625984 161.57653114 -8.18126162 160.96771591 -4.19444275 159.36700439 C-1.97945535 157.79701332 -1.68365621 156.69454362 -1.088974 154.07794189 C-0.779599 152.12887939 -0.779599 152.12887939 -0.463974 150.14044189 C0.196026 149.48044189 0.856026 148.82044189 1.536026 148.14044189 C1.22396685 143.38153982 0.57547163 139.49125924 -1.463974 135.14044189 C-4.01600271 135.14044189 -6.66826211 138.49080438 -8.4561615 140.08966064 Z M325.536026 140.14044189 C321.42687195 145.50111495 319.39337028 150.01470554 319.473526 156.82794189 C319.48254944 157.82180908 319.49157288 158.81567627 319.50086975 159.83966064 C319.51247131 160.59891846 319.52407288 161.35817627 319.536026 162.14044189 C323.45703706 161.61313351 326.96466982 160.877162 330.536026 159.14044189 C332.67054887 155.99511223 333.53162996 152.77348586 334.536026 149.14044189 C335.11803772 148.15624268 335.11803772 148.15624268 335.71180725 147.15216064 C336.87604857 144.31052898 336.13940696 142.7503247 335.161026 139.89044189 C334.86454163 138.99841064 334.56805725 138.10637939 334.2625885 137.18731689 C334.02282288 136.51184814 333.78305725 135.83637939 333.536026 135.14044189 C330.69125299 135.14044189 327.61259544 138.30920555 325.536026 140.14044189 Z M4.536026 154.14044189 C4.20300288 157.27085919 4.05930644 159.31942487 5.661026 162.07794189 C7.62158216 163.40694172 7.62158216 163.40694172 10.598526 163.01544189 C13.82858015 162.39393777 13.82858015 162.39393777 15.536026 159.14044189 C15.2118891 155.81803866 14.92826297 154.53267886 12.536026 152.14044189 C8.03122323 151.6299461 8.03122323 151.6299461 4.536026 154.14044189 Z M338.536026 155.14044189 C338.80259172 158.07487591 338.80259172 158.07487591 339.536026 161.14044189 C342.29498235 163.43681969 342.29498235 163.43681969 345.098526 162.89044189 C347.68603167 162.30236137 347.68603167 162.30236137 349.536026 160.14044189 C350.11948076 157.18297697 350.11948076 157.18297697 349.536026 154.14044189 C344.23406324 150.062009 343.42297049 151.13064128 338.536026 155.14044189 Z M22.536026 156.14044189 C21.25505118 158.44873315 20.64120964 160.51039127 20.07118225 163.08184814 C19.536026 165.14044189 19.536026 165.14044189 17.536026 167.14044189 C17.69894314 169.27193103 17.69894314 169.27193103 18.348526 171.57794189 C18.54059631 172.36040283 18.73266663 173.14286377 18.93055725 173.94903564 C19.41294032 175.69495113 19.96323334 177.42206392 20.536026 179.14044189 C25.81955098 177.74186175 28.48291777 174.43935866 31.536026 170.14044189 C34.77868766 164.41173963 34.88370598 159.54032888 34.536026 153.14044189 C30.15263033 153.14044189 26.32694715 153.85880337 22.536026 156.14044189 Z M356.536026 156.14044189 C355.51516099 158.18217192 355.1855369 159.84236496 354.9500885 162.10528564 C354.536026 164.14044189 354.536026 164.14044189 352.92274475 166.07012939 C351.2510706 168.0823306 351.2510706 168.0823306 351.82899475 170.68341064 C352.12419006 171.55610596 352.41938538 172.42880127 352.723526 173.32794189 C353.00583069 174.20837158 353.28813538 175.08880127 353.57899475 175.99591064 C354.33782543 178.30573043 354.33782543 178.30573043 356.536026 179.14044189 C362.94238972 174.16462542 367.61586992 169.63778465 368.99305725 161.40997314 C369.24970792 158.98376882 369.43614031 156.57765283 369.536026 154.14044189 C364.80273768 152.5950989 360.74518115 153.55529149 356.536026 156.14044189 Z M326.848526 166.64044189 C326.04028381 166.91887939 325.23204163 167.19731689 324.39930725 167.48419189 C323.78442444 167.70075439 323.16954163 167.91731689 322.536026 168.14044189 C323.93460614 173.42396687 327.23710923 176.08733366 331.536026 179.14044189 C337.26472826 182.38310355 342.13613902 182.48812187 348.536026 182.14044189 C348.22552874 180.70250798 347.9125484 179.26511009 347.598526 177.82794189 C347.42450256 177.02743408 347.25047913 176.22692627 347.07118225 175.40216064 C346.53716441 172.99504089 346.53716441 172.99504089 345.536026 170.14044189 C343.50325127 169.18926832 343.50325127 169.18926832 341.098526 168.57794189 C336.73333542 167.33775131 336.73333542 167.33775131 334.536026 165.14044189 C331.52112043 165.14044189 329.66738487 165.65996925 326.848526 166.64044189 Z M-7.651474 166.64044189 C-9.00305603 167.05809814 -9.00305603 167.05809814 -10.38194275 167.48419189 C-11.06901306 167.70075439 -11.75608337 167.91731689 -12.463974 168.14044189 C-9.15014748 174.90064799 -5.45493651 178.27799272 1.348526 181.45294189 C5.7640699 182.40531411 10.03780641 182.30045761 14.536026 182.14044189 C13.61915404 174.97351672 13.61915404 174.97351672 9.4032135 169.51934814 C6.44015831 168.21884321 3.79582975 167.14044189 0.536026 167.14044189 C0.536026 166.48044189 0.536026 165.82044189 0.536026 165.14044189 C-2.56273072 165.14044189 -4.70818915 165.72305441 -7.651474 166.64044189 Z " fill="#000000" transform="translate(69.46397399902344,153.85955810546875)"/>
<path d="M0 0 C8.25 0 16.5 0 25 0 C25.33 1.32 25.66 2.64 26 4 C24.86132812 5.72729492 24.86132812 5.72729492 23 7 C20.77929688 7.37231445 20.77929688 7.37231445 18.21875 7.36328125 C17.29449219 7.36263672 16.37023437 7.36199219 15.41796875 7.36132812 C14.45503906 7.34521484 13.49210937 7.32910156 12.5 7.3125 C11.53707031 7.31572266 10.57414062 7.31894531 9.58203125 7.32226562 C2.40076885 7.26717923 2.40076885 7.26717923 -1 5 C-0.67 3.35 -0.34 1.7 0 0 Z " fill="#000000" transform="translate(249,252)"/>
<path d="M0 0 C1.00023193 0.00523682 2.00046387 0.01047363 3.03100586 0.01586914 C4.1105957 0.0190918 5.19018555 0.02231445 6.30249023 0.02563477 C8.00695312 0.03820312 8.00695312 0.03820312 9.74584961 0.05102539 C11.45611328 0.05779297 11.45611328 0.05779297 13.20092773 0.06469727 C16.02845312 0.07652792 18.85587601 0.09301129 21.68334961 0.11352539 C22.01334961 1.76352539 22.34334961 3.41352539 22.68334961 5.11352539 C19.45595699 7.26512047 18.58416981 7.36193476 14.86694336 7.34399414 C13.93817383 7.34206055 13.0094043 7.34012695 12.05249023 7.33813477 C11.08504883 7.32588867 10.11760742 7.31364258 9.12084961 7.30102539 C8.14954102 7.30038086 7.17823242 7.29973633 6.17749023 7.29907227 C-1.03578524 7.25395796 -1.03578524 7.25395796 -3.31665039 6.11352539 C-3.35937139 4.44740634 -3.35728871 2.77969654 -3.31665039 1.11352539 C-2.31665039 0.11352539 -2.31665039 0.11352539 0 0 Z " fill="#000000" transform="translate(190.316650390625,251.886474609375)"/>
</svg>
