<?xml version="1.0" encoding="UTF-8"?>
<svg version="1.1" xmlns="http://www.w3.org/2000/svg" width="512" height="512">
<path d="M0 0 C9.1141571 6.64892606 11.79602708 16.73482406 14.375 27.25 C14.68179688 28.44496094 14.98859375 29.63992187 15.3046875 30.87109375 C16.05083897 33.78574794 16.78221039 36.70325693 17.5 39.625 C18.16942627 39.50906494 18.83885254 39.39312988 19.52856445 39.27368164 C22.62245894 38.74049045 25.71745456 38.21396741 28.8125 37.6875 C30.3912793 37.41389648 30.3912793 37.41389648 32.00195312 37.13476562 C92.27109792 26.93537189 155.81528389 42.45733532 205.625 77.5 C212.57022903 82.49818713 219.07662641 87.9793823 225.5 93.625 C226.38558594 94.3984375 227.27117187 95.171875 228.18359375 95.96875 C237.80600393 104.49531628 246.638538 113.44168444 254.5 123.625 C255.01578613 124.28612793 255.53157227 124.94725586 256.06298828 125.62841797 C288.78168193 167.81408563 305.98833382 218.60706665 305.875 271.9375 C305.87418427 273.38641129 305.87418427 273.38641129 305.87335205 274.86459351 C305.83233359 290.75957656 304.91485808 306.04777511 301.5 321.625 C301.28037598 322.62708496 301.06075195 323.62916992 300.83447266 324.66162109 C292.98155646 359.2355713 277.69773868 391.91663388 255.5 419.625 C254.74203125 420.58664062 253.9840625 421.54828125 253.203125 422.5390625 C240.73709244 437.83124529 226.54451731 452.10886227 210.5 463.625 C209.46101563 464.38554687 208.42203125 465.14609375 207.3515625 465.9296875 C178.90026897 486.23196856 146.78750996 499.91445377 112.5 506.625 C111.69030762 506.78871094 110.88061523 506.95242188 110.04638672 507.12109375 C81.15096518 512.68077732 48.1903936 511.86555242 19.5 505.625 C18.01862549 505.30354004 18.01862549 505.30354004 16.50732422 504.97558594 C-19.62559569 496.84079453 -52.81357643 481.04483155 -81.5 457.625 C-82.12100586 457.1196875 -82.74201172 456.614375 -83.38183594 456.09375 C-96.00206678 445.74421739 -107.46020465 434.51515316 -117.5 421.625 C-118.26441406 420.68914062 -119.02882813 419.75328125 -119.81640625 418.7890625 C-145.33251276 386.92464698 -161.36390337 347.84503039 -167.5 307.625 C-167.62842285 306.79484375 -167.7568457 305.9646875 -167.88916016 305.109375 C-171.91197153 277.5629631 -170.25607253 248.77607642 -164.5 221.625 C-165.30107178 221.41407715 -166.10214355 221.2031543 -166.92749023 220.98583984 C-169.94493028 220.18272886 -172.95780095 219.36459314 -175.96850586 218.53662109 C-177.89455114 218.01170509 -179.8251798 217.50369953 -181.75585938 216.99609375 C-190.88196681 214.47033033 -198.98068172 211.64767781 -204.5625 203.625 C-209.0292798 194.17423432 -206.94597468 184.67091836 -203.6875 175.25 C-199.66709262 164.19549823 -194.59395398 153.5626069 -189.51220703 142.96484375 C-187.5766664 138.53659626 -187.5766664 138.53659626 -188.4375 133.9375 C-191.06301008 125.75208623 -189.30470012 119.12098099 -185.5 111.625 C-176.61052435 95.40593555 -165.76623166 80.44203058 -153.5 66.625 C-152.63246094 65.635 -151.76492187 64.645 -150.87109375 63.625 C-146.03954897 58.19596648 -141.08231206 53.2667027 -135.5 48.625 C-134.73429687 47.93664063 -133.96859375 47.24828125 -133.1796875 46.5390625 C-96.78881587 14.60421597 -96.78881587 14.60421597 -78.25 14.4375 C-77.54359375 14.42332031 -76.8371875 14.40914062 -76.109375 14.39453125 C-73.5 14.625 -73.5 14.625 -69.79296875 15.90625 C-64.36204561 17.31550817 -60.76881402 14.88731974 -56.0625 12.3125 C-15.88115754 -8.11599656 -15.88115754 -8.11599656 0 0 Z M-23.6875 21.375 C-24.50033447 21.6743042 -25.31316895 21.9736084 -26.15063477 22.28198242 C-38.28662497 26.90138603 -50.17954439 32.60894332 -61.61352539 38.76245117 C-64.69628269 40.17197383 -67.16280863 39.97022669 -70.5 39.625 C-72.50615134 38.30094012 -74.50669158 36.96831654 -76.5 35.625 C-80.27202378 35.967456 -82.93189399 37.24418207 -86.125 39.21484375 C-86.9900415 39.74674316 -87.85508301 40.27864258 -88.74633789 40.82666016 C-90.10940063 41.68590088 -90.10940063 41.68590088 -91.5 42.5625 C-92.43900146 43.1507959 -93.37800293 43.7390918 -94.34545898 44.34521484 C-108.46003391 53.29355181 -120.7113549 63.79826558 -132.5 75.625 C-133.19480469 76.285 -133.88960937 76.945 -134.60546875 77.625 C-145.30594258 87.90387918 -153.5567158 100.16665645 -161.5 112.625 C-161.87382812 113.20797852 -162.24765625 113.79095703 -162.6328125 114.39160156 C-166.88165927 120.17431826 -166.88165927 120.17431826 -168.2734375 126.8125 C-167.50131519 128.78068463 -167.50131519 128.78068463 -165.9375 130.9375 C-164.12101677 134.33353386 -163.82725826 136.89619805 -164.5 140.625 C-166.03782391 144.41718157 -167.99195113 147.96620009 -169.9375 151.5625 C-174.40210957 160.14449394 -178.38959237 168.76152226 -181.8125 177.8125 C-182.20300537 178.82111084 -182.59351074 179.82972168 -182.99584961 180.86889648 C-183.34397705 181.81321533 -183.69210449 182.75753418 -184.05078125 183.73046875 C-184.50964722 184.97026489 -184.50964722 184.97026489 -184.9777832 186.23510742 C-185.5841557 189.01013331 -185.23224505 190.90458403 -184.5 193.625 C-177.99396769 195.88797589 -171.43703632 197.78904054 -164.77734375 199.54296875 C-163.29821251 199.93613029 -163.29821251 199.93613029 -161.78919983 200.3372345 C-158.67266447 201.16498087 -155.55510791 201.98880355 -152.4375 202.8125 C-150.31047786 203.37669299 -148.18352404 203.94114362 -146.05664062 204.50585938 C-140.8718797 205.8818851 -135.68627703 207.25470023 -130.5 208.625 C-127.76661465 205.16261801 -126.35167855 201.76382242 -124.9375 197.625 C-116.45641024 174.22357471 -103.15113786 153.06574614 -86.5 134.625 C-85.75492187 133.76003906 -85.00984375 132.89507812 -84.2421875 132.00390625 C-60.58276571 104.82525147 -28.94070184 87.04959524 4.5 74.625 C3.15006436 69.34520885 1.79910271 64.06568158 0.44726562 58.78637695 C-0.01068595 56.99738336 -0.46837648 55.20832293 -0.92578125 53.41918945 C-2.23748489 48.28887488 -3.55560657 43.16028071 -4.88061523 38.03338623 C-5.47707729 35.71413159 -6.06439302 33.39271767 -6.65039062 31.07080078 C-7.0009782 29.70466944 -7.35187008 28.33861615 -7.703125 26.97265625 C-8.00379883 25.78808838 -8.30447266 24.60352051 -8.61425781 23.38305664 C-9.3027492 20.51756311 -9.3027492 20.51756311 -11.5 18.625 C-16.03222768 18.625 -19.50476639 19.82534004 -23.6875 21.375 Z M22.5 60.625 C22.7165625 61.51638672 22.7165625 61.51638672 22.9375 62.42578125 C26.44615553 78.09290282 26.44615553 78.09290282 22.98046875 84.3828125 C21.01937288 88.67756072 21.29150961 92.10912406 21.5 96.75 C21.81368062 111.71356799 18.13710807 124.46180145 7.7109375 135.546875 C3.46804963 139.53488975 -1.32057639 142.5762612 -6.20117188 145.72119141 C-27.51742507 159.50562532 -44.48838643 175.87481758 -58.125 197.375 C-66.43906427 210.41116484 -75.79652985 220.94670969 -91.5 224.625 C-97.51283157 225.9279269 -103.40254895 225.62868021 -109.51171875 225.41015625 C-114.75473076 225.31846606 -117.8260809 226.04099044 -122.5 228.625 C-129.58923649 229.60029437 -136.61196956 228.29844774 -143.5 226.625 C-155.70058119 272.66185969 -148.08443443 325.44964835 -126.5 367.625 C-126.15179199 368.31577637 -125.80358398 369.00655273 -125.44482422 369.71826172 C-116.63180812 387.13789097 -105.89932699 402.92067706 -92.65234375 417.28515625 C-90.53283386 419.58930584 -88.48564658 421.94495434 -86.4375 424.3125 C-82.73657784 428.47149308 -78.7654481 432.05917566 -74.5 435.625 C-73.69691406 436.33914063 -72.89382812 437.05328125 -72.06640625 437.7890625 C-29.51759198 474.84576032 27.34035334 492.53818326 83.3125 489 C102.18610555 487.58793546 120.65351427 483.94602464 138.5 477.625 C139.14694824 477.40231445 139.79389648 477.17962891 140.46044922 476.95019531 C150.91625733 473.33842043 160.7496525 468.83845111 170.5 463.625 C171.10585938 463.30273438 171.71171875 462.98046875 172.3359375 462.6484375 C190.17328504 453.06767878 205.82318264 440.49665501 220.5 426.625 C221.78583984 425.42037109 221.78583984 425.42037109 223.09765625 424.19140625 C229.97878463 417.55019043 235.75708002 410.24061127 241.5 402.625 C242.2115625 401.696875 242.923125 400.76875 243.65625 399.8125 C261.91324842 375.46983544 274.41733017 346.57345735 280.75 316.875 C280.90098145 316.16827148 281.05196289 315.46154297 281.20751953 314.73339844 C281.68251489 312.36966731 282.10126891 310.00284715 282.5 307.625 C282.76707764 306.03244385 282.76707764 306.03244385 283.03955078 304.40771484 C284.63532201 293.83911736 284.89823985 283.42139438 284.875 272.75 C284.87468277 271.40104645 284.87468277 271.40104645 284.87435913 270.02484131 C284.83969799 255.21188531 283.82292895 241.10928411 280.5 226.625 C280.31276367 225.779375 280.12552734 224.93375 279.93261719 224.0625 C271.65371224 187.45801525 253.71810626 153.50840692 227.9609375 126.23828125 C225.83563966 123.98141735 223.81275364 121.67931596 221.8125 119.3125 C218.3461458 115.34283441 214.56535473 111.97105026 210.5 108.625 C209.97905762 108.19171387 209.45811523 107.75842773 208.92138672 107.31201172 C199.84391384 99.78528442 190.5386468 92.82059147 180.5 86.625 C179.83726074 86.21540039 179.17452148 85.80580078 178.49169922 85.38378906 C135.10449933 59.01178286 72.00799912 44.94064766 22.5 60.625 Z M-56.8828125 134.16015625 C-58.97592722 136.13143295 -61.0913117 137.9911256 -63.3125 139.8125 C-67.13741045 143.06871873 -70.31458349 146.75034132 -73.5 150.625 C-74.33660156 151.635625 -75.17320312 152.64625 -76.03515625 153.6875 C-88.45251795 168.93735779 -100.05339307 186.56187573 -105.5 205.625 C-97.84280878 206.29084271 -91.22780495 203.90872158 -85.171875 199.19921875 C-80.34354285 194.91635764 -77.18019596 189.47070741 -73.75 184.0625 C-67.83984612 174.98975831 -61.91665453 166.5246494 -54.5 158.625 C-53.99936035 158.08875 -53.4987207 157.5525 -52.98291016 157 C-42.35000317 145.70355778 -30.65680877 136.72870756 -17.49902344 128.55419922 C-11.30707029 124.66913874 -5.0410662 120.66721885 -1.625 114 C-1.23570312 113.26523438 -0.84640625 112.53046875 -0.4453125 111.7734375 C1.51518067 107.31777121 1.59351142 103.487594 1.5 98.625 C-17.57734701 98.625 -43.75549917 121.70278549 -56.8828125 134.16015625 Z " fill="#000000" transform="translate(206.5,2.375)"/>
<path d="M0 0 C23.1445283 20.19297104 37.64876136 47.29207887 41.38671875 77.81640625 C41.6673637 82.21685222 41.72109031 86.59536039 41.69921875 91.00390625 C41.69184692 92.77556152 41.69184692 92.77556152 41.68432617 94.58300781 C41.2493794 127.22855133 27.16756855 157.58215338 3.84960938 180.31494141 C-6.55824526 189.92192743 -21.18666329 201.10712462 -35.42578125 203.44140625 C-39.79760756 202.58418541 -41.68502297 201.16298714 -44.61328125 197.81640625 C-45.99264767 193.99425126 -46.00990616 190.95339767 -44.67578125 187.12890625 C-41.14159634 183.16633529 -36.71365619 180.89995822 -32.03125 178.484375 C-10.19539647 167.14472574 6.87975657 146.97471643 14.62451172 123.59814453 C22.73364549 97.74212488 21.10652234 71.25747471 9.38671875 46.81640625 C-3.91690837 22.09359814 -24.42680737 5.34424976 -51.05078125 -3.43359375 C-77.24145379 -10.98859544 -104.06681382 -7.08102811 -127.86328125 5.66015625 C-150.31996825 18.25780993 -166.75717005 39.40185427 -173.89453125 64.06640625 C-175.73498576 70.8754571 -177.32587061 77.75089459 -177.61328125 84.81640625 C-177.66484375 85.82445312 -177.71640625 86.8325 -177.76953125 87.87109375 C-178.54469535 116.35837455 -167.08979658 142.47792041 -147.80078125 163.06640625 C-139.62017827 170.85512406 -129.78678015 176.54996579 -119.81835938 181.72241211 C-117.10989601 183.16977244 -114.96187515 184.32003885 -113.17578125 186.86328125 C-111.9614015 191.07987762 -112.08617447 194.630416 -113.86328125 198.62890625 C-115.77149775 201.01417687 -116.70676156 201.92830301 -119.61328125 202.81640625 C-126.09908823 203.47570048 -130.15017699 201.53257299 -135.67578125 198.50390625 C-136.50924072 198.0538623 -137.3427002 197.60381836 -138.20141602 197.14013672 C-166.33633617 181.51112514 -185.76340182 155.77360369 -195.13671875 125.23046875 C-204.60466791 92.08669202 -199.060794 58.66583761 -182.61328125 28.81640625 C-180.19943175 24.89043264 -177.56198209 21.35267109 -174.61328125 17.81640625 C-173.76066554 16.74172015 -172.90916869 15.66614577 -172.05859375 14.58984375 C-166.24670692 7.35650925 -160.05549841 1.4141546 -152.61328125 -4.18359375 C-151.82179687 -4.83585937 -151.0303125 -5.488125 -150.21484375 -6.16015625 C-106.18769853 -41.0207665 -41.55506186 -34.722391 0 0 Z " fill="#000000" transform="translate(353.61328125,183.18359375)"/>
<path d="M0 0 C8.78241257 6.80119492 13.69508069 15.14021368 16.3203125 25.796875 C17.41357303 38.15326148 16.16756428 48.98833451 8.078125 58.88671875 C0.46827314 67.15609111 -7.69352447 73.2537803 -19.18359375 74.03515625 C-32.7232811 74.40610659 -43.34587366 71.29058663 -53.6171875 62.0546875 C-61.5963336 53.76600556 -65.06638075 42.64631791 -64.89453125 31.28515625 C-63.87249665 19.44813735 -58.64781087 9.89624845 -50.13671875 1.80859375 C-35.64290239 -10.05836241 -15.47456872 -10.05100605 0 0 Z M-38.5546875 20.609375 C-42.33607332 25.35769052 -43.94663327 29.12827255 -43.5546875 35.234375 C-42.76562189 40.56953449 -41.06316206 44.70115478 -36.96484375 48.3046875 C-31.14749262 52.60928136 -25.8799806 53.74624698 -18.6796875 52.796875 C-12.10357256 50.09697091 -7.48201841 45.31585666 -4.6796875 38.796875 C-3.69205549 32.04422821 -4.66935656 26.35440152 -8.6796875 20.796875 C-12.83689799 16.20759488 -17.44664958 14.14829217 -23.5546875 13.484375 C-29.91637538 14.12054379 -34.17281347 15.84488411 -38.5546875 20.609375 Z " fill="#000000" transform="translate(298.6796875,241.203125)"/>
<path d="M0 0 C3.14473827 3.49121555 5.45852111 7.29802964 7.78515625 11.3671875 C8.12751816 11.96500031 8.46988007 12.56281311 8.82261658 13.17874146 C9.54147806 14.43648506 10.25820907 15.69544851 10.97290039 16.95556641 C12.05728642 18.86581578 13.15018236 20.77100108 14.24414062 22.67578125 C14.94582836 23.9059559 15.64701672 25.13641555 16.34765625 26.3671875 C16.97679932 27.47175293 17.60594238 28.57631836 18.25415039 29.71435547 C23 38.64592365 23 38.64592365 23 43.125 C21.6866752 46.90080881 20.17921096 48.58103514 17 51 C13.27208591 52.0844841 10.94698918 52.26658939 7.2109375 51.21484375 C2.19700978 47.75633156 -0.04245538 42.82708609 -2.9375 37.5625 C-3.51951172 36.53189453 -4.10152344 35.50128906 -4.70117188 34.43945312 C-5.87808937 32.35540985 -7.04744222 30.26707668 -8.20922852 28.17456055 C-10.60074043 23.93504733 -13.11792277 19.77360686 -15.64990234 15.61669922 C-17.70254456 11.63835939 -17.84719288 9.38999949 -17 5 C-15.09654278 1.63234491 -13.62149958 0.31765534 -10.1875 -1.4375 C-6.11049661 -2.15697119 -3.80013242 -1.61857492 0 0 Z " fill="#000000" transform="translate(418,334)"/>
<path d="M0 0 C2.77726142 1.39166929 3.85858998 2.54521291 6 5 C7.2056128 8.900512 7.24339236 11.14812674 6.125 15.0625 C0.81775451 22.39898641 -9.11210814 26.43176731 -16.875 30.75 C-18.9146158 31.88963533 -20.95370305 33.03021726 -22.9921875 34.171875 C-23.88276855 34.6678418 -24.77334961 35.16380859 -25.69091797 35.67480469 C-27.50200285 36.7141966 -29.26255546 37.84170364 -31 39 C-36.02887454 39.80973404 -39.82538275 39.81504054 -44.0625 36.875 C-46.25287468 33.6247666 -47 31.91718166 -47 28 C-45.67195149 22.48958975 -43.70080448 20.46970088 -38.87890625 17.5 C-36.78473639 16.31317129 -34.67870474 15.14707771 -32.5625 14 C-31.53189453 13.4225 -30.50128906 12.845 -29.43945312 12.25 C-27.35616666 11.08262997 -25.26790703 9.92409135 -23.17480469 8.77441406 C-18.92740492 6.4005213 -14.76711533 3.88750328 -10.6105957 1.35839844 C-6.58977548 -0.7337968 -4.44701863 -0.92007282 0 0 Z " fill="#000000" transform="translate(379,109)"/>
<path d="M0 0 C2.82275936 1.25455972 4.46288541 2.28384722 6.3125 4.75 C7.57625818 8.88593587 7.67630212 12.52664303 5.85961914 16.484375 C3.5627826 19.59145176 1.30088499 20.92731301 -2.06640625 22.8125 C-2.65993393 23.14870361 -3.25346161 23.48490723 -3.86497498 23.83129883 C-5.75779678 24.89933456 -7.6598916 25.94951856 -9.5625 27 C-10.81376641 27.70463753 -12.06442376 28.41035777 -13.31445312 29.1171875 C-32.51376719 39.92690658 -32.51376719 39.92690658 -37.8125 40.1875 C-41.79508626 38.70379139 -44.15297311 36.79212601 -46 33 C-46.67502863 29.96829245 -46.45733128 28.20131899 -46 25 C-43.30723055 20.94652049 -40.44626447 18.78034525 -36.23828125 16.40625 C-34.55895508 15.44912109 -34.55895508 15.44912109 -32.84570312 14.47265625 C-31.66808859 13.81488957 -30.49035351 13.15733867 -29.3125 12.5 C-28.16587891 11.84902344 -27.01925781 11.19804687 -25.83789062 10.52734375 C-23.59608438 9.2569441 -21.35057106 7.9930598 -19.10107422 6.73632812 C-17.15819557 5.64848739 -15.22126769 4.54987222 -13.29345703 3.43554688 C-12.50438965 2.98244141 -11.71532227 2.52933594 -10.90234375 2.0625 C-10.23066162 1.67191406 -9.55897949 1.28132813 -8.86694336 0.87890625 C-5.77945236 -0.57460069 -3.32044779 -0.51083812 0 0 Z " fill="#000000" transform="translate(210,401)"/>
<path d="M0 0 C4.26452491 1.87581262 8.23523617 4.20663086 12.25 6.5625 C13.31863281 7.17158203 14.38726562 7.78066406 15.48828125 8.40820312 C18.67901755 10.2400657 21.84266828 12.11122145 25 14 C26.03705078 14.61085449 27.07410156 15.22170898 28.14257812 15.85107422 C29.12162109 16.44549316 30.10066406 17.03991211 31.109375 17.65234375 C31.98045898 18.17691162 32.85154297 18.70147949 33.74902344 19.24194336 C37.46425991 22.14361557 38.85709534 24.85676269 39.4375 29.5 C38.91358678 33.69130572 38.13294752 35.18838043 35 38 C31.73360895 39.63319553 29.46577448 40.40239247 25.86474609 39.41381836 C18.78494599 36.54424766 12.30511571 32.90691435 5.75 29 C4.70070313 28.38382812 3.65140625 27.76765625 2.5703125 27.1328125 C-11.40868394 18.8869741 -11.40868394 18.8869741 -14 15 C-14.54531842 11.93473649 -14.54325893 9.06591671 -14 6 C-10.06246918 1.02627685 -6.35645449 -1.24730948 0 0 Z " fill="#000000" transform="translate(431,255)"/>
<path d="M0 0 C4.8586164 2.18277981 9.37731986 4.89044361 13.9375 7.625 C15.17293832 8.34657771 16.40926166 9.06664238 17.64648438 9.78515625 C21.1240417 11.8149547 24.56469001 13.89946136 28 16 C28.92828613 16.55655273 29.85657227 17.11310547 30.81298828 17.68652344 C31.61849121 18.18958008 32.42399414 18.69263672 33.25390625 19.2109375 C33.93912354 19.6342334 34.62434082 20.0575293 35.33032227 20.49365234 C37.50427962 22.45495032 38.16580867 24.21437296 39 27 C38.92276821 31.32498043 38.44683703 33.41272847 35.8125 36.875 C32.59712833 39.30439193 31.01900433 40 27 40 C22.21684648 38.14589621 17.82962687 35.88939141 13.3671875 33.34765625 C12.76746124 33.00625107 12.16773499 32.66484589 11.54983521 32.31309509 C10.29338697 31.59642098 9.03801493 30.87785703 7.78369141 30.1574707 C5.87610081 29.06313151 3.96372456 27.97752739 2.05078125 26.89257812 C0.82261938 26.19062405 -0.4052552 25.48816705 -1.6328125 24.78515625 C-3.28627686 23.83974976 -3.28627686 23.83974976 -4.97314453 22.87524414 C-12.34636284 18.30727432 -12.34636284 18.30727432 -14 15 C-14.55512815 10.36786507 -14.6364242 7.01827873 -12.125 3 C-8.41582586 -0.49098742 -4.92088859 -0.96984413 0 0 Z " fill="#000000" transform="translate(94,255)"/>
<path d="M0 0 C3.71661318 0.76285164 5.26581504 2.42089078 7.37890625 5.48828125 C9.06782646 9.76687912 8.00460452 13.3510553 6.37890625 17.48828125 C4.28481112 21.54024613 1.96581406 25.44751217 -0.37109375 29.36328125 C-1.28375 30.91982422 -1.28375 30.91982422 -2.21484375 32.5078125 C-13.61120855 51.81831952 -13.61120855 51.81831952 -18.62109375 53.48828125 C-21.51194158 53.71836914 -23.88789841 53.47465618 -26.62109375 52.48828125 C-29.96076024 49.56607307 -31.37232281 47.64167379 -32.30859375 43.30078125 C-31.64806739 39.63786237 -30.78384651 37.68066 -28.98828125 34.4921875 C-28.44550537 33.52079834 -27.90272949 32.54940918 -27.34350586 31.54858398 C-26.49091187 30.03373413 -26.49091187 30.03373413 -25.62109375 28.48828125 C-24.53561296 26.51218288 -23.45097485 24.53562139 -22.3671875 22.55859375 C-21.26520624 20.5763316 -20.16233868 18.59456191 -19.05859375 16.61328125 C-18.50751953 15.6078125 -17.95644531 14.60234375 -17.38867188 13.56640625 C-9.5270016 -0.49693749 -9.5270016 -0.49693749 0 0 Z " fill="#000000" transform="translate(286.62109375,79.51171875)"/>
<path d="M0 0 C3.56918517 1.78459258 5.63529713 4.03461005 7.0625 7.8125 C6.89564112 16.32230289 1.38432904 23.89835002 -2.8125 31 C-3.71838867 32.56234375 -3.71838867 32.56234375 -4.64257812 34.15625 C-13.57189444 49.38126296 -13.57189444 49.38126296 -19 53 C-23.96495273 53.45971784 -27.06167696 53.15065843 -31 50 C-33.57946137 46.56071817 -33.25907874 43.17489209 -33 39 C-31.73413086 35.88549805 -31.73413086 35.88549805 -29.96484375 32.76171875 C-29.31966797 31.61123047 -28.67449219 30.46074219 -28.00976562 29.27539062 C-27.49796753 28.38944214 -27.49796753 28.38944214 -26.97583008 27.4855957 C-25.95069467 25.71034946 -24.94724988 23.92427606 -23.94726562 22.13476562 C-10.3999179 -1.9033812 -10.3999179 -1.9033812 0 0 Z " fill="#000000" transform="translate(288,417)"/>
<path d="M0 0 C1.29198051 -0.02409439 1.29198051 -0.02409439 2.61006165 -0.04867554 C6.54374261 -0.09327872 10.47725799 -0.1341832 14.41113281 -0.15722656 C16.48383817 -0.17378613 18.55648643 -0.20107608 20.62890625 -0.23925781 C23.62294019 -0.2941067 26.61563833 -0.31591202 29.61010742 -0.33056641 C30.53217484 -0.35323578 31.45424225 -0.37590515 32.4042511 -0.39926147 C36.8088157 -0.38484542 39.78259892 -0.23057546 43.28466797 2.60058594 C46.70647072 6.24954663 46.70647072 6.24954663 46.73510742 9.21630859 C46.17479825 15.58057498 46.17479825 15.58057498 43.84057617 18.69287109 C40.74729517 20.87636356 38.20982461 21.32076896 34.52294922 21.36987305 C33.68164963 21.38270828 32.84035004 21.39554352 31.97355652 21.4087677 C31.06729019 21.41615463 30.16102386 21.42354156 29.22729492 21.43115234 C28.29133987 21.43922409 27.35538483 21.44729584 26.3910675 21.45561218 C24.409819 21.46944211 22.42854678 21.48016915 20.44726562 21.48803711 C17.42491272 21.50524675 14.40365478 21.54914221 11.3815918 21.59326172 C9.45516753 21.60338935 7.52873399 21.61190523 5.60229492 21.61865234 C4.70210129 21.63616043 3.80190765 21.65366852 2.87443542 21.67170715 C-2.81229993 21.65215169 -5.92879394 20.93167454 -10.28442383 17.19287109 C-12.0144995 13.73271974 -11.76795113 9.97614555 -11.28442383 6.19287109 C-8.29713941 1.24840033 -5.60765095 0.09527952 0 0 Z " fill="#000000" transform="translate(403.284423828125,179.80712890625)"/>
<path d="M0 0 C1.02428101 -0.00336868 2.04856201 -0.00673737 3.10388184 -0.01020813 C5.26575755 -0.00990962 7.42767581 0.00530759 9.58935547 0.03442383 C12.89552174 0.07409004 16.19767426 0.05513066 19.50390625 0.02929688 C21.60678637 0.03685637 23.7096576 0.04781021 25.8125 0.0625 C27.29236389 0.05202385 27.29236389 0.05202385 28.80212402 0.04133606 C33.51360161 0.13811033 35.69511407 0.20680196 39.50585938 3.18041992 C42.30915081 6.98812808 42.86317955 9.00965147 42.40625 13.76171875 C40.63235781 17.30950312 39.47821457 19.28521158 35.81225586 20.91479492 C31.64356224 21.95136565 27.81317258 22.06737285 23.53515625 22.0625 C22.27432472 22.06892769 22.27432472 22.06892769 20.98802185 22.07548523 C19.21720273 22.08120653 17.44636012 22.08174508 15.67553711 22.07739258 C12.98054558 22.07423258 10.28665296 22.09771882 7.59179688 22.12304688 C5.86458471 22.12532025 4.13736961 22.12602319 2.41015625 22.125 C1.61203018 22.13420975 0.81390411 22.14341949 -0.00840759 22.15290833 C-5.26043753 22.10991559 -8.95370096 21.28428069 -13.59375 18.76171875 C-15.59930847 15.75338105 -15.93038294 14.88463226 -16.03125 11.44921875 C-16.07121094 10.71058594 -16.11117187 9.97195313 -16.15234375 9.2109375 C-14.09557179 0.19278354 -7.93664664 -0.12294171 0 0 Z " fill="#000000" transform="translate(115.59375,348.23828125)"/>
<path d="M0 0 C3.01933798 1.61634795 5.51980081 3.57681646 6.65008545 6.92668152 C7.25070281 10.48546771 7.18424986 14.07619858 7.203125 17.67578125 C7.20882507 18.5191655 7.21452515 19.36254974 7.22039795 20.23149109 C7.22983097 22.01425936 7.23637518 23.79704493 7.24023438 25.57983398 C7.24992841 28.29246822 7.28096268 31.00434067 7.3125 33.71679688 C7.31903194 35.45312053 7.32428166 37.18944957 7.328125 38.92578125 C7.3404718 39.73018143 7.3528186 40.5345816 7.36553955 41.36335754 C7.34486783 46.64903966 6.49266126 50.31258273 4 55 C1.29013532 57.27042717 -0.45183064 57.91835776 -3.9375 58.4375 C-7.8124426 57.88393677 -9.95425348 56.40826469 -13 54 C-14.16959296 51.66081408 -14.1448238 50.2369908 -14.17700195 47.62963867 C-14.18983719 46.7249736 -14.20267242 45.82030853 -14.21589661 44.88822937 C-14.22328354 43.90804337 -14.23067047 42.92785736 -14.23828125 41.91796875 C-14.246353 40.91163895 -14.25442474 39.90530914 -14.26274109 38.8684845 C-14.27658717 36.73582689 -14.28730697 34.60314706 -14.29516602 32.47045898 C-14.31237593 29.2109978 -14.35625753 25.95255153 -14.40039062 22.69335938 C-14.41051767 20.6224033 -14.41903374 18.55143859 -14.42578125 16.48046875 C-14.44328934 15.50635544 -14.46079742 14.53224213 -14.47883606 13.52861023 C-14.46485514 9.16013944 -14.42781829 6.69574712 -12.09838867 2.9074707 C-8.43218838 -0.42516722 -4.81506499 -0.80399972 0 0 Z " fill="#000000" transform="translate(363,392)"/>
<path d="M0 0 C2.8100346 1.79363911 4.50940468 3.01880935 6 6 C6.34708476 11.29304255 6.51351894 14.73358414 3 19 C-0.7958084 21.3683249 -3.56735484 21.15790365 -7.875 20.52734375 C-11.04922088 19.73962349 -12.28364907 18.78907026 -14 16 C-15.19540834 12.00415954 -15.44958213 9.06479978 -13.8125 5.1875 C-9.82463714 0.37456207 -6.35582977 -1.17280192 0 0 Z " fill="#000000" transform="translate(314,325)"/>
<path d="M0 0 C2.8100346 1.79363911 4.50940468 3.01880935 6 6 C6.34708476 11.29304255 6.51351894 14.73358414 3 19 C-0.7958084 21.3683249 -3.56735484 21.15790365 -7.875 20.52734375 C-11.04922088 19.73962349 -12.28364907 18.78907026 -14 16 C-15.19540834 12.00415954 -15.44958213 9.06479978 -13.8125 5.1875 C-9.82463714 0.37456207 -6.35582977 -1.17280192 0 0 Z " fill="#000000" transform="translate(244,325)"/>
<path d="M0 0 C2.77262674 1.70623184 3.71852362 2.95423707 4.5625 6.08984375 C5.17415452 9.91905587 5.28704018 12.32545557 3.75 15.9375 C1.7297043 18.31856279 0.06245731 19.82889264 -3.0859375 20.3359375 C-7.17310165 20.40568433 -9.42122719 20.34967524 -13 18.1875 C-15.57248533 15.37384417 -15.94866316 13.45347543 -16.375 9.6875 C-15.87537565 4.77452721 -14.49238747 3.41116915 -11 0 C-7.14182512 -1.28605829 -3.87949638 -0.97769566 0 0 Z " fill="#000000" transform="translate(341,300)"/>
<path d="M0 0 C2.77262674 1.70623184 3.71852362 2.95423707 4.5625 6.08984375 C5.16848127 9.88353899 5.26818888 12.33658541 3.8125 15.9375 C0.67410562 19.50877637 -1.15244245 19.91928023 -5.9375 20.375 C-10.04616551 20.28301495 -12.10821749 18.97941228 -15 16 C-16.61540873 12.76918255 -16.5896275 9.49240902 -16 6 C-12.23803791 -0.78315173 -7.22603046 -1.82107622 0 0 Z " fill="#000000" transform="translate(341,230)"/>
<path d="M0 0 C3.18637361 0.64073817 4.95955678 2.09960721 7.15625 4.43359375 C8.77613799 7.67336973 8.72145367 10.93192965 8.15625 14.43359375 C6.81584381 17.24063271 5.60879539 18.29413926 3.15625 20.43359375 C-0.93226312 21.69731599 -3.05190353 21.70769445 -7.09375 20.30859375 C-10.22031108 18.17684756 -11.50538388 16.97632759 -12.84375 13.43359375 C-12.84375 8.60515661 -12.51684907 6.44324235 -9.84375 2.43359375 C-6.2938633 0.06700262 -4.18574986 -0.23021624 0 0 Z " fill="#000000" transform="translate(311.84375,203.56640625)"/>
<path d="M0 0 C3.51038651 2.59463351 4.77811815 4.23728114 6 8.4375 C6 12.53094236 5.22004022 14.59065251 3 18 C-1.01858595 20.6790573 -4.27641721 20.69610694 -9 20 C-11.87029869 18.20606332 -13.49131638 17.01736724 -15 14 C-15.42074378 10.94059163 -15.47999423 8.0540292 -15 5 C-10.58053726 -0.73335706 -6.94670018 -1.6767897 0 0 Z " fill="#000000" transform="translate(79,149)"/>
<path d="M0 0 C2.38312703 1.89428046 3.6500559 3.30011179 5 6 C5.5811138 13.08958838 5.5811138 13.08958838 3.125 16.9375 C0.13549686 19.83907658 -0.57629239 19.97949802 -4.875 20.1875 C-10.45147548 20.07657553 -10.45147548 20.07657553 -13 18 C-15.29147823 14.60229091 -16 12.55333147 -16 8.4375 C-14.81383817 4.36006871 -13.23715865 2.68447302 -10 0 C-6.74577611 -1.62711194 -3.40725698 -0.89060975 0 0 Z " fill="#000000" transform="translate(280,375)"/>
<path d="M0 0 C2.38312703 1.89428046 3.6500559 3.30011179 5 6 C5.5811138 13.08958838 5.5811138 13.08958838 3.125 16.9375 C0.13549686 19.83907658 -0.57629239 19.97949802 -4.875 20.1875 C-10.45147548 20.07657553 -10.45147548 20.07657553 -13 18 C-15.29147823 14.60229091 -16 12.55333147 -16 8.4375 C-14.81383817 4.36006871 -13.23715865 2.68447302 -10 0 C-6.74577611 -1.62711194 -3.40725698 -0.89060975 0 0 Z " fill="#000000" transform="translate(280,335)"/>
<path d="M0 0 C3.54281383 2.61860153 4.78669043 4.25341652 6 8.5 C6 13.31804413 4.50968717 15.37848415 1.3125 18.8125 C-2.08364801 20.5564679 -5.3104216 20.68081506 -9 20 C-11.8100346 18.20636089 -13.50940468 16.98119065 -15 14 C-15.42074378 10.94059163 -15.47999423 8.0540292 -15 5 C-10.58053726 -0.73335706 -6.94670018 -1.6767897 0 0 Z " fill="#000000" transform="translate(219,300)"/>
<path d="M0 0 C2.38312703 1.89428046 3.6500559 3.30011179 5 6 C5.5811138 13.08958838 5.5811138 13.08958838 3.125 16.9375 C0.13549686 19.83907658 -0.57629239 19.97949802 -4.875 20.1875 C-10.45147548 20.07657553 -10.45147548 20.07657553 -13 18 C-15.29147823 14.60229091 -16 12.55333147 -16 8.4375 C-14.81383817 4.36006871 -13.23715865 2.68447302 -10 0 C-6.74577611 -1.62711194 -3.40725698 -0.89060975 0 0 Z " fill="#000000" transform="translate(350,265)"/>
<path d="M0 0 C2.38312703 1.89428046 3.6500559 3.30011179 5 6 C5.5811138 13.08958838 5.5811138 13.08958838 3.125 16.9375 C0.13549686 19.83907658 -0.57629239 19.97949802 -4.875 20.1875 C-10.45147548 20.07657553 -10.45147548 20.07657553 -13 18 C-15.29147823 14.60229091 -16 12.55333147 -16 8.4375 C-14.81383817 4.36006871 -13.23715865 2.68447302 -10 0 C-6.74577611 -1.62711194 -3.40725698 -0.89060975 0 0 Z " fill="#000000" transform="translate(210,265)"/>
<path d="M0 0 C2.38312703 1.89428046 3.6500559 3.30011179 5 6 C5.5811138 13.08958838 5.5811138 13.08958838 3.125 16.9375 C0.13549686 19.83907658 -0.57629239 19.97949802 -4.875 20.1875 C-10.45147548 20.07657553 -10.45147548 20.07657553 -13 18 C-15.29147823 14.60229091 -16 12.55333147 -16 8.4375 C-14.81383817 4.36006871 -13.23715865 2.68447302 -10 0 C-6.74577611 -1.62711194 -3.40725698 -0.89060975 0 0 Z " fill="#000000" transform="translate(280,195)"/>
<path d="M0 0 C3.24962741 2.4725426 4.71720978 4.09507129 5.9375 8 C6.03395399 12.62979174 4.99631034 14.91577993 1.875 18.3125 C-1.86524737 20.50786259 -4.75814428 20.87407936 -9 20 C-11.8100346 18.20636089 -13.50940468 16.98119065 -15 14 C-15.42074378 10.94059163 -15.47999423 8.0540292 -15 5 C-10.58053726 -0.73335706 -6.94670018 -1.6767897 0 0 Z " fill="#000000" transform="translate(219,230)"/>
<path d="M0 0 C3.18637361 0.64073817 4.95955678 2.09960721 7.15625 4.43359375 C8.77613799 7.67336973 8.72145367 10.93192965 8.15625 14.43359375 C6.81584381 17.24063271 5.60879539 18.29413926 3.15625 20.43359375 C-0.93226312 21.69731599 -3.05190353 21.70769445 -7.09375 20.30859375 C-10.22031108 18.17684756 -11.50538388 16.97632759 -12.84375 13.43359375 C-12.84375 8.60515661 -12.51684907 6.44324235 -9.84375 2.43359375 C-6.2938633 0.06700262 -4.18574986 -0.23021624 0 0 Z " fill="#000000" transform="translate(241.84375,203.56640625)"/>
<path d="M0 0 C3.18637361 0.64073817 4.95955678 2.09960721 7.15625 4.43359375 C8.89929944 7.91969263 8.72777528 11.62999446 8.15625 15.43359375 C5.63256975 19.10440139 3.98589117 20.19224359 -0.28125 21.43359375 C-4.46185309 21.43359375 -6.43140141 20.83774844 -9.84375 18.43359375 C-12.24790469 15.02124516 -12.84375 13.05169684 -12.84375 8.87109375 C-10.79298323 1.82158298 -7.02870459 -0.38657875 0 0 Z " fill="#000000" transform="translate(160.84375,63.56640625)"/>
</svg>
