<?xml version="1.0" encoding="UTF-8"?>
<svg version="1.1" xmlns="http://www.w3.org/2000/svg" width="512" height="512">
<path d="M0 0 C1.38721001 -0.00810448 1.38721001 -0.00810448 2.80244446 -0.01637268 C5.83209119 -0.02878849 8.86077434 -0.0124178 11.89038086 0.00561523 C14.01069691 0.00546009 16.13101325 0.00396862 18.25132751 0.00120544 C22.68363055 -0.00017531 27.11560872 0.01232651 31.54785156 0.03515625 C37.21588258 0.06355697 42.88337498 0.06079434 48.55144596 0.04806614 C52.92590397 0.04109655 57.30023848 0.04891263 61.67468071 0.06132317 C63.76416996 0.06582398 65.85367252 0.0661865 67.94316292 0.06225777 C70.86733105 0.05933255 73.79076823 0.07591467 76.71484375 0.09765625 C77.56961304 0.0931546 78.42438232 0.08865295 79.30505371 0.08401489 C88.52002508 0.19728941 94.83838897 3.21286429 101.53491211 9.54077148 C106.76134864 14.95670898 111.12050259 21.15338869 115.58422852 27.19506836 C118.45537377 31.07140164 121.37252818 34.91227677 124.29272461 38.75170898 C124.820354 39.45424805 125.3479834 40.15678711 125.89160156 40.88061523 C130.77073274 47.59815826 130.77073274 47.59815826 137.29272461 52.50170898 C139.77400346 52.62201116 142.23208429 52.68728042 144.71459961 52.71264648 C146.23023518 52.74072761 147.74586003 52.76939215 149.26147461 52.79858398 C151.64883989 52.83974545 154.0360078 52.8766346 156.42358398 52.90307617 C158.72934299 52.93082182 161.0341946 52.97670361 163.33959961 53.02514648 C164.04606628 53.02839935 164.75253296 53.03165222 165.48040771 53.03500366 C170.11670514 53.14899507 173.3529933 54.05193697 177.29272461 56.50170898 C178.83859337 59.5934465 178.58631982 62.09600451 178.29272461 65.50170898 C176.81811523 67.69067383 176.81811523 67.69067383 174.29272461 69.50170898 C171.26354707 69.92451602 168.60483683 70.11003647 165.57397461 70.10327148 C164.72025269 70.11184174 163.86653076 70.12041199 162.98693848 70.12924194 C161.17809587 70.14072084 159.36916095 70.14173453 157.56030273 70.13305664 C154.8288177 70.12679177 152.10178975 70.17344437 149.37084961 70.22436523 C138.18188366 70.30539832 129.06199343 69.57775469 120.33544922 61.74487305 C118.46132803 59.77910707 116.89954994 57.69313812 115.29272461 55.50170898 C114.42814951 54.35488664 113.56213638 53.20914768 112.69506836 52.06420898 C110.66299638 49.37005498 108.64099446 46.66866736 106.62475586 43.96264648 C103.07713277 39.20910779 99.51713728 34.46619619 95.91772461 29.75170898 C95.34723389 28.98938965 94.77674316 28.22707031 94.18896484 27.44165039 C90.10219048 22.11970091 86.18697652 17.73310365 79.29272461 16.50170898 C76.69090372 16.40256452 74.11592078 16.35483461 71.51416016 16.35644531 C70.73478088 16.3530867 69.95540161 16.34972809 69.15240479 16.3462677 C66.57806805 16.33677583 64.0037965 16.33481537 61.42944336 16.33374023 C59.63588942 16.33052606 57.84233574 16.32716187 56.04878235 16.32365417 C52.28870028 16.31766706 48.52864118 16.31581381 44.76855469 16.31640625 C39.96019587 16.31650776 35.15198508 16.30286469 30.34366131 16.28563404 C26.63838531 16.27449172 22.93314481 16.27248774 19.22785378 16.27301598 C17.45571191 16.27183888 15.68356903 16.2674323 13.91144371 16.25968361 C11.42734931 16.24984008 8.94357263 16.25277904 6.45947266 16.25878906 C5.73351395 16.25316956 5.00755524 16.24755005 4.25959778 16.24176025 C-1.70430964 16.27825859 -6.74665465 16.97678174 -11.51977539 20.68920898 C-15.60715482 25.9444111 -15.95809637 31.58163196 -15.96606445 38.07006836 C-15.96956909 38.79136429 -15.97307373 39.51266022 -15.97668457 40.2558136 C-15.98542345 42.61912921 -15.97968074 44.9821408 -15.97290039 47.34545898 C-15.9742493 49.00020403 -15.97619171 50.65494869 -15.97869873 52.30969238 C-15.98163937 55.76940706 -15.97738657 59.22901812 -15.96801758 62.6887207 C-15.95662367 67.11027018 -15.96318883 71.53157679 -15.97516251 75.95311737 C-15.9824098 79.36759247 -15.98008002 82.78201055 -15.97490692 86.19648743 C-15.97357836 87.82627898 -15.97519018 89.45607582 -15.97986603 91.08586121 C-15.98497863 93.36849568 -15.9771552 95.65074371 -15.96606445 97.93334961 C-15.96447327 99.22905884 -15.96288208 100.52476807 -15.96124268 101.85974121 C-15.59472791 107.11567394 -14.77453189 111.16763836 -11.45727539 115.31420898 C-6.35694911 119.37128671 -1.23064429 119.79536255 5.10174465 119.75618458 C6.25876597 119.7609943 6.25876597 119.7609943 7.43916145 119.76590118 C10.02709781 119.77421086 12.61480333 119.76827351 15.20274353 119.7624054 C17.07559393 119.76542563 18.9484431 119.76931447 20.82129008 119.77399796 C25.97055539 119.78430309 31.11975127 119.78208974 36.26902235 119.77781737 C41.82125757 119.77535472 47.37347588 119.78435853 52.92570496 119.79185486 C63.8039252 119.8046165 74.68212078 119.80639374 85.56034725 119.8040546 C94.40025081 119.802273 103.24014686 119.80401767 112.08004951 119.80827904 C113.33722952 119.80887423 114.59440952 119.80946942 115.88968589 119.81008264 C118.44347457 119.81129436 120.99726325 119.8125085 123.55105192 119.81372502 C140.70256053 119.82151433 157.8540663 119.82542987 175.00557613 119.82140827 C175.67632207 119.8212519 176.347068 119.82109552 177.03813957 119.82093441 C180.43777225 119.82012862 183.83740492 119.81928285 187.23703759 119.8184211 C187.91221978 119.81825002 188.58740197 119.81807893 189.28304422 119.81790266 C190.64842632 119.817556 192.01380841 119.81720747 193.3791905 119.81685707 C214.62764732 119.81149908 235.87606264 119.81943235 257.12451172 119.83789062 C280.99540085 119.85860267 304.86626447 119.86930381 328.73716551 119.86531514 C341.37714414 119.86340055 354.01708496 119.86591571 366.65705681 119.88002968 C377.41685108 119.89192244 388.17658428 119.89337201 398.93637937 119.88123951 C404.42782555 119.87533618 409.91915991 119.87429153 415.41059875 119.88624191 C420.43592934 119.89705105 425.46105405 119.89405679 430.4863748 119.87998023 C432.30595792 119.87731957 434.12555691 119.87974251 435.9451245 119.88771609 C438.41628697 119.89779483 440.88672998 119.8894238 443.35786343 119.87643909 C444.06613208 119.88374844 444.77440073 119.89105779 445.50413206 119.89858863 C451.42268451 119.83402113 455.8709724 118.33438633 460.60522461 114.75170898 C464.96054326 108.94461745 464.60165173 101.94528771 464.54272461 95.00170898 C464.55045898 94.0903418 464.55819336 93.17897461 464.56616211 92.23999023 C464.54708683 85.63040634 464.31240557 80.02631019 460.04272461 74.68920898 C454.15652648 70.00700593 448.10498167 70.21735399 440.91732788 70.25688171 C439.35191267 70.25348485 439.35191267 70.25348485 437.75487292 70.25001937 C434.25880185 70.24472332 430.76290796 70.25355464 427.2668457 70.26220703 C424.76016686 70.26109418 422.25348829 70.25903641 419.74681091 70.25610352 C414.34973921 70.25138073 408.9527149 70.25236898 403.55564499 70.25787926 C395.02678243 70.26609943 386.49799717 70.25485824 377.96914673 70.24067688 C375.0500471 70.23607621 372.13094726 70.23162581 369.21184731 70.22723866 C368.48242978 70.22614051 367.75301226 70.22504237 367.00149118 70.22391095 C358.70501732 70.21174509 350.40854099 70.20418671 342.11206055 70.19824219 C341.35389603 70.19769413 340.59573151 70.19714607 339.81459232 70.1965814 C327.51510221 70.18811329 315.21563395 70.19146517 302.9161437 70.19739654 C290.28686782 70.20300966 277.65770229 70.18950373 265.02846014 70.15984374 C257.23851078 70.14228661 249.44888008 70.14068776 241.6589321 70.15948889 C235.69512332 70.17244265 229.73154939 70.15959986 223.76776314 70.13706207 C221.31835354 70.13199702 218.86890923 70.13554512 216.41952705 70.14819527 C213.08388154 70.16420255 209.74973093 70.14974983 206.41415405 70.12748718 C204.94948246 70.14554343 204.94948246 70.14554343 203.45522153 70.16396445 C196.9462726 70.07495535 196.9462726 70.07495535 193.65622902 67.18916035 C191.7946432 63.5199963 192.20559224 61.41538551 193.29272461 57.50170898 C195.18806336 54.91715614 196.18098978 54.53895393 199.29272461 53.50170898 C201.27150598 53.41034157 203.25328773 53.37976573 205.23417664 53.38145447 C206.47518127 53.3800798 207.71618591 53.37870514 208.99479675 53.37728882 C210.37234521 53.38082795 211.74989343 53.38446276 213.12744141 53.38818359 C214.57614134 53.38846563 216.02484141 53.38830742 217.47354126 53.38774109 C221.40920099 53.38745374 225.34483035 53.39334035 229.28048301 53.40031505 C233.39245688 53.40655901 237.50443142 53.40715321 241.6164093 53.40834045 C249.40428733 53.41145068 257.19215135 53.41965994 264.98002321 53.42968994 C273.8457021 53.44086063 282.71138165 53.44636394 291.57706583 53.45138538 C309.81562692 53.46184279 328.05417413 53.47963732 346.29272461 53.50170898 C346.29272461 49.54170898 346.29272461 45.58170898 346.29272461 41.50170898 C345.13772461 41.48108398 343.98272461 41.46045898 342.79272461 41.43920898 C337.22809727 40.74733702 333.93215498 37.56881436 330.29272461 33.50170898 C326.74063336 28.00169673 325.78582443 22.50394417 326.79272461 16.06420898 C328.37367145 9.81519612 332.39854587 5.38279269 337.72622681 1.92004395 C342.67186667 -0.04675214 347.12691238 0.06693516 352.40356445 0.08178711 C354.0680941 0.06908279 354.0680941 0.06908279 355.76625061 0.05612183 C359.4288382 0.03275286 363.09100564 0.03172972 366.75366211 0.03295898 C369.30425179 0.0258572 371.85483987 0.01815817 374.40542603 0.0098877 C379.75007186 -0.00355707 385.09456307 -0.00530747 390.43920898 0.00073242 C396.6026191 0.00736987 402.76543025 -0.01548459 408.92871892 -0.05258131 C414.87464067 -0.08706109 420.82037886 -0.09360851 426.76640701 -0.0894928 C429.28853768 -0.09118421 431.81067623 -0.10082861 434.3327446 -0.11863708 C437.86334193 -0.14082289 441.39250241 -0.13112462 444.9230957 -0.11352539 C445.96024216 -0.12678864 446.99738861 -0.14005188 448.06596375 -0.15371704 C454.67163591 -0.07738181 459.24319829 1.10306133 464.29272461 5.50170898 C469.35511507 11.25559053 470.65919837 16.14941612 470.57006836 23.64624023 C470.01127525 29.39944821 467.61958097 33.59894607 463.29272461 37.37670898 C458.13097351 41.03294935 457.00965629 41.50170898 450.29272461 41.50170898 C450.29272461 45.79170898 450.29272461 50.08170898 450.29272461 54.50170898 C451.36522461 54.37795898 452.43772461 54.25420898 453.54272461 54.12670898 C460.47116149 54.13903716 467.03037958 57.77225697 472.25366211 62.14233398 C480.45901849 71.0557668 480.98564074 80.79234142 480.92407227 92.32958984 C480.91776199 94.79957796 480.96471902 97.26473489 481.01538086 99.73413086 C481.09979479 110.31895839 479.93150987 119.32300816 472.4543457 127.51611328 C468.49011555 131.20949903 463.83449349 134.50170898 458.29272461 134.50170898 C458.29272461 232.84170898 458.29272461 331.18170898 458.29272461 432.50170898 C459.94272461 432.83170898 461.59272461 433.16170898 463.29272461 433.50170898 C471.12919408 437.3177289 475.54722908 442.94950856 479.34399414 450.62768555 C480.56811132 454.33594787 480.63626647 457.86785057 480.66381836 461.73217773 C480.67284683 462.52263992 480.68187531 463.31310211 480.69117737 464.1275177 C480.70564796 465.79753861 480.71455866 467.46761581 480.71826172 469.13769531 C480.73010797 471.66433129 480.77927711 474.18848203 480.82983398 476.71459961 C480.91953476 485.75096107 480.61924903 492.81214083 475.29272461 500.50170898 C474.73584961 501.40920898 474.17897461 502.31670898 473.60522461 503.25170898 C466.93706707 509.73964605 459.80295541 512.65354861 450.6425848 512.63872337 C449.85196035 512.6413752 449.0613359 512.64402703 448.24675313 512.64675921 C445.5752111 512.65446984 442.9037149 512.65501206 440.23216248 512.65560913 C438.30629276 512.6596226 436.38042389 512.66406062 434.45455605 512.66888869 C429.1447043 512.68087305 423.83486165 512.68650695 418.52499902 512.69106984 C412.80496457 512.69701891 407.08494104 512.70863051 401.36491394 512.71936035 C387.54174978 512.74390067 373.71858201 512.75851408 359.89540276 512.77142042 C355.99237321 512.77513122 352.08934402 512.77910454 348.18631482 512.78317308 C323.95940767 512.8084089 299.73250096 512.83048252 275.50558376 512.84290123 C269.89190608 512.84582257 264.27822842 512.84879008 258.66455078 512.85180664 C257.96712065 512.85217755 257.26969052 512.85254846 256.55112614 512.85293061 C233.94218812 512.8650843 211.33332798 512.89602502 188.72442653 512.93772816 C164.82262153 512.9817357 140.92086815 513.00743615 117.01902157 513.01282179 C103.98930116 513.01623776 90.95970359 513.02801495 77.93002129 513.06092453 C66.83388787 513.08890416 55.73790246 513.09993348 44.6417365 513.08872907 C38.97973848 513.08353711 33.31805053 513.08646453 27.65609741 513.11119461 C22.47125088 513.13365185 17.2869378 513.13297431 12.10208214 513.11399074 C10.22784017 513.11118581 8.3535623 513.11681656 6.47937816 513.13180368 C-11.36816284 513.26578017 -11.36816284 513.26578017 -19.70727539 507.50170898 C-20.61477539 506.94483398 -21.52227539 506.38795898 -22.45727539 505.81420898 C-31.36860553 496.6553419 -31.99783838 487.18011382 -32.11230469 475.12646484 C-32.13375028 473.43419825 -32.16769109 471.74203844 -32.21484375 470.05029297 C-32.53373281 458.48517424 -32.13677912 448.53891305 -23.86816406 439.48876953 C-19.90673818 435.79287506 -15.24819122 432.50170898 -9.70727539 432.50170898 C-9.70727539 334.16170898 -9.70727539 235.82170898 -9.70727539 134.50170898 C-11.35727539 134.17170898 -13.00727539 133.84170898 -14.70727539 133.50170898 C-22.55292722 129.68121766 -26.91111165 124.05708936 -30.76159668 116.40699768 C-32.02398669 112.52871706 -32.01845796 108.80665129 -32.02954102 104.77099609 C-32.03947083 103.90196655 -32.04940063 103.03293701 -32.05963135 102.13757324 C-32.08879086 99.26803383 -32.10246732 96.39871586 -32.11352539 93.52905273 C-32.1250391 91.52470397 -32.13655443 89.52035522 -32.14807129 87.51600647 C-32.16907017 83.31209288 -32.18076796 79.10825551 -32.18774414 74.90429688 C-32.19868264 69.5434182 -32.24667736 64.18356346 -32.30368805 58.82300472 C-32.34113154 54.68000961 -32.3513622 50.53725586 -32.35441589 46.39410591 C-32.36043171 44.41950472 -32.3763619 42.44490588 -32.40278625 40.47047234 C-32.55438764 28.2673166 -32.40531706 18.34292724 -24.08361816 8.60093689 C-17.23933216 2.11982844 -9.20311127 -0.10433997 0 0 Z M343.29272461 18.50170898 C342.54272461 21.00170898 342.54272461 21.00170898 343.29272461 23.50170898 C345.07967104 25.54869071 346.578188 26.40355166 349.27761841 26.77437782 C351.87187652 26.88689207 354.44997089 26.89529444 357.04663086 26.87402344 C358.53016556 26.87949944 358.53016556 26.87949944 360.04367065 26.88508606 C363.31436307 26.89319493 366.58456058 26.87957833 369.85522461 26.86499023 C372.12679036 26.86447167 374.39835657 26.86498923 376.66992188 26.86650085 C381.43130185 26.86641112 386.19251256 26.85597812 390.95385742 26.83789062 C397.06064459 26.81520356 403.16718437 26.81465924 409.27400208 26.82140827 C413.96482547 26.8247479 418.65559235 26.81811824 423.34640503 26.80827904 C425.59829411 26.80442666 427.85018948 26.80327898 430.1020813 26.80486488 C433.24778242 26.80523526 436.39316503 26.79262284 439.53881836 26.77636719 C440.93848343 26.78008331 440.93848343 26.78008331 442.36642456 26.78387451 C443.22438629 26.7767897 444.08234802 26.7697049 444.96630859 26.7624054 C445.70960922 26.76035253 446.45290985 26.75829966 447.21873474 26.75618458 C449.64290736 26.45874206 451.23585301 25.81131338 453.29272461 24.50170898 C454.29116236 22.09288211 454.29116236 22.09288211 454.29272461 19.50170898 C452.57045965 16.25320921 452.57045965 16.25320921 449.29272461 15.50170898 C447.90797733 15.40753497 446.51919064 15.36688009 445.1312561 15.36126709 C444.28452835 15.35555695 443.4378006 15.3498468 442.56541443 15.34396362 C441.63963089 15.34284576 440.71384735 15.34172791 439.76000977 15.34057617 C438.78249252 15.33561127 437.80497528 15.33064636 436.7978363 15.32553101 C433.55914612 15.31090752 430.3205049 15.30410737 427.08178711 15.29858398 C424.83360797 15.29283309 422.58542886 15.28707534 420.33724976 15.28131104 C415.62123384 15.27080079 410.90523497 15.26495814 406.18920898 15.26147461 C400.14412058 15.25598711 394.09925709 15.23195356 388.05423927 15.20350266 C383.40971211 15.18488696 378.76523927 15.17967126 374.12067795 15.17813873 C371.89192855 15.17510972 369.66318016 15.16707288 367.43446732 15.15395355 C364.31754641 15.13691423 361.20117699 15.1387682 358.08422852 15.14526367 C357.16249344 15.13604889 356.24075836 15.12683411 355.29109192 15.11734009 C350.52009995 15.14851254 347.0989612 15.2678665 343.29272461 18.50170898 Z M362.29272461 41.50170898 C362.29272461 45.46170898 362.29272461 49.42170898 362.29272461 53.50170898 C386.05272461 53.50170898 409.81272461 53.50170898 434.29272461 53.50170898 C434.29272461 49.54170898 434.29272461 45.58170898 434.29272461 41.50170898 C410.53272461 41.50170898 386.77272461 41.50170898 362.29272461 41.50170898 Z M6.29272461 136.50170898 C6.29272461 233.52170898 6.29272461 330.54170898 6.29272461 430.50170898 C13.55272461 430.50170898 20.81272461 430.50170898 28.29272461 430.50170898 C28.29272461 333.48170898 28.29272461 236.46170898 28.29272461 136.50170898 C21.03272461 136.50170898 13.77272461 136.50170898 6.29272461 136.50170898 Z M44.29272461 136.50170898 C44.29272461 233.52170898 44.29272461 330.54170898 44.29272461 430.50170898 C51.55272461 430.50170898 58.81272461 430.50170898 66.29272461 430.50170898 C66.29272461 333.48170898 66.29272461 236.46170898 66.29272461 136.50170898 C59.03272461 136.50170898 51.77272461 136.50170898 44.29272461 136.50170898 Z M82.29272461 136.50170898 C82.29272461 233.52170898 82.29272461 330.54170898 82.29272461 430.50170898 C89.22272461 430.50170898 96.15272461 430.50170898 103.29272461 430.50170898 C103.47467032 420.49504465 103.62091557 410.48950832 103.70722198 400.48155308 C103.74867993 395.83260901 103.80475466 391.18487115 103.89624023 386.53662109 C103.98423662 382.03663015 104.03121864 377.53778665 104.05174255 373.03700066 C104.06633589 371.33434962 104.09482447 369.63174951 104.13856506 367.92959785 C104.44137755 355.63808816 102.10660241 347.00000858 96.19148636 336.2242794 C94.270013 332.54157576 93.09773911 328.61149608 91.98022461 324.62670898 C91.62323486 323.38002441 91.62323486 323.38002441 91.2590332 322.1081543 C83.96080305 295.64644249 84.43845693 268.71417526 91.98022461 242.37670898 C92.18728027 241.63839844 92.39433594 240.90008789 92.60766602 240.1394043 C93.8170274 236.19859811 95.22523794 232.53937981 97.20942688 228.92472839 C103.15256946 217.89616275 104.39235164 208.94984541 104.07397461 196.56030273 C104.05900223 194.81342701 104.04763894 193.06651706 104.03967285 191.31959534 C104.00952991 186.78307757 103.93131117 182.24870051 103.84204102 177.7130127 C103.75931689 173.06019024 103.72347908 168.40701233 103.68334961 163.75366211 C103.59826425 154.66859909 103.4578933 145.58566917 103.29272461 136.50170898 C96.36272461 136.50170898 89.43272461 136.50170898 82.29272461 136.50170898 Z M119.29272461 136.50170898 C119.29272461 154.65170898 119.29272461 172.80170898 119.29272461 191.50170898 C123.63248958 187.78191044 127.50097735 184.3787181 131.34350586 180.28149414 C133.29272461 178.50170898 133.29272461 178.50170898 135.37304688 177.4934082 C138.1043095 176.11940654 139.49946121 175.0087052 141.29272461 172.50170898 C142.32229792 166.35771955 142.04541697 160.33078324 141.79272461 154.12670898 C141.75256874 152.41976071 141.71607161 150.71272219 141.68334961 149.00561523 C141.60226108 144.83361063 141.44584209 140.67416031 141.29272461 136.50170898 C134.03272461 136.50170898 126.77272461 136.50170898 119.29272461 136.50170898 Z M157.29272461 136.50170898 C157.29272461 144.75170898 157.29272461 153.00170898 157.29272461 161.50170898 C164.22272461 158.53170898 171.15272461 155.56170898 178.29272461 152.50170898 C178.29272461 147.22170898 178.29272461 141.94170898 178.29272461 136.50170898 C171.36272461 136.50170898 164.43272461 136.50170898 157.29272461 136.50170898 Z M194.29272461 136.50170898 C194.29272461 140.13170898 194.29272461 143.76170898 194.29272461 147.50170898 C197.20978664 147.19259644 200.12633551 146.87955474 203.04272461 146.56420898 C203.86772461 146.47719727 204.69272461 146.39018555 205.54272461 146.30053711 C206.34194336 146.21352539 207.14116211 146.12651367 207.96459961 146.03686523 C208.69775391 145.95831299 209.4309082 145.87976074 210.1862793 145.79882812 C212.27420455 145.50432128 214.25825229 145.05053403 216.29272461 144.50170898 C216.29272461 141.86170898 216.29272461 139.22170898 216.29272461 136.50170898 C209.03272461 136.50170898 201.77272461 136.50170898 194.29272461 136.50170898 Z M232.29272461 136.50170898 C232.29272461 139.14170898 232.29272461 141.78170898 232.29272461 144.50170898 C235.2087507 145.00571349 238.12544553 145.50505564 241.04272461 146.00170898 C242.28022461 146.21633789 242.28022461 146.21633789 243.54272461 146.43530273 C244.34194336 146.5706543 245.14116211 146.70600586 245.96459961 146.84545898 C246.69775391 146.97114258 247.4309082 147.09682617 248.1862793 147.22631836 C250.59970407 147.58813163 250.59970407 147.58813163 254.29272461 147.50170898 C254.29272461 143.87170898 254.29272461 140.24170898 254.29272461 136.50170898 C247.03272461 136.50170898 239.77272461 136.50170898 232.29272461 136.50170898 Z M270.29272461 136.50170898 C270.29272461 141.78170898 270.29272461 147.06170898 270.29272461 152.50170898 C273.22947355 153.81591162 276.16707845 155.1281369 279.10522461 156.43920898 C280.35529297 156.99898437 280.35529297 156.99898437 281.63061523 157.57006836 C282.43305664 157.9277832 283.23549805 158.28549805 284.06225586 158.65405273 C284.80064697 158.98397217 285.53903809 159.3138916 286.29980469 159.65380859 C288.43525975 160.59389826 288.43525975 160.59389826 291.29272461 161.50170898 C291.29272461 153.25170898 291.29272461 145.00170898 291.29272461 136.50170898 C284.36272461 136.50170898 277.43272461 136.50170898 270.29272461 136.50170898 Z M307.29272461 136.50170898 C307.03848018 141.47103188 306.82043297 146.41750551 306.68847656 151.38818359 C306.63347565 153.07353411 306.55863703 154.75836725 306.46289062 156.44189453 C305.66661461 166.55982291 305.66661461 166.55982291 309.5925293 175.47460938 C312.38713733 177.73573136 315.23019141 179.62623333 318.29272461 181.50170898 C320.11914062 183.109375 320.11914062 183.109375 321.51928711 184.56811523 C324.87468656 188.06577196 324.87468656 188.06577196 328.29272461 191.50170898 C328.62272461 191.50170898 328.95272461 191.50170898 329.29272461 191.50170898 C329.29272461 173.35170898 329.29272461 155.20170898 329.29272461 136.50170898 C322.03272461 136.50170898 314.77272461 136.50170898 307.29272461 136.50170898 Z M345.29272461 136.50170898 C345.1107789 146.50837332 344.96453365 156.51390965 344.87822723 166.52186489 C344.83676929 171.17080896 344.78069456 175.81854682 344.68920898 180.46679688 C344.6012126 184.96678782 344.55423058 189.46563131 344.53370667 193.96641731 C344.51911333 195.66906834 344.49062475 197.37166846 344.44688416 199.07382011 C344.14407167 211.3653298 346.47884681 220.00340939 352.39396286 230.77913857 C354.31543622 234.46184221 355.48771011 238.39192189 356.60522461 242.37670898 C356.84321777 243.20783203 357.08121094 244.03895508 357.32641602 244.89526367 C364.62464617 271.35697548 364.14699229 298.2892427 356.60522461 324.62670898 C356.39816895 325.36501953 356.19111328 326.10333008 355.9777832 326.86401367 C354.76842182 330.80481986 353.36021128 334.46403816 351.37602234 338.07868958 C345.43287976 349.10725522 344.19309758 358.05357255 344.51147461 370.44311523 C344.52644699 372.18999096 344.53781028 373.93690091 344.54577637 375.68382263 C344.57591931 380.2203404 344.65413805 384.75471746 344.7434082 389.29040527 C344.82613233 393.94322773 344.86197013 398.59640564 344.90209961 403.24975586 C344.98718497 412.33481887 345.12755592 421.4177488 345.29272461 430.50170898 C352.22272461 430.50170898 359.15272461 430.50170898 366.29272461 430.50170898 C366.34170898 427.7444043 366.39069336 424.98709961 366.44116211 422.14624023 C366.4952092 419.46869594 366.55250204 416.79123935 366.61010742 414.11376953 C366.64833327 412.25641443 366.68319724 410.39898691 366.71459961 408.54150391 C366.76038922 405.86781986 366.8183604 403.19463157 366.87866211 400.52124023 C366.89021332 399.69396927 366.90176453 398.8666983 366.91366577 398.01435852 C367.02108309 393.79527519 367.20990039 390.2893771 369.29272461 386.50170898 C372.34256457 384.97678901 374.93506151 385.2660835 378.29272461 385.50170898 C380.35578505 387.02667499 381.17531363 387.92595891 381.69145203 390.45695496 C381.70810661 391.56615044 381.70810661 391.56615044 381.72509766 392.69775391 C381.74489182 393.5383989 381.76468597 394.37904388 381.78507996 395.24516296 C381.79146988 396.14837784 381.7978598 397.05159271 381.80444336 397.98217773 C381.82239456 398.91016678 381.84034576 399.83815582 381.85884094 400.79426575 C381.91303752 403.75920055 381.94686961 406.72397354 381.98022461 409.68920898 C382.01338943 411.69899718 382.0478783 413.70876399 382.08374023 415.71850586 C382.17126342 420.64626473 382.23125174 425.57328041 382.29272461 430.50170898 C389.55272461 430.50170898 396.81272461 430.50170898 404.29272461 430.50170898 C404.29272461 333.48170898 404.29272461 236.46170898 404.29272461 136.50170898 C397.03272461 136.50170898 389.77272461 136.50170898 382.29272461 136.50170898 C382.29129959 139.37650467 382.28987457 142.25130035 382.28840637 145.21321106 C382.27303762 171.55901829 382.23296978 197.90470907 382.16586899 224.25043516 C382.15710195 227.70146152 382.14855219 231.15248839 382.14013672 234.60351562 C382.13845766 235.29057009 382.13677859 235.97762456 382.13504865 236.68549886 C382.10835886 247.81883831 382.09928216 258.95212628 382.09668318 270.08549444 C382.09362668 281.5043665 382.07134198 292.9230509 382.03220004 304.34186381 C382.01082015 310.75780013 381.99829509 317.17348425 382.00657082 323.58945656 C382.01407928 329.62319115 381.99841871 335.65641337 381.96466446 341.69005394 C381.95639244 343.90926986 381.95672641 346.12853637 381.9661274 348.3477478 C381.97766253 351.36886285 381.95876386 354.38827423 381.93196106 357.40925598 C381.94263432 358.29543557 381.95330758 359.18161515 381.96430427 360.09464866 C381.92688266 362.34227267 381.85353096 364.32528829 381.29272461 366.50170898 C378.32222081 369.14132563 377.07418554 369.54767727 373.10522461 369.31420898 C370.29272461 368.50170898 370.29272461 368.50170898 368.29272461 366.50170898 C367.40229252 363.79481121 367.1650689 361.31729421 367.15405941 358.47999191 C367.14858497 357.68478032 367.14311052 356.88956872 367.13747019 356.07025981 C367.13649208 355.20255686 367.13551397 354.33485391 367.13450623 353.44085693 C367.12956825 352.5145564 367.12463027 351.58825587 367.11954266 350.63388562 C367.10415727 347.5230968 367.09580418 344.41232862 367.08740234 341.30151367 C367.07782464 339.07434914 367.06781463 336.84718643 367.05740356 334.62002563 C367.03033677 328.56674818 367.00933678 322.51346292 366.98940158 316.46015835 C366.967553 310.13669342 366.94015879 303.81325261 366.91334534 297.48980713 C366.8690811 286.87399299 366.82824842 276.25817119 366.79003906 265.64233398 C366.75067425 254.70807936 366.70924566 243.77383577 366.66503906 232.83959961 C366.66231479 232.1655895 366.65959052 231.4915794 366.65678369 230.79714474 C366.64310405 227.41582704 366.62938381 224.0345095 366.61564338 220.65319204 C366.50170913 192.60272051 366.39516341 164.55222464 366.29272461 136.50170898 C359.36272461 136.50170898 352.43272461 136.50170898 345.29272461 136.50170898 Z M420.29272461 136.50170898 C420.29272461 233.52170898 420.29272461 330.54170898 420.29272461 430.50170898 C427.55272461 430.50170898 434.81272461 430.50170898 442.29272461 430.50170898 C442.29272461 333.48170898 442.29272461 236.46170898 442.29272461 136.50170898 C435.03272461 136.50170898 427.77272461 136.50170898 420.29272461 136.50170898 Z M131.10522461 202.81420898 C109.65055491 227.04940387 99.62414007 258.9402375 101.12866211 291.02416992 C103.39661835 325.27300903 119.51228127 353.92452609 144.10522461 377.18920898 C168.86034122 398.81571686 201.78976681 408.65405306 234.29272461 406.50170898 C268.32900316 403.5574414 297.84910425 386.73260715 320.14038086 361.21655273 C341.03890518 334.8563451 350.38832809 302.01195503 346.82397461 268.65014648 C342.60421072 235.50354637 325.15464401 206.43262242 299.29272461 185.50170898 C244.98105486 146.30569672 176.5514279 155.05361571 131.10522461 202.81420898 Z M119.29272461 375.50170898 C119.29272461 393.65170898 119.29272461 411.80170898 119.29272461 430.50170898 C126.55272461 430.50170898 133.81272461 430.50170898 141.29272461 430.50170898 C141.54696904 425.53238609 141.76501624 420.58591246 141.89697266 415.61523438 C141.95197357 413.92988386 142.02681219 412.24505072 142.12255859 410.56152344 C142.91883461 400.44359506 142.91883461 400.44359506 138.99291992 391.52880859 C136.19831188 389.26768661 133.35525781 387.37718464 130.29272461 385.50170898 C128.46630859 383.89404297 128.46630859 383.89404297 127.06616211 382.43530273 C123.71076266 378.93764601 123.71076266 378.93764601 120.29272461 375.50170898 C119.96272461 375.50170898 119.63272461 375.50170898 119.29272461 375.50170898 Z M325.63256836 378.13452148 C323.93747595 379.86754882 322.24937266 381.60681841 320.56811523 383.35327148 C320.01188477 383.92045898 319.4556543 384.48764648 318.88256836 385.07202148 C318.31199707 385.66192871 317.74142578 386.25183594 317.15356445 386.85961914 C315.29272461 388.50170898 315.29272461 388.50170898 313.09204102 389.62426758 C310.43173963 391.02433305 309.03022685 392.02048781 307.29272461 394.50170898 C306.28004561 400.64964296 306.53997706 406.67127982 306.79272461 412.87670898 C306.83288048 414.58365726 306.86937761 416.29069578 306.90209961 417.99780273 C306.98318813 422.16980734 307.13960713 426.32925766 307.29272461 430.50170898 C314.55272461 430.50170898 321.81272461 430.50170898 329.29272461 430.50170898 C329.29272461 412.35170898 329.29272461 394.20170898 329.29272461 375.50170898 C327.78739231 375.38446824 327.78739231 375.38446824 325.63256836 378.13452148 Z M157.29272461 405.50170898 C157.29272461 413.75170898 157.29272461 422.00170898 157.29272461 430.50170898 C164.22272461 430.50170898 171.15272461 430.50170898 178.29272461 430.50170898 C178.29272461 425.22170898 178.29272461 419.94170898 178.29272461 414.50170898 C171.36272461 411.53170898 164.43272461 408.56170898 157.29272461 405.50170898 Z M285.82006836 407.47045898 C284.92094727 407.87651367 284.02182617 408.28256836 283.09545898 408.70092773 C282.14993164 409.13018555 281.2044043 409.55944336 280.23022461 410.00170898 C279.28083008 410.4309668 278.33143555 410.86022461 277.35327148 411.30249023 C274.99900352 412.36723454 272.64576823 413.43426165 270.29272461 414.50170898 C270.29272461 419.78170898 270.29272461 425.06170898 270.29272461 430.50170898 C277.22272461 430.50170898 284.15272461 430.50170898 291.29272461 430.50170898 C291.29272461 422.25170898 291.29272461 414.00170898 291.29272461 405.50170898 C289.36180391 405.50170898 287.54374782 406.68992489 285.82006836 407.47045898 Z M194.29272461 419.50170898 C194.29272461 423.13170898 194.29272461 426.76170898 194.29272461 430.50170898 C201.55272461 430.50170898 208.81272461 430.50170898 216.29272461 430.50170898 C216.29272461 427.86170898 216.29272461 425.22170898 216.29272461 422.50170898 C208.96894688 421.2055765 201.70235858 420.15550022 194.29272461 419.50170898 Z M242.73022461 420.43920898 C242.05797852 420.5262207 241.38573242 420.61323242 240.69311523 420.70288086 C237.76224751 421.09579758 235.10596324 421.56396277 232.29272461 422.50170898 C232.29272461 425.14170898 232.29272461 427.78170898 232.29272461 430.50170898 C239.55272461 430.50170898 246.81272461 430.50170898 254.29272461 430.50170898 C254.29272461 426.87170898 254.29272461 423.24170898 254.29272461 419.50170898 C250.36202985 419.50170898 246.61239606 419.91135346 242.73022461 420.43920898 Z M-12.51977539 451.75170898 C-17.31231486 457.77661575 -17.01987129 464.62582507 -16.95727539 472.00170898 C-16.96500977 472.91307617 -16.97274414 473.82444336 -16.98071289 474.76342773 C-16.96148575 481.42563318 -16.80065041 487.08627627 -12.26977539 492.31420898 C-6.35356781 497.36463009 -1.59914825 497.65218861 5.94746208 497.63034344 C6.71427903 497.63209647 7.48109599 497.63384951 8.27114981 497.63565567 C10.84963827 497.64032054 13.42807045 497.63784891 16.00656128 497.63542175 C17.87029794 497.63728948 19.73403421 497.63959002 21.59776986 497.64228708 C26.72647463 497.6484162 31.85516314 497.64827017 36.98387074 497.6470927 C42.51225999 497.64688898 48.04064396 497.65240473 53.56903076 497.65715027 C64.40259798 497.66546334 75.23615977 497.6682054 86.06972991 497.66876265 C94.87342348 497.66923747 103.67711525 497.67129053 112.48080826 497.67446327 C133.36758597 497.68183769 154.25436272 497.68798791 175.14114189 497.68746471 C175.80918812 497.68744914 176.47723435 497.68743356 177.1655244 497.68741751 C180.55151481 497.6873344 183.93750521 497.68723536 187.32349561 497.6871328 C187.99597426 497.68711285 188.66845291 497.68709291 189.3613097 497.68707236 C190.72122528 497.68703192 192.08114086 497.68699012 193.44105644 497.68694697 C214.60206858 497.68633413 235.76306471 497.69384219 256.92407227 497.70751953 C280.69423614 497.72287693 304.46439104 497.7314733 328.23456109 497.73055631 C340.82200925 497.73022397 353.40943936 497.73298737 365.99688339 497.74373436 C376.71277248 497.75282466 387.42863532 497.75502672 398.14452659 497.74822494 C403.61366656 497.74495237 409.0827561 497.74492958 414.55189133 497.75357819 C419.55686625 497.76141153 424.5617505 497.76004428 429.56672312 497.75129405 C431.37893427 497.74975207 433.19115207 497.75160136 435.00335537 497.75715413 C437.46444872 497.76419669 439.92522245 497.75893438 442.38630486 497.75059795 C443.44432357 497.75805022 443.44432357 497.75805022 444.52371639 497.76565304 C450.51530696 497.72267769 455.50340977 497.05244851 460.10522461 493.06420898 C465.76258428 486.43701623 465.47443827 480.45904217 465.48022461 472.12670898 C465.4924707 471.20631836 465.5047168 470.28592773 465.51733398 469.33764648 C465.53149766 462.72792988 465.36565595 457.10767981 461.10522461 451.75170898 C455.48513194 447.25563485 450.44405477 446.05391516 443.36065674 446.12418556 C442.58815535 446.11982524 441.81565396 446.11546492 441.01974344 446.11097246 C438.43379968 446.1000329 435.84839096 446.11043204 433.26245117 446.12075806 C431.38873649 446.11730098 429.51502385 446.11253609 427.64131546 446.10657632 C422.49427537 446.09404355 417.34740198 446.10024712 412.20036125 446.10953498 C406.64882142 446.11631577 401.09731048 446.10584905 395.54577637 446.09759521 C384.67102162 446.08424535 373.79632893 446.08714122 362.92157173 446.09583314 C354.08455012 446.10260433 345.24754592 446.10352884 336.41052246 446.10026169 C335.15347795 446.09980199 333.89643343 446.09934229 332.60129666 446.09886866 C330.04774951 446.0979095 327.49420237 446.09693686 324.94065523 446.09595089 C301.67098096 446.08763734 278.40134306 446.09626333 255.1316765 446.11197868 C233.88976814 446.12621547 212.64791374 446.12494159 191.40600586 446.1105957 C167.53986752 446.0945314 143.67375895 446.08821733 119.80761337 446.09743249 C117.26338451 446.09838816 114.71915563 446.09933127 112.17492676 446.10026169 C110.9230706 446.10072451 109.67121443 446.10118734 108.38142323 446.10166419 C99.55355051 446.10425602 90.72569691 446.09987892 81.89782715 446.09282303 C71.14171257 446.08441504 60.38566369 446.08667344 49.62955666 446.10266526 C44.14013172 446.11055737 38.65081637 446.1136235 33.16139221 446.1037178 C28.137947 446.09478997 23.11471313 446.0996723 18.09128714 446.11565046 C16.27240887 446.11900636 14.4535128 446.11728608 12.63464594 446.1100231 C10.16444009 446.10091457 7.69496034 446.1102429 5.22479248 446.12418556 C4.51680968 446.11716206 3.80882688 446.11013857 3.07939005 446.10290223 C-3.1859311 446.17369419 -7.61832791 447.830551 -12.51977539 451.75170898 Z " fill="#000000" transform="translate(31.707275390625,-0.501708984375)"/>
<path d="M0 0 C2.32884726 1.7301119 4.49963025 3.54429092 6.65234375 5.48828125 C7.18601562 5.96652344 7.7196875 6.44476563 8.26953125 6.9375 C22.47002666 21.5601723 28.25268033 47.891732 28.7265625 67.5703125 C28.70207031 68.20324219 28.67757812 68.83617187 28.65234375 69.48828125 C31.29234375 69.81828125 33.93234375 70.14828125 36.65234375 70.48828125 C41.24374303 62.43072714 42.89568478 53.9125373 44.91992188 44.9296875 C47.39493347 34.42929508 50.17942854 24.60114534 59.65234375 18.48828125 C69.43037378 13.1814017 79.21315121 13.64695707 89.671875 16.5234375 C104.02417857 21.16959606 114.26929131 31.09968914 121.15625 44.390625 C125.93219547 54.52760327 127.40343994 64.22722586 123.74609375 75.046875 C117.98845005 87.89875825 105.41858581 95.67293307 92.79736328 100.70214844 C79.89420337 105.43105521 65.44673417 108.77243536 51.65234375 108.48828125 C51.32234375 111.12828125 50.99234375 113.76828125 50.65234375 116.48828125 C58.70989786 121.07968053 67.2280877 122.73162228 76.2109375 124.75585938 C86.71953329 127.23280455 96.52810391 130.01801633 102.65234375 139.48828125 C108.27255569 150.53490471 107.32322481 161.01492022 103.65234375 172.48828125 C98.34166186 186.56679482 87.18742085 196.07469124 73.83984375 202.36328125 C65.42978336 206.11488869 56.21559681 207.11780515 47.46484375 203.86328125 C32.74096606 197.21303539 25.6804406 184.98131058 19.85742188 170.51318359 C15.32975394 158.45474007 12.15215425 144.41423103 12.65234375 131.48828125 C10.01234375 131.15828125 7.37234375 130.82828125 4.65234375 130.48828125 C0.06094447 138.54583536 -1.59099728 147.0640252 -3.61523438 156.046875 C-6.10586545 166.61353409 -8.89679793 176.28358731 -18.34765625 182.48828125 C-26.55041915 187.24588373 -36.87262973 187.43946091 -45.94921875 185.20703125 C-59.56933281 181.12543355 -70.65636537 173.20082312 -77.58984375 160.53125 C-83.14306876 149.8596544 -86.34493571 140.47718255 -83.28515625 128.42578125 C-81.42780787 122.871176 -78.28334995 118.76297378 -74.34765625 114.48828125 C-73.8578125 113.95589844 -73.36796875 113.42351562 -72.86328125 112.875 C-57.97261866 98.63676335 -32.79775907 92.83212278 -12.796875 92.4140625 C-11.58451172 92.45080078 -11.58451172 92.45080078 -10.34765625 92.48828125 C-9.68765625 89.51828125 -9.02765625 86.54828125 -8.34765625 83.48828125 C-17.05742538 80.39439125 -25.95458544 78.33883026 -34.95507812 76.26953125 C-45.4139306 73.75532957 -55.25571795 70.92876841 -61.34765625 61.48828125 C-66.6545358 51.71025122 -66.18898043 41.92747379 -63.3125 31.46875 C-58.66634144 17.11644643 -48.73624836 6.87133369 -35.4453125 -0.015625 C-23.94060742 -5.43596256 -11.19736422 -7.21028278 0 0 Z M-42.66015625 26.23828125 C-47.4926053 33.23048407 -50.39170966 40.79112244 -49.01171875 49.328125 C-47.92707472 52.85640822 -46.34157406 54.38616875 -43.34765625 56.48828125 C-36.95303138 59.18341693 -30.47338167 60.69822214 -23.72265625 62.23828125 C-16.43835999 63.93920254 -9.95321495 65.78346851 -3.47265625 69.55078125 C0.86540248 72.0193739 0.86540248 72.0193739 5.71484375 72.26171875 C8.18983567 71.52609615 10.37688717 70.69941136 12.65234375 69.48828125 C10.97015776 50.16527644 8.08768815 28.13298244 -7.34765625 14.48828125 C-19.80328824 6.18452659 -34.48654514 16.2414837 -42.66015625 26.23828125 Z M65.07324219 35.18408203 C63.26798898 38.11156996 62.63036874 40.81718491 61.85546875 44.16796875 C61.5329473 45.50400172 61.21001638 46.83993589 60.88671875 48.17578125 C60.39591269 50.2515223 59.91038447 52.32822037 59.43359375 54.40722656 C57.32339159 63.52945466 54.60882025 71.27450366 49.93041992 79.41894531 C48.43817401 83.00261591 48.6312509 84.68932837 49.71484375 88.36328125 C50.66864538 90.69888293 50.66864538 90.69888293 51.65234375 92.48828125 C70.75183652 90.82555336 93.34155557 88.02914912 106.65234375 72.48828125 C109.50909623 67.81359538 110.13610577 64.17510575 109.28125 58.875 C106.79098077 49.42435094 100.99669191 40.99712225 92.8203125 35.62890625 C84.21466021 30.98914507 72.85489689 26.82734524 65.07324219 35.18408203 Z M7.33984375 91.11328125 C4.03135601 95.7696714 4.03151752 99.88360002 4.65234375 105.48828125 C7.14568878 110.47497132 10.64585324 113.98503599 15.65234375 116.48828125 C20.60716469 117.03188571 24.52360227 117.05265199 29.02734375 114.80078125 C32.62010178 111.63573251 36.34646788 108.27626463 36.890625 103.31640625 C37.05893593 97.46981588 36.6765971 94.05635262 32.65234375 89.48828125 C27.65896257 85.08935021 24.74219148 84.13151788 18.19140625 84.20703125 C13.21631662 84.7581181 10.52714972 87.49525826 7.33984375 91.11328125 Z M-62.3515625 125.31640625 C-65.61839828 128.93747723 -68.24962093 132.41855018 -68.41015625 137.4453125 C-67.88376136 146.83817125 -63.04567957 154.71297964 -56.7109375 161.44140625 C-49.95082763 167.29644356 -41.39486181 171.13115028 -32.34765625 170.48828125 C-28.2044096 169.71688984 -25.85431891 168.19601632 -23.359375 164.7109375 C-20.37032855 159.20112855 -19.38838452 152.99090072 -18.03515625 146.92578125 C-16.18003969 138.91369436 -14.42010061 131.48227187 -10.22265625 124.36328125 C-7.78608124 120.16184518 -7.78608124 120.16184518 -7.578125 115.44140625 C-8.30914548 112.95662303 -9.13292045 110.77051214 -10.34765625 108.48828125 C-27.51610452 107.8436162 -49.60103388 113.68434505 -62.3515625 125.31640625 Z M32.52734375 129.98828125 C31.44066406 130.4059375 31.44066406 130.4059375 30.33203125 130.83203125 C29.77773438 131.04859375 29.2234375 131.26515625 28.65234375 131.48828125 C30.31507164 150.58777402 33.11147588 173.17749307 48.65234375 186.48828125 C53.32702962 189.34503373 56.96551925 189.97204327 62.265625 189.1171875 C71.71627406 186.62691827 80.14350275 180.83262941 85.51171875 172.65625 C89.11133718 165.97981487 91.95723036 159.0656192 90.16796875 151.41796875 C88.74358271 147.63543249 87.03368389 145.57340517 83.65234375 143.48828125 C80.51036997 142.46136183 80.51036997 142.46136183 76.97265625 141.69140625 C75.63662328 141.3688848 74.30068911 141.04595388 72.96484375 140.72265625 C70.8891027 140.23185019 68.81240463 139.74632197 66.73339844 139.26953125 C57.56931861 137.14964772 49.63519496 134.35345689 41.34326172 129.87011719 C37.64392505 127.97043967 36.25333829 128.54596078 32.52734375 129.98828125 Z " fill="#000000" transform="translate(235.34765625,182.51171875)"/>
<path d="M0 0 C8.56282311 5.21516044 15.78981805 13.39531484 18.55859375 23.19921875 C20.57248313 35.97761418 19.82742691 47.66587504 12.23828125 58.51953125 C5.14534304 67.1950723 -4.11183084 72.35771956 -15.1875 73.75 C-26.69846892 74.57443426 -36.76266263 71.25984928 -46.1015625 64.47265625 C-53.6567851 57.66629933 -58.26145559 47.06266758 -59 37 C-59.2360411 26.17161455 -56.26026085 16.52138305 -49.3125 8.125 C-36.7850003 -4.92349213 -16.13888281 -8.90147874 0 0 Z M-35.27734375 17.37890625 C-40.84182 22.61531814 -42.66393265 28.5046796 -43 36 C-42.12464273 42.92236552 -39.33065712 48.47555965 -34 53 C-28.36248226 56.82837643 -22.31387378 58.70652421 -15.51953125 57.59375 C-7.99728293 55.68189264 -2.61239244 52.12617253 1.4375 45.4375 C4.17230083 39.26939943 4.02187331 32.10102797 2.41015625 25.6328125 C-0.02667875 19.86077014 -4.64202381 16.04850369 -10 13 C-19.3579992 9.43574638 -27.65094772 11.05642684 -35.27734375 17.37890625 Z " fill="#000000" transform="translate(95,33)"/>
</svg>
