<?xml version="1.0" encoding="UTF-8"?>
<svg version="1.1" xmlns="http://www.w3.org/2000/svg" width="512" height="512">
<path d="M0 0 C0.89700912 -0.00453111 1.79401823 -0.00906223 2.71820945 -0.01373065 C5.7243573 -0.02639226 8.7303244 -0.02475313 11.73649597 -0.02310181 C13.89171583 -0.02908596 16.04693355 -0.03589125 18.20214844 -0.04345703 C24.05758611 -0.06113597 29.91296535 -0.06581322 35.76842713 -0.0670886 C40.6565709 -0.06898745 45.54470105 -0.07634485 50.43283957 -0.08343279 C61.96603153 -0.09972165 73.49919227 -0.1046013 85.03239441 -0.10317993 C96.92881907 -0.10197845 108.82506233 -0.12308066 120.72144109 -0.15466726 C130.93560382 -0.18082076 141.14970727 -0.19154761 151.36390322 -0.19026911 C157.46413115 -0.1897592 163.5641979 -0.1954589 169.66439247 -0.21662521 C175.40262885 -0.23599174 181.14055003 -0.23614267 186.87879753 -0.22159195 C188.98305853 -0.21950078 191.08733916 -0.22422301 193.19156647 -0.23631287 C196.06810363 -0.25176757 198.9435543 -0.24245543 201.82006836 -0.22705078 C203.0640113 -0.24248147 203.0640113 -0.24248147 204.3330844 -0.25822389 C211.21704442 -0.17696554 216.36725556 1.88125134 221.56144714 6.41586304 C222.50890808 7.51801147 222.50890808 7.51801147 223.47550964 8.64242554 C224.44617371 9.7368396 224.44617371 9.7368396 225.43644714 10.85336304 C230.09741632 17.61505071 229.83225049 25.3628176 229.10050964 33.26742554 C226.88421987 40.97052999 221.18237549 45.43442363 215.10050964 50.26742554 C215.55340866 52.17511971 215.55340866 52.17511971 216.01545715 54.12135315 C219.91939521 70.5657379 223.8226993 87.01027311 227.72550964 103.45492554 C227.96330178 104.45687053 227.96330178 104.45687053 228.20589781 105.47905684 C244.00932878 172.06780027 244.00932878 172.06780027 250.42330933 199.21272278 C252.40742542 207.60901504 254.3933226 216.00483527 256.3944273 224.39709759 C257.4988656 229.02920574 258.60103806 233.66185088 259.70207214 238.29476929 C259.91944345 239.20920366 260.13681477 240.12363804 260.36077309 241.06578255 C263.54929812 254.49953498 266.62142926 267.95688933 269.63739014 281.43037415 C271.41653071 289.37403709 273.22527996 297.3108788 275.04093838 305.24626637 C276.52677866 311.75213698 277.97372602 318.26505462 279.391716 324.78602886 C280.27457169 328.80100905 281.19444928 332.8068305 282.1247139 336.81106377 C282.54811017 338.66807864 282.95610829 340.52868336 283.34730148 342.39274788 C285.19791857 352.51821341 285.19791857 352.51821341 290.75495911 360.8006897 C293.61974958 362.66670938 293.61974958 362.66670938 296.52770996 363.92736816 C301.63304483 366.58651092 304.3298954 371.95558281 306.10050964 377.26742554 C306.92502851 386.32535419 306.57036678 393.76709113 301.10050964 401.26742554 C296.32323017 406.72882999 290.45642925 409.87462438 283.18112183 410.53068542 C279.73378237 410.61342863 276.2985622 410.6046817 272.85050964 410.56039429 C271.59665466 410.55614944 270.34279968 410.5519046 269.0509491 410.54753113 C265.74315177 410.53364723 262.43580582 410.50676907 259.12815857 410.47341919 C255.74269591 410.44254128 252.35716676 410.42898824 248.97160339 410.41390991 C242.34773108 410.38092817 235.72415723 410.33079391 229.10050964 410.26742554 C229.10939209 411.30201904 229.11827454 412.33661255 229.12742615 413.40255737 C229.20865259 423.17152339 229.26854245 432.94042054 229.30775833 442.70964813 C229.32859772 447.73165506 229.35684863 452.75338849 229.40226746 457.77523804 C229.44585544 462.62522556 229.46967418 467.47495067 229.48001862 472.32511902 C229.48738677 474.17183053 229.50177505 476.01852832 229.52342987 477.86512756 C229.55263646 480.45982452 229.55645852 483.05344898 229.55461121 485.64828491 C229.56899231 486.40498474 229.58337341 487.16168457 229.59819031 487.9413147 C229.54705632 494.61626714 227.34386333 499.73913784 222.91691589 504.72836304 C221.8012323 505.67582397 221.8012323 505.67582397 220.66300964 506.64242554 C219.92179871 507.28953491 219.18058777 507.93664429 218.41691589 508.60336304 C213.13543843 512.3974767 208.48555086 512.55813429 202.20101929 512.53485107 C201.30401017 512.53938219 200.40700105 512.5439133 199.48280984 512.54858172 C196.47666199 512.56124333 193.47069489 512.5596042 190.46452332 512.55795288 C188.30930345 512.56393704 186.15408574 512.57074232 183.99887085 512.57830811 C178.14343317 512.59598704 172.28805394 512.6006643 166.43259215 512.60193968 C161.54444839 512.60383852 156.65631824 512.61119592 151.76817971 512.61828387 C140.23498775 512.63457273 128.70182702 512.63945238 117.16862488 512.63803101 C105.27220021 512.63682952 93.37595695 512.65793173 81.4795782 512.68951833 C71.26541547 512.71567183 61.05131202 512.72639868 50.83711606 512.72512019 C44.73688814 512.72461027 38.63682139 512.73030997 32.53662682 512.75147629 C26.79839044 512.77084282 21.06046926 512.77099375 15.32222176 512.75644302 C13.21796076 512.75435186 11.11368012 512.75907409 9.00945282 512.77116394 C6.13291565 512.78661864 3.25746499 512.7773065 0.38095093 512.76190186 C-0.44834437 512.77218898 -1.27763966 512.78247611 -2.13206512 512.79307497 C-9.43036512 512.70692574 -15.54540481 510.22207723 -20.71199036 504.95492554 C-21.25468567 504.42254272 -21.79738098 503.89015991 -22.35652161 503.34164429 C-26.54785352 497.70722087 -27.3366043 492.56677694 -27.24006653 485.7618103 C-27.24072365 484.53132713 -27.24072365 484.53132713 -27.24139404 483.27598572 C-27.2393177 480.58668532 -27.2160418 477.89802217 -27.19245911 475.20883179 C-27.18685903 473.33553915 -27.18259088 471.4622421 -27.17959595 469.58894348 C-27.16817956 464.67502566 -27.1387401 459.76137677 -27.10548401 454.8475647 C-27.07471385 449.82674802 -27.06107579 444.80588759 -27.04597473 439.78500366 C-27.01386722 429.94569325 -26.96270982 420.10658182 -26.89949036 410.26742554 C-27.59360519 410.27630798 -28.28772003 410.28519043 -29.00286865 410.29434204 C-35.5781019 410.37484207 -42.15319551 410.4355683 -48.72881222 410.47467422 C-52.10859315 410.4954558 -55.48796333 410.52359708 -58.86750793 410.56918335 C-62.76239185 410.61793213 -66.6566998 410.64044838 -70.55183411 410.65805054 C-71.75218796 410.67869568 -72.95254181 410.69934082 -74.18927002 410.72061157 C-83.00924796 410.72294802 -88.82073374 408.93430486 -96.14949036 404.14242554 C-101.81090984 398.22366881 -104.20283035 392.47869075 -104.52449036 384.26742554 C-104.19594869 376.50878773 -102.39705069 370.60940044 -96.70417786 365.16976929 C-93.89547098 362.91260716 -91.22141144 360.79183652 -87.85500908 359.45637226 C-85.75260851 358.42767523 -85.75260851 358.42767523 -85.00023079 356.31331921 C-84.81126165 355.50678559 -84.62229252 354.70025198 -84.42759705 353.86927795 C-84.20151984 352.94096759 -83.97544264 352.01265722 -83.74251461 351.05621624 C-83.39506868 349.5185395 -83.39506868 349.5185395 -83.04060364 347.94979858 C-82.65311494 346.32700973 -82.65311494 346.32700973 -82.25779819 344.67143726 C-81.39592625 341.04422375 -80.55800104 337.41189538 -79.71980286 333.77914429 C-79.11472261 331.21186412 -78.50815019 328.64493524 -77.900177 326.07833862 C-76.60093081 320.58349713 -75.31370569 315.08595445 -74.03471375 309.58636475 C-72.18696925 301.6414738 -70.32063262 293.70104322 -68.44927108 285.76168597 C-65.53157771 273.38204294 -62.62626197 260.99953963 -59.7290802 248.61508179 C-56.43009542 234.51453516 -53.10584921 220.42008631 -49.76277161 206.32992554 C-49.29547481 204.3598738 -48.82817947 202.38982172 -48.36088562 200.41976929 C-47.68047299 197.55144553 -47.00001914 194.68313159 -46.3194294 191.81484985 C-43.91887644 181.69644988 -41.52763953 171.57585372 -39.13777161 161.45492554 C-38.92672916 160.5612326 -38.71568672 159.66753967 -38.49824905 158.74676514 C-37.19497441 153.22765052 -35.89201242 147.70846213 -34.58919525 142.1892395 C-33.87200811 139.15100182 -33.15476658 136.11277698 -32.43751526 133.07455444 C-25.92152206 105.47296077 -19.40880714 77.87059446 -12.89949036 50.26742554 C-13.38205292 49.93376984 -13.86461548 49.60011414 -14.36180115 49.25634766 C-14.99379425 48.81350433 -15.62578735 48.37066101 -16.27693176 47.91439819 C-16.90386932 47.47761749 -17.53080688 47.04083679 -18.17674255 46.59082031 C-20.40146459 44.88181479 -21.79771083 43.01669538 -23.27449036 40.64242554 C-23.75659973 39.88703491 -24.23870911 39.13164429 -24.73542786 38.35336304 C-28.28053811 32.0007158 -27.84249522 23.57466398 -26.32136536 16.62680054 C-23.71241385 9.84352663 -18.22396316 4.51416941 -11.81093311 1.18233299 C-7.83009247 -0.06862781 -4.1493199 -0.01537259 0 0 Z M-7.39964294 20.08042145 C-9.6022587 23.29216793 -9.44231037 25.46768542 -8.89949036 29.26742554 C-7.03240531 31.63239993 -5.57887605 32.92773269 -2.89949036 34.26742554 C-0.19004435 34.36973616 2.49395526 34.41080224 5.20385742 34.40786743 C6.47519729 34.41232412 6.47519729 34.41232412 7.77222079 34.41687083 C10.62881194 34.42558278 13.48536131 34.42706818 16.34196472 34.42855835 C18.38338308 34.43318476 20.42480057 34.43820918 22.46621704 34.44360352 C28.02410799 34.45674664 33.58198684 34.46317621 39.13989091 34.46761417 C42.60973859 34.47054184 46.07958293 34.47464607 49.54942894 34.47911835 C60.39847734 34.49279837 71.24751817 34.50246253 82.0965746 34.50632024 C94.6337145 34.51080226 107.17074543 34.52835479 119.70785218 34.55732083 C129.38942147 34.57891533 139.07096005 34.58902333 148.75255316 34.59036136 C154.5391573 34.591411 160.32565908 34.5973525 166.11223793 34.61518097 C171.55489913 34.63162303 176.99738062 34.63383595 182.44005775 34.62504196 C184.43914775 34.62426951 186.43824725 34.62864158 188.43731308 34.63850021 C191.16382811 34.65115907 193.88970084 34.64537598 196.61621094 34.63491821 C197.40959974 34.64297462 198.20298854 34.65103102 199.02041942 34.65933156 C203.54909605 34.61863257 206.50922677 34.0984758 210.10050964 31.26742554 C211.6463784 28.17568802 211.39410486 25.67313001 211.10050964 22.26742554 C209.68195636 19.9038227 209.68195636 19.9038227 207.10050964 18.26742554 C204.14194256 17.87468375 201.55607823 17.72692595 198.59806824 17.75949097 C197.7317597 17.753251 196.86545116 17.74701104 195.97289085 17.74058199 C193.06463428 17.72460345 190.15721021 17.73727522 187.24894714 17.74984741 C185.16619883 17.74442846 183.08345435 17.73730708 181.00071716 17.72860718 C175.3396137 17.71034404 169.67880124 17.71745379 164.01769257 17.73012352 C158.09916385 17.74023566 152.18066041 17.73086281 146.26213074 17.72457886 C136.32214372 17.71729725 126.38227551 17.72690367 116.44230652 17.74594116 C104.94286008 17.7677108 93.4436973 17.7606598 81.94425774 17.73863554 C72.07920335 17.72049621 62.21423445 17.71791605 52.34916878 17.72839022 C46.45363336 17.7346332 40.55823136 17.73543863 34.66270447 17.72224426 C29.12062522 17.7107078 23.57891244 17.71867137 18.03687286 17.74182129 C16.0002834 17.74712015 13.96366321 17.7455746 11.92708588 17.73677063 C9.15195485 17.72587807 6.37800624 17.73950243 3.60295105 17.75949097 C2.79244986 17.75056808 1.98194866 17.74164519 1.14688683 17.73245192 C-2.39474646 17.78210765 -4.49454253 17.97377596 -7.39964294 20.08042145 Z M6.10050964 52.26742554 C4.05594819 58.18490992 2.3202742 64.05045189 0.90934753 70.14706421 C0.60947811 71.41940572 0.60947811 71.41940572 0.30355072 72.7174511 C-0.36048719 75.5391964 -1.0186145 78.3622866 -1.67683411 81.18539429 C-2.1556908 83.22482966 -2.63495518 85.26416934 -3.11459351 87.30342102 C-4.14854744 91.70260897 -5.18001544 96.10236946 -6.20954895 100.50259399 C-8.71991365 111.23090739 -11.24335835 121.95614879 -13.76506424 132.68180084 C-14.65461899 136.46601669 -15.5436689 140.25035089 -16.43266296 144.03469849 C-22.74745362 170.90884972 -29.1242865 197.76821501 -35.50499344 224.62677765 C-38.14293327 235.73196132 -40.77888983 246.83761607 -43.41511536 257.94320679 C-43.69482492 259.12147285 -43.97453449 260.29973892 -44.26272011 261.51371002 C-49.38476135 283.09063675 -54.49912194 304.66936694 -59.59910583 326.25151825 C-60.14510297 328.56136465 -60.69153901 330.87110678 -61.2381134 333.18081665 C-62.21511102 337.30963324 -63.19027936 341.43887929 -64.16511536 345.56820679 C-64.44796387 346.76286057 -64.73081238 347.95751434 -65.02223206 349.18836975 C-65.27337769 350.25384537 -65.52452332 351.31932098 -65.78327942 352.41708374 C-66.00082886 353.33802322 -66.2183783 354.25896271 -66.44252014 355.20780945 C-66.93559106 357.07851855 -66.93559106 357.07851855 -66.89949036 358.26742554 C-56.33949036 358.26742554 -45.77949036 358.26742554 -34.89949036 358.26742554 C-33.38543061 353.72524631 -32.31997132 349.72109544 -31.46482849 345.05950928 C-31.33432875 344.35482856 -31.20382902 343.65014784 -31.06937474 342.92411315 C-30.63444821 340.56972364 -30.20570547 338.21425132 -29.77693176 335.85873413 C-29.4642802 334.1591808 -29.15124426 332.45969813 -28.83785534 330.76028061 C-27.98345788 326.12108972 -27.13441189 321.48093326 -26.28623605 316.84060144 C-25.38282114 311.90350267 -24.47434746 306.96733489 -23.56640625 302.03106689 C-22.01755074 293.60664565 -20.47168435 285.18168069 -18.92796326 276.75631714 C-16.53148231 263.67691997 -14.12953625 250.59853003 -11.72639465 237.52035522 C-11.12753675 234.26112443 -10.52868812 231.00189193 -9.92984396 227.74265862 C-9.53184897 225.57655641 -9.13384648 223.41045559 -8.73583645 221.24435616 C-7.54486188 214.76241165 -6.3543995 208.28037332 -5.16435593 201.79825783 C-0.50654535 176.42742514 4.1641297 151.05906986 8.87004089 125.69711304 C9.11583693 124.37216103 9.36163062 123.0472086 9.60742188 121.72225571 C11.79016326 109.95761408 13.97584185 98.19352137 16.16511631 86.43009377 C16.92312972 82.35533312 17.67983286 78.28032994 18.43620872 74.20526505 C18.93776379 71.50607503 19.44129887 68.80725971 19.94494629 66.10845947 C20.23674064 64.53679455 20.52843019 62.96511017 20.81999207 61.3934021 C21.01815804 60.3364467 21.01815804 60.3364467 21.22032738 59.25813866 C21.87753548 55.78575287 21.87753548 55.78575287 22.10050964 52.26742554 C16.82050964 52.26742554 11.54050964 52.26742554 6.10050964 52.26742554 Z M40.10050964 52.26742554 C30.49423294 103.23492282 21.06413804 154.23463924 11.65476847 205.23880243 C10.04428796 213.96813547 8.43270977 222.69726556 6.82084823 231.42634368 C5.03693904 241.0872584 3.25372041 250.74830046 1.47081757 260.40940094 C0.72961968 264.42572942 -0.01178421 268.44201978 -0.75337982 272.45827484 C-2.96566715 284.44038611 -5.17309275 296.42338031 -7.37406349 308.40757561 C-7.92651888 311.41453928 -8.47966506 314.42137545 -9.03283691 317.4282074 C-9.98154804 322.58700101 -10.92720443 327.7463469 -11.8707881 332.90608072 C-12.23039973 334.87028516 -12.59090995 336.8343253 -12.95235872 338.7981925 C-13.45040272 341.50536093 -13.94511806 344.21311704 -14.4389801 346.92105103 C-14.58779932 347.72593853 -14.73661853 348.53082604 -14.88994741 349.36010408 C-15.43655724 352.37313962 -15.89949036 355.19808432 -15.89949036 358.26742554 C-2.36949036 358.26742554 11.16050964 358.26742554 25.10050964 358.26742554 C29.17886536 319.71826596 33.25575471 281.16895169 37.33034229 242.61939363 C37.81101117 238.07181251 38.29169369 233.52423284 38.77238464 228.97665405 C38.86808432 228.07128471 38.96378399 227.16591536 39.06238365 226.23311058 C40.61347684 211.55926307 42.16567653 196.8855328 43.7182827 182.2118453 C45.31049793 167.16357798 46.90152972 152.11518587 48.49145508 137.06667644 C49.47314442 127.77542889 50.45576488 118.48428078 51.43956375 109.19325636 C52.11342542 102.82844461 52.78614111 96.46351241 53.45794296 90.09848293 C53.84599707 86.42216762 54.23456845 82.74590886 54.62449646 79.06979179 C55.04657421 75.09045181 55.46624479 71.11086172 55.88566589 67.13124084 C56.07243141 65.37591263 56.07243141 65.37591263 56.26296997 63.58512324 C56.37443863 62.52368124 56.48590729 61.46223923 56.60075378 60.36863232 C56.69796219 59.4493294 56.79517059 58.53002648 56.89532471 57.58286589 C57.14464466 55.15679623 57.14464466 55.15679623 57.10050964 52.26742554 C51.49050964 52.26742554 45.88050964 52.26742554 40.10050964 52.26742554 Z M75.10050964 52.26742554 C72.87432791 69.53167719 70.91935557 86.81385258 69.0978241 104.12509155 C68.81210768 106.82664542 68.52571198 109.5281272 68.23936462 112.22961426 C67.54997721 118.73763288 66.86306164 125.24590996 66.17715589 131.75429637 C65.61970147 137.04359545 65.06142856 142.33280755 64.50259972 147.62196159 C64.42252071 148.37991312 64.3424417 149.13786464 64.25993606 149.91878439 C64.09718795 151.45920248 63.93443955 152.99962055 63.77169087 154.54003858 C62.25426814 168.90365279 60.73986108 183.26758374 59.22638389 197.63161414 C57.84274328 210.76245115 56.45514961 223.89286699 55.06574629 237.02309538 C53.63454189 250.54871529 52.20604314 264.07461847 50.78045434 277.60083145 C49.98180541 285.17806621 49.18208161 292.75518379 48.37949562 300.33200264 C47.69788474 306.76701746 47.01881945 313.20229464 46.34304611 319.63792522 C45.99854411 322.91806442 45.65247952 326.19802529 45.30402184 329.47774696 C44.92639848 333.03384569 44.55326781 336.59038806 44.18127441 340.14707947 C44.07048327 341.18032949 43.95969213 342.2135795 43.84554368 343.27814013 C43.69679112 344.71374565 43.69679112 344.71374565 43.54503345 346.17835331 C43.41533011 347.40792872 43.41533011 347.40792872 43.28300649 348.66234404 C43.05922242 351.85678682 43.10050964 355.06515385 43.10050964 358.26742554 C59.27050964 358.26742554 75.44050964 358.26742554 92.10050964 358.26742554 C92.10050964 257.28742554 92.10050964 156.30742554 92.10050964 52.26742554 C86.49050964 52.26742554 80.88050964 52.26742554 75.10050964 52.26742554 Z M110.10050964 52.26742554 C110.10050964 153.24742554 110.10050964 254.22742554 110.10050964 358.26742554 C126.27050964 358.26742554 142.44050964 358.26742554 159.10050964 358.26742554 C158.49914505 348.64559203 157.8704692 339.12674169 156.84806824 329.55729675 C156.66408509 327.79636367 156.66408509 327.79636367 156.47638512 325.99985617 C156.14095823 322.79594802 155.80256596 319.59237052 155.46281338 316.38891876 C155.09497942 312.91352896 154.73109631 309.43772503 154.36668396 305.9619751 C153.65475975 299.17762989 152.93924488 292.39366814 152.22243452 285.60983763 C151.38701547 277.7023692 150.55505729 269.79453776 149.72318244 261.88669582 C148.23916232 247.780803 146.75179411 233.67526522 145.26261902 219.56991577 C143.81841523 205.89052189 142.37696845 192.21084097 140.93840027 178.53085327 C139.36908314 163.60755252 137.79830095 148.6844074 136.22491646 133.76153487 C136.05724668 132.17124574 135.88957738 130.58095657 135.72190857 128.99066734 C135.63942096 128.20831928 135.55693335 127.42597122 135.47194612 126.61991564 C134.89102131 121.10931699 134.31110623 115.59861261 133.73155212 110.08786964 C133.02603623 103.37982565 132.31880797 96.67196475 131.60940409 89.96433077 C131.24760511 86.54304688 130.88655065 83.12168882 130.52751923 79.7001133 C130.1381603 75.9934212 129.74593234 72.2870438 129.35295105 68.58073425 C129.23981756 67.49729211 129.12668407 66.41384997 129.0101223 65.29757625 C128.90424608 64.30472045 128.79836987 63.31186465 128.68928528 62.28892231 C128.59907419 61.43373172 128.50886311 60.57854113 128.41591835 59.69743568 C128.09217008 57.20317484 127.59377779 54.73376627 127.10050964 52.26742554 C121.49050964 52.26742554 115.88050964 52.26742554 110.10050964 52.26742554 Z M145.10050964 52.26742554 C148.16376565 84.46815678 151.52421302 116.63588236 154.93387438 148.80146054 C155.70576862 156.08389852 156.47570381 163.3665433 157.24556729 170.6491962 C158.61747163 183.62648706 159.99082873 196.60362371 161.36515808 209.58065796 C162.69667735 222.15349111 164.0274759 234.72640022 165.35734558 247.29940796 C165.43993056 248.08019012 165.52251555 248.86097229 165.6076031 249.66541452 C166.022086 253.58409618 166.43655515 257.5027793 166.85101748 261.42146313 C170.26538608 293.70367606 173.6822301 325.98562649 177.10050964 358.26742554 C190.63050964 358.26742554 204.16050964 358.26742554 218.10050964 358.26742554 C216.62908002 347.71732386 216.62908002 347.71732386 214.87585449 337.2368927 C214.653968 336.02704995 214.43208151 334.8172072 214.20347118 333.57070255 C213.96622483 332.29298198 213.72897848 331.0152614 213.48454285 329.69882202 C213.22531914 328.29131896 212.96634396 326.88377011 212.70759296 325.47618008 C212.00599498 321.66341914 211.3009626 317.85130058 210.59531641 314.03928709 C209.83767888 309.94287432 209.0833482 305.84585253 208.32862854 301.74890137 C207.03362615 294.72147037 205.73665017 287.69440609 204.43824768 280.66760254 C202.40553664 269.66676388 200.37640012 258.66526758 198.3478241 247.66366577 C197.66357115 243.95298261 196.97928648 240.2423053 196.29498291 236.53163147 C196.12521743 235.61106101 195.95545196 234.69049054 195.78054208 233.742024 C194.57354274 227.19728718 193.36595172 220.6526597 192.15811157 214.108078 C187.91129693 191.09619432 183.6732174 168.08272545 179.44551206 145.06732345 C178.76377132 141.35615499 178.08184328 137.64502095 177.39993286 133.93388367 C173.31066458 111.6782201 173.31066458 111.6782201 171.29450989 100.69342041 C170.13535857 94.3779423 168.9749249 88.06270066 167.81363297 81.74761581 C167.39280512 79.45788869 166.97243181 77.16807797 166.55254745 74.87817764 C165.98595715 71.78839228 165.41782171 68.69889499 164.84928894 65.60946655 C164.68487966 64.71071021 164.52047037 63.81195387 164.35107899 62.88596249 C164.1996025 62.06463109 164.04812601 61.24329969 163.89205933 60.39707947 C163.76233577 59.69068109 163.63261221 58.9842827 163.49895763 58.25647831 C163.09629002 56.24636115 162.59772023 54.25626788 162.10050964 52.26742554 C156.49050964 52.26742554 150.88050964 52.26742554 145.10050964 52.26742554 Z M180.10050964 52.26742554 C185.94618565 85.44016205 191.97112923 118.57820249 198.09269714 151.70101929 C198.2705478 152.66334614 198.44839846 153.625673 198.63163853 154.61716127 C200.84722818 166.60386697 203.06571931 178.59003494 205.28526616 190.57600844 C207.52624995 202.67811021 209.76469928 214.78068073 212.00314379 226.88325238 C213.9972663 237.66480264 215.99203547 248.44623194 217.98912048 259.22723389 C221.12798338 276.17432506 224.26196023 293.12222587 227.36558414 310.07581079 C228.21567287 314.71777434 229.06756293 319.35940778 229.91931689 324.00106603 C230.70013763 328.25797166 231.4774529 332.51549784 232.25202942 336.77354383 C232.82499433 339.91796797 233.40285249 343.06149337 233.97990417 346.20516968 C234.18279179 347.32756861 234.3856794 348.44996754 234.59471512 349.60637856 C234.87313562 351.11593652 234.87313562 351.11593652 235.15718079 352.6559906 C235.31648638 353.52930055 235.47579197 354.40261049 235.639925 355.30238438 C235.91643932 357.25904973 235.91643932 357.25904973 237.10050964 358.26742554 C239.47592015 358.35581202 241.82284544 358.38280077 244.19816589 358.36508179 C245.49504333 358.36258423 246.79192078 358.36008667 248.12809753 358.35751343 C249.80640175 358.34834939 251.48470575 358.33914689 253.16300964 358.32992554 C256.00602417 358.31797556 258.84904326 358.30727329 261.69206238 358.29647827 C263.10449226 358.29095903 264.51692208 358.28542159 265.92935181 358.27986145 C266.97583389 358.2757576 268.02231598 358.27165375 269.10050964 358.26742554 C260.56064793 321.28611897 251.87782863 284.34153838 243.07825851 247.42111206 C241.50665166 240.82527213 239.93694667 234.22897972 238.36735535 227.63265991 C238.12997786 226.63506515 238.12997786 226.63506515 237.88780487 225.61731696 C237.08793463 222.25575044 236.28810798 218.89417355 235.48831367 215.53258896 C234.85071239 212.85273478 234.21303897 210.17289779 233.57530022 207.49307632 C227.52284281 182.06001462 221.4924944 156.62174993 215.47671127 131.17998886 C214.80096146 128.32219961 214.1250833 125.46444074 213.44917297 122.60668945 C212.39227381 118.13797014 211.33578019 113.66915508 210.27947044 109.2002964 C209.68632822 106.69148918 209.09275603 104.18278397 208.49914551 101.67408752 C206.76828316 94.35527846 205.04345511 87.03519062 203.33994198 79.70996094 C202.59114742 76.49009677 201.84006751 73.27076714 201.08904457 70.05142212 C200.56973701 67.81983513 200.05438024 65.58736007 199.53915405 63.35482788 C199.22882942 62.02356454 198.9183194 60.6923444 198.60758972 59.36117554 C198.33932877 58.20295288 198.07106781 57.04473022 197.79467773 55.85140991 C197.35468086 53.35511683 197.35468086 53.35511683 196.10050964 52.26742554 C193.40396111 52.19422932 190.73359506 52.17500017 188.03800964 52.20492554 C186.90008972 52.21169312 186.90008972 52.21169312 185.73918152 52.21859741 C183.85959093 52.23041874 181.98004066 52.24835476 180.10050964 52.26742554 Z M-85.89949036 381.26742554 C-86.73282369 384.26742554 -86.73282369 384.26742554 -85.89949036 387.26742554 C-83.4012542 390.34999161 -81.8849224 392.05800885 -77.95027256 392.89417136 C-76.29856761 392.895389 -76.29856761 392.895389 -74.61349487 392.89663124 C-72.70125327 392.91618935 -72.70125327 392.91618935 -70.75038052 392.93614256 C-69.33792203 392.92533255 -67.9254671 392.91404928 -66.51301575 392.90234375 C-65.01082699 392.90810456 -63.50864527 392.91604541 -62.00647831 392.92597997 C-57.87706384 392.94688258 -53.74822597 392.93652292 -49.61880922 392.92104888 C-45.16609541 392.90975315 -40.71348195 392.92718922 -36.26078796 392.94094849 C-27.53738796 392.96320447 -18.81420282 392.95836922 -10.09079432 392.94388528 C-3.00236034 392.93260231 4.08601335 392.93105805 11.17445374 392.93650436 C12.18256416 392.93727053 13.19067459 392.93803669 14.22933382 392.93882608 C16.27716551 392.94042467 18.32499718 392.94204574 20.37282884 392.94368903 C39.58420646 392.95795345 58.79546487 392.94154294 78.00682294 392.9146872 C94.49807249 392.8923478 110.98914608 392.89622774 127.48039246 392.91928101 C146.62209885 392.94602677 165.7637007 392.95658009 184.90542316 392.94121969 C186.94580394 392.93962691 188.98618474 392.93805506 191.02656555 392.93650436 C192.53250201 392.9353473 192.53250201 392.9353473 194.06886142 392.93416686 C201.15038968 392.92984618 208.23185174 392.93714431 215.31336975 392.94890213 C223.94112196 392.96291208 232.56864667 392.95915893 241.19637275 392.93249841 C245.60008376 392.91933989 250.0034152 392.91424229 254.40712357 392.93074417 C258.4364395 392.94561497 262.46502311 392.93750381 266.49427235 392.91085641 C267.95381797 392.90525914 269.41342513 392.90813986 270.87293136 392.92023535 C272.85341659 392.93539267 274.83407451 392.91688686 276.81451416 392.89663124 C277.9156508 392.89581948 279.01678743 392.89500772 280.15129185 392.89417136 C284.08594169 392.05800885 285.60227349 390.34999161 288.10050964 387.26742554 C288.93384298 384.26742554 288.93384298 384.26742554 288.10050964 381.26742554 C285.60227349 378.18485947 284.08594169 376.47684222 280.15129185 375.64067972 C278.49958689 375.63946207 278.49958689 375.63946207 276.81451416 375.63821983 C275.53968642 375.6251811 274.26485868 375.61214236 272.9513998 375.59870851 C271.53894131 375.60951853 270.12648639 375.6208018 268.71403503 375.63250732 C267.21184627 375.62674652 265.70966455 375.61880567 264.2074976 375.6088711 C260.07808312 375.58796849 255.94924525 375.59832816 251.81982851 375.61380219 C247.3671147 375.62509793 242.91450124 375.60766185 238.46180725 375.59390259 C229.73840725 375.5716466 221.0152221 375.57648186 212.29181361 375.59096579 C205.20337963 375.60224876 198.11500594 375.60379302 191.02656555 375.59834671 C190.01845512 375.59758055 189.0103447 375.59681438 187.97168547 375.596025 C185.92385378 375.5944264 183.8760221 375.59280534 181.82819045 375.59116204 C162.61681283 375.57689762 143.40555441 375.59330813 124.19419634 375.62016387 C107.70294679 375.64250327 91.21187321 375.63862334 74.72062683 375.61557007 C55.57892044 375.5888243 36.43731859 375.57827098 17.29559612 375.59363139 C15.25521534 375.59522417 13.21483455 375.59679602 11.17445374 375.59834671 C9.66851728 375.59950378 9.66851728 375.59950378 8.13215786 375.60068422 C1.0506296 375.60500489 -6.03083246 375.59770676 -13.11235046 375.58594894 C-21.74010267 375.571939 -30.36762738 375.57569214 -38.99535346 375.60235266 C-43.39906447 375.61551118 -47.80239591 375.62060878 -52.20610428 375.6041069 C-56.23542021 375.58923611 -60.26400383 375.59734727 -64.29325306 375.62399466 C-65.75279868 375.62959194 -67.21240584 375.62671121 -68.67191207 375.61461572 C-70.6523973 375.59945841 -72.63305523 375.61796421 -74.61349487 375.63821983 C-75.71463151 375.63903159 -76.81576815 375.63984336 -77.95027256 375.64067972 C-81.8849224 376.47684222 -83.4012542 378.18485947 -85.89949036 381.26742554 Z M-8.89949036 410.26742554 C-8.89949036 415.54742554 -8.89949036 420.82742554 -8.89949036 426.26742554 C63.70050964 426.26742554 136.30050964 426.26742554 211.10050964 426.26742554 C211.10050964 420.98742554 211.10050964 415.70742554 211.10050964 410.26742554 C138.50050964 410.26742554 65.90050964 410.26742554 -8.89949036 410.26742554 Z M-8.89949036 444.26742554 C-8.99835353 450.74524476 -9.07095713 457.22262504 -9.11921692 463.70101929 C-9.13933455 465.90487314 -9.16663207 468.1086736 -9.20124817 470.31234741 C-9.24975869 473.4797991 -9.27245772 476.64654522 -9.29011536 479.81430054 C-9.3107605 480.79984924 -9.33140564 481.78539795 -9.35267639 482.80081177 C-9.35297852 483.72146423 -9.35328064 484.6421167 -9.35359192 485.59066772 C-9.36247437 486.39897034 -9.37135681 487.20727295 -9.38050842 488.04006958 C-8.68289238 491.27038326 -7.53621977 492.27245171 -4.89949036 494.26742554 C-1.94092327 494.66016732 0.64494106 494.80792513 3.60295105 494.77536011 C4.46925959 494.78160007 5.33556812 494.78784003 6.22812843 494.79426908 C9.136385 494.81024762 12.04380908 494.79757586 14.95207214 494.78500366 C17.03482045 494.79042262 19.11756493 494.797544 21.20030212 494.8062439 C26.86140559 494.82450703 32.52221805 494.81739728 38.18332672 494.80472755 C44.10185543 494.79461542 50.02035888 494.80398826 55.93888855 494.81027222 C65.87887556 494.81755382 75.81874378 494.8079474 85.75871277 494.78890991 C97.25815921 494.76714027 108.75732199 494.77419127 120.25676155 494.79621553 C130.12181594 494.81435486 139.98678483 494.81693502 149.85185051 494.80646086 C155.74738593 494.80021788 161.64278792 494.79941245 167.53831482 494.81260681 C173.08039407 494.82414328 178.62210685 494.8161797 184.16414642 494.79302979 C186.20073589 494.78773093 188.23735608 494.78927648 190.27393341 494.79808044 C193.04906443 494.80897301 195.82301305 494.79534864 198.59806824 494.77536011 C199.40856943 494.78428299 200.21907063 494.79320588 201.05413246 494.80239916 C206.44001851 494.72688594 207.00631985 494.36161533 211.10050964 490.26742554 C211.10050964 475.08742554 211.10050964 459.90742554 211.10050964 444.26742554 C172.16050964 444.26742554 133.22050964 444.26742554 93.10050964 444.26742554 C92.77050964 450.86742554 92.44050964 457.46742554 92.10050964 464.26742554 C87.10050964 469.26742554 87.10050964 469.26742554 84.10050964 469.89242554 C79.92604 469.02274436 78.68362639 467.66176902 76.10050964 464.26742554 C75.35693737 460.83216566 75.31030868 457.46082927 75.28800964 453.95492554 C75.26287292 453.02357788 75.23773621 452.09223022 75.21183777 451.13265991 C75.15317212 448.84469959 75.1239278 446.55601805 75.10050964 444.26742554 C69.82050964 444.26742554 64.54050964 444.26742554 59.10050964 444.26742554 C59.06312683 445.58098022 59.02574402 446.89453491 58.98722839 448.24789429 C58.92155307 449.98359918 58.85510627 451.719275 58.78800964 453.45492554 C58.76545105 454.31924194 58.74289246 455.18355835 58.71965027 456.07406616 C58.51913835 460.83166723 58.3625233 464.51798455 55.10050964 468.26742554 C53.23332214 469.11508179 53.23332214 469.11508179 51.22550964 469.32992554 C50.56808777 469.4240271 49.91066589 469.51812866 49.23332214 469.61508179 C45.72353937 469.04297434 44.42785091 467.9753882 42.10050964 465.26742554 C41.3376916 461.69076624 41.30986603 458.16501407 41.28800964 454.51742554 C41.26287292 453.53387085 41.23773621 452.55031616 41.21183777 451.53695679 C41.15303321 449.11420911 41.12389283 446.69077395 41.10050964 444.26742554 C35.82050964 444.26742554 30.54050964 444.26742554 25.10050964 444.26742554 C25.06312683 445.58098022 25.02574402 446.89453491 24.98722839 448.24789429 C24.92155307 449.98359918 24.85510627 451.719275 24.78800964 453.45492554 C24.76545105 454.31924194 24.74289246 455.18355835 24.71965027 456.07406616 C24.36279638 464.54123564 24.36279638 464.54123564 21.10050964 468.26742554 C17.65729574 469.67440617 14.15966691 469.62047796 10.66300964 468.45492554 C9.10050964 467.26742554 9.10050964 467.26742554 8.10050964 465.26742554 C7.94875415 463.67480488 7.85150639 462.07677698 7.78410339 460.47836304 C7.74220886 459.53734741 7.70031433 458.59633179 7.65715027 457.62680054 C7.61783386 456.64195679 7.57851746 455.65711304 7.53800964 454.64242554 C7.49482605 453.64984741 7.45164246 452.65726929 7.40715027 451.63461304 C7.30090017 449.17905521 7.2001851 446.72325903 7.10050964 444.26742554 C1.82050964 444.26742554 -3.45949036 444.26742554 -8.89949036 444.26742554 Z " fill="#000000" transform="translate(154.8994903564453,-0.267425537109375)"/>
</svg>
