<?xml version="1.0" encoding="UTF-8"?>
<svg version="1.1" xmlns="http://www.w3.org/2000/svg" width="512" height="512">
<path d="M0 0 C4.54702238 3.86825339 7.70591134 8.07128458 10.625 13.25 C11.2025 14.24 11.78 15.23 12.375 16.25 C15.47447026 23.68872862 15.91187426 31.025063 15.85205078 39.00219727 C15.85234283 40.03738998 15.85263489 41.0725827 15.85293579 42.1391449 C15.85155198 45.53165317 15.83603558 48.92393675 15.8203125 52.31640625 C15.816579 54.68008809 15.81373362 57.04377149 15.81173706 59.40745544 C15.80412718 65.60686571 15.78450147 71.80618119 15.7623291 78.0055542 C15.73820199 85.45545748 15.7290771 92.90539257 15.71742249 100.35532379 C15.69807553 111.65361497 15.65973432 122.95169847 15.625 134.25 C33.445 134.25 51.265 134.25 69.625 134.25 C69.60179687 127.01449219 69.57859375 119.77898437 69.5546875 112.32421875 C69.54446208 107.72590785 69.53483366 103.12761106 69.52734375 98.52929688 C69.51541278 91.23914662 69.50133535 83.94904686 69.47412109 76.65893555 C69.45230614 70.77802288 69.44041315 64.8971644 69.43524551 59.01621437 C69.43156526 56.7784725 69.42437883 54.54073341 69.41353989 52.30301476 C69.39890994 49.15596605 69.39702685 46.00913807 69.39794922 42.86206055 C69.39075867 41.94783325 69.38356812 41.03360596 69.37615967 40.0916748 C69.41791534 26.8273655 71.96595483 15.447975 80.625 5.25 C81.12773437 4.64027344 81.63046875 4.03054687 82.1484375 3.40234375 C89.80469821 -5.09423826 100.50481871 -8.9493734 111.671875 -9.9296875 C123.0464267 -10.33917136 134.01532775 -6.31342491 143 0.625 C153.45569283 11.08069283 157.72660713 23.0390992 157.74942017 37.72091675 C157.74582489 38.66822662 157.74222961 39.6155365 157.73852539 40.59155273 C157.73867142 41.60694626 157.73881744 42.62233978 157.7389679 43.66850281 C157.7382742 47.00688859 157.73050727 50.34521778 157.72265625 53.68359375 C157.72079014 56.00529449 157.71936715 58.32699562 157.71836853 60.6486969 C157.71455854 66.7461761 157.70474124 72.84363132 157.69366455 78.94110107 C157.68161476 86.26415257 157.67704096 93.58721211 157.67121124 100.91027069 C157.66152867 112.02353045 157.64236146 123.13673763 157.625 134.25 C175.445 134.25 193.265 134.25 211.625 134.25 C211.60179687 126.85851562 211.57859375 119.46703125 211.5546875 111.8515625 C211.54446355 107.15754855 211.53483524 102.46354841 211.52734375 97.76953125 C211.51540712 90.32565444 211.50131432 82.88182703 211.47412109 75.43798828 C211.45232568 69.43388707 211.44041723 63.42983887 211.43524551 57.42570114 C211.43156178 55.13968446 211.42436845 52.85367055 211.41353989 50.56767654 C211.39893602 47.35576449 211.39702578 44.14406904 211.39794922 40.93212891 C211.39075867 39.99560486 211.38356812 39.05908081 211.37615967 38.09417725 C211.41737968 24.76833605 214.97362523 11.90137477 224.625 2.25 C231.98946683 -4.42458704 241.62042786 -9.17281315 251.625 -9.75 C252.82125 -9.8325 254.0175 -9.915 255.25 -10 C267.98552558 -9.75318749 278.28955245 -5.07304193 287.4375 3.5625 C298.06017863 14.72945015 299.7961962 27.68360905 299.73852539 42.52148438 C299.73867142 43.51751678 299.73881744 44.51354919 299.7389679 45.5397644 C299.73827534 48.80778233 299.73051386 52.07574212 299.72265625 55.34375 C299.72078974 57.619181 299.71936693 59.8946124 299.71836853 62.17004395 C299.71456174 68.14092124 299.70474723 74.11177397 299.69366455 80.0826416 C299.68160605 87.25637301 299.67703943 94.43011266 299.67121124 101.60385132 C299.66153444 112.48591793 299.642365 123.36793071 299.625 134.25 C317.445 134.25 335.265 134.25 353.625 134.25 C353.59019531 126.73734375 353.55539062 119.2246875 353.51953125 111.484375 C353.50419209 106.7083255 353.48974942 101.93230662 353.47851562 97.15625 C353.46062299 89.58522182 353.4395175 82.0143031 353.39868164 74.44335938 C353.36594567 68.33550064 353.34811698 62.22775938 353.34036827 56.11981964 C353.33485027 53.79637047 353.3240753 51.4729273 353.30780983 49.1495285 C353.10823162 19.4441201 353.10823162 19.4441201 362.625 7.25 C363.7696875 5.6721875 363.7696875 5.6721875 364.9375 4.0625 C373.61437118 -5.01794658 384.55431618 -9.3139857 396.97265625 -9.83984375 C408.10924125 -9.56589567 416.84865257 -6.57922957 425.625 0.25 C426.28113281 0.75144531 426.93726563 1.25289062 427.61328125 1.76953125 C434.02702487 7.38688985 437.95947629 16.25342886 440.625 24.25 C440.72040032 25.96321176 440.757705 27.67991341 440.76201439 29.39577389 C440.76708893 30.46723248 440.77216347 31.53869108 440.77739179 32.64261812 C440.77813843 34.41485029 440.77813843 34.41485029 440.77890015 36.22288513 C440.7832824 37.47471574 440.78766465 38.72654636 440.7921797 40.01631123 C440.80414851 43.49804964 440.80979439 46.97977419 440.81436086 50.46152914 C440.82031602 54.21430647 440.8319263 57.96706722 440.84265137 61.71983337 C440.8671808 70.78805049 440.88180509 79.8562731 440.89471143 88.92451319 C440.89842354 91.48646007 440.90239678 94.04840641 440.9064641 96.61035275 C440.93170525 112.52332568 440.95375615 128.43629946 440.96619225 144.34928799 C440.96912191 148.03583721 440.97208357 151.7223864 440.97509766 155.40893555 C440.97584371 156.32520067 440.97658976 157.24146579 440.97735842 158.18549652 C440.9900034 173.01793596 441.02321419 187.8502553 441.06489949 202.68263864 C441.10735832 217.91535952 441.130892 233.14801899 441.13611281 248.38079888 C441.13952289 256.93147816 441.15123009 265.4819699 441.18421555 274.03259087 C441.21227181 281.31739222 441.22319112 288.60196758 441.21202008 295.88681876 C441.20684722 299.60082058 441.20962964 303.3143496 441.23448563 307.02828217 C441.26126794 311.06393363 441.24887103 315.09855302 441.23300171 319.13426208 C441.2468838 320.2956737 441.26076588 321.45708532 441.27506864 322.65369123 C441.15563609 335.02323466 436.45663694 345.46018941 427.7109375 354.15234375 C417.76509222 363.23416772 407.07387247 366.77611909 393.5 366.25 C382.11944004 365.04065638 372.72690082 360.30857515 364.625 352.25 C362.3317518 349.38950014 360.42353217 346.44075142 358.625 343.25 C357.75875 341.765 357.75875 341.765 356.875 340.25 C353.77552974 332.81127138 353.33812574 325.474937 353.39794922 317.49780273 C353.39765717 316.46261002 353.39736511 315.4274173 353.39706421 314.3608551 C353.39844802 310.96834683 353.41396442 307.57606325 353.4296875 304.18359375 C353.433421 301.81991191 353.43626638 299.45622851 353.43826294 297.09254456 C353.44587282 290.89313429 353.46549853 284.69381881 353.4876709 278.4944458 C353.51179801 271.04454252 353.5209229 263.59460743 353.53257751 256.14467621 C353.55192447 244.84638503 353.59026568 233.54830153 353.625 222.25 C335.805 222.25 317.985 222.25 299.625 222.25 C299.64820313 229.48550781 299.67140625 236.72101563 299.6953125 244.17578125 C299.70553792 248.77409215 299.71516634 253.37238894 299.72265625 257.97070312 C299.73458722 265.26085338 299.74866465 272.55095314 299.77587891 279.84106445 C299.79769386 285.72197712 299.80958685 291.6028356 299.81475449 297.48378563 C299.81843474 299.7215275 299.82562117 301.95926659 299.83646011 304.19698524 C299.85109006 307.34403395 299.85297315 310.49086193 299.85205078 313.63793945 C299.85924133 314.55216675 299.86643188 315.46639404 299.87384033 316.4083252 C299.83208466 329.6726345 297.28404517 341.052025 288.625 351.25 C287.87089844 352.16458984 287.87089844 352.16458984 287.1015625 353.09765625 C279.44530179 361.59423826 268.74518129 365.4493734 257.578125 366.4296875 C246.2035733 366.83917136 235.23467225 362.81342491 226.25 355.875 C215.79430717 345.41930717 211.52339287 333.4609008 211.50057983 318.77908325 C211.50417511 317.83177338 211.50777039 316.8844635 211.51147461 315.90844727 C211.51132858 314.89305374 211.51118256 313.87766022 211.5110321 312.83149719 C211.5117258 309.49311141 211.51949273 306.15478222 211.52734375 302.81640625 C211.52920986 300.49470551 211.53063285 298.17300438 211.53163147 295.8513031 C211.53544146 289.7538239 211.54525876 283.65636868 211.55633545 277.55889893 C211.56838524 270.23584743 211.57295904 262.91278789 211.57878876 255.58972931 C211.58847133 244.47646955 211.60763854 233.36326237 211.625 222.25 C193.805 222.25 175.985 222.25 157.625 222.25 C157.64820313 229.64148438 157.67140625 237.03296875 157.6953125 244.6484375 C157.70553645 249.34245145 157.71516476 254.03645159 157.72265625 258.73046875 C157.73459288 266.17434556 157.74868568 273.61817297 157.77587891 281.06201172 C157.79767432 287.06611293 157.80958277 293.07016113 157.81475449 299.07429886 C157.81843822 301.36031554 157.82563155 303.64632945 157.83646011 305.93232346 C157.85106398 309.14423551 157.85297422 312.35593096 157.85205078 315.56787109 C157.85924133 316.50439514 157.86643188 317.44091919 157.87384033 318.40582275 C157.83262032 331.73166395 154.27637477 344.59862523 144.625 354.25 C137.26053317 360.92458704 127.62957214 365.67281315 117.625 366.25 C116.42875 366.3325 115.2325 366.415 114 366.5 C101.26447442 366.25318749 90.96044755 361.57304193 81.8125 352.9375 C71.18982137 341.77054985 69.4538038 328.81639095 69.51147461 313.97851562 C69.51132858 312.98248322 69.51118256 311.98645081 69.5110321 310.9602356 C69.51172466 307.69221767 69.51948614 304.42425788 69.52734375 301.15625 C69.52921026 298.880819 69.53063307 296.6053876 69.53163147 294.32995605 C69.53543826 288.35907876 69.54525277 282.38822603 69.55633545 276.4173584 C69.56658918 270.31730481 69.57113756 264.21724723 69.57617188 258.1171875 C69.58687675 246.16144758 69.603931 234.20572584 69.625 222.25 C68.39075287 222.25666183 67.15650574 222.26332367 65.88485718 222.27018738 C54.2046272 222.33122832 42.52442995 222.37608248 30.84407616 222.40543652 C24.84031863 222.42103544 18.83669075 222.44216748 12.83300781 222.47631836 C7.02988043 222.50911862 1.22687709 222.52689634 -4.57633591 222.53463173 C-6.78090744 222.54013834 -8.98547284 222.5508905 -11.189991 222.56719017 C-42.82779281 222.79162778 -42.82779281 222.79162778 -56.375 212.25 C-57.03113281 211.74855469 -57.68726563 211.24710938 -58.36328125 210.73046875 C-64.65880225 205.21665324 -69.7944795 195.50878327 -71.375 187.25 C-71.47507994 185.05555555 -71.51855077 182.8583221 -71.52890015 180.66162109 C-71.5332824 180.00105115 -71.53766465 179.3404812 -71.5421797 178.65989399 C-71.55552746 176.44773886 -71.56173757 174.23562355 -71.56787109 172.0234375 C-71.57577548 170.43642499 -71.58404464 168.84941425 -71.59265137 167.2624054 C-71.61884099 162.04995431 -71.6341798 156.83749534 -71.6484375 151.625 C-71.65379916 149.82736201 -71.65917668 148.02972407 -71.66456985 146.23208618 C-71.68619751 138.74991043 -71.70493103 131.26773681 -71.71619225 123.78553772 C-71.73241 113.08210441 -71.76553612 102.37903532 -71.82259309 91.67573929 C-71.86138586 84.14007701 -71.88083618 76.60451175 -71.88611281 69.06875229 C-71.8897546 64.57348075 -71.90164967 60.07859796 -71.93421555 55.58343506 C-71.96445964 51.34796287 -71.97055041 47.1131113 -71.95883179 42.87755394 C-71.95861238 41.33128728 -71.96680591 39.78499045 -71.98448563 38.23882484 C-72.12588393 25.15000049 -69.42790943 14.08919499 -60.375 4.25 C-43.52556325 -12.49627693 -19.21619694 -14.36912637 0 0 Z M-44.96484375 22.21484375 C-47.91654205 26.47477398 -48.6277139 29.36064255 -48.64915466 34.59954834 C-48.65912979 35.90609375 -48.66910492 37.21263916 -48.67938232 38.55877686 C-48.6802781 40.00500476 -48.68094168 41.45123283 -48.68139648 42.89746094 C-48.68901888 44.4220012 -48.69744651 45.94653761 -48.70661926 47.47106934 C-48.72856609 51.61174086 -48.73736365 55.75233852 -48.74244571 59.89306164 C-48.74608972 62.48151461 -48.75233009 65.06994826 -48.7594471 67.65839386 C-48.78394434 76.69316965 -48.79699363 85.72788802 -48.80053711 94.76269531 C-48.80417037 103.17654601 -48.83404986 111.59003148 -48.87594169 120.00377059 C-48.91066948 127.23280386 -48.926086 134.46171627 -48.92678314 141.69083238 C-48.92757526 146.00599321 -48.93628294 150.32078218 -48.96478081 154.63585663 C-48.99100365 158.69734432 -48.99314361 162.75815301 -48.97712517 166.81968689 C-48.97531387 168.306348 -48.98197266 169.79304852 -48.99794388 171.27962494 C-49.09293213 180.69894011 -48.46842144 186.79699903 -41.9676733 193.75667953 C-35.35781336 199.91909089 -27.49052453 199.53862179 -19.01123047 199.50537109 C-17.88682556 199.50899155 -16.76242065 199.512612 -15.60394287 199.51634216 C-13.17096644 199.52321779 -10.73797464 199.52574505 -8.30498886 199.52439499 C-4.45518327 199.52342821 -0.60565566 199.53638883 3.24411011 199.55337524 C14.18664511 199.5996128 25.12914815 199.62435108 36.07177734 199.63085938 C42.77134827 199.63501207 49.47058526 199.66007121 56.17007065 199.69618607 C58.72255576 199.70599726 61.27508102 199.70830888 63.8275795 199.70301437 C67.39204598 199.69596461 70.95563594 199.71318256 74.52001953 199.73583984 C76.10358749 199.72358116 76.10358749 199.72358116 77.71914673 199.71107483 C84.87317464 199.79213495 84.87317464 199.79213495 88.75656128 202.15713501 C91.48598407 205.2144006 91.75096058 206.86071301 91.76303101 210.86499023 C91.76848434 211.83774399 91.77393768 212.81049774 91.77955627 213.81272888 C91.7805986 214.88386429 91.78164093 215.95499969 91.78271484 217.05859375 C91.78779556 218.18399063 91.79287628 219.30938751 91.79811096 220.46888733 C91.80883423 222.92049372 91.81744669 225.37211001 91.82423019 227.82373047 C91.8359998 231.70806009 91.85545011 235.59227755 91.87734985 239.4765625 C91.93901443 250.52356184 91.99316537 261.57055144 92.02636719 272.61767578 C92.0467497 279.36982898 92.08269867 286.12177315 92.12712479 292.87380981 C92.1412593 295.44448468 92.15000144 298.01519522 92.15317917 300.58590698 C92.15810758 304.1929009 92.18131865 307.79936449 92.20849609 311.40625 C92.20548996 312.46119156 92.20248383 313.51613312 92.1993866 314.6030426 C92.28552401 322.33167582 92.95958915 329.93624598 97.9375 336.125 C98.824375 336.82625 99.71125 337.5275 100.625 338.25 C101.9553125 339.36375 101.9553125 339.36375 103.3125 340.5 C108.30465877 343.1373669 113.29791312 343.95592104 118.87109375 342.7734375 C126.27598335 340.22581953 130.18140627 336.13718746 133.625 329.25 C134.58219343 326.21135262 134.75169509 323.46304332 134.75630188 320.28492737 C134.76031006 319.28537018 134.76431824 318.28581299 134.76844788 317.25596619 C134.76791916 316.16546463 134.76739044 315.07496307 134.7668457 313.95141602 C134.77032013 312.79818848 134.77379456 311.64496094 134.77737427 310.45678711 C134.78472756 307.95172673 134.79007522 305.44665986 134.79366493 302.94159126 C134.80082685 298.97867249 134.81613706 295.01583891 134.83500671 291.05296326 C134.84134361 289.69506555 134.84766924 288.33716779 134.85398388 286.97926998 C134.85714969 286.2993628 134.8603155 285.61945562 134.86357725 284.91894519 C134.90562472 275.69589772 134.93863729 266.47289285 134.95092773 257.24975586 C134.95930914 251.02395373 134.98179959 244.79837377 135.0202834 238.5726828 C135.04003639 235.27991089 135.05023804 231.98754488 135.04744911 228.69470406 C135.04510343 225.02212064 135.06720773 221.35044015 135.0949707 217.67797852 C135.08836929 216.58950119 135.08176788 215.50102386 135.07496643 214.37956238 C135.16666634 207.00705266 135.16666634 207.00705266 137.53312683 203.09825134 C141.3692071 199.70892516 144.76797489 200.08969219 149.66723633 200.07299805 C150.49830399 200.06642685 151.32937164 200.05985565 152.18562317 200.05308533 C154.94276006 200.03333434 157.69984244 200.02168587 160.45703125 200.01171875 C161.39775671 200.00764322 162.33848217 200.0035677 163.30771446 199.99936867 C168.28660234 199.97850044 173.26546259 199.96420187 178.24438477 199.95483398 C183.38943304 199.94376674 188.53404915 199.90936537 193.67894459 199.86966228 C197.63291737 199.84352845 201.58678668 199.83514503 205.54083824 199.83155251 C207.43746548 199.82667833 209.33408785 199.81504076 211.23063087 199.79651451 C213.88562983 199.77219117 216.53950404 199.77307545 219.19458008 199.7800293 C220.36914764 199.76081421 220.36914764 199.76081421 221.56744385 199.74121094 C225.30148335 199.77684656 227.41632207 200.11594235 230.58940125 202.15437317 C233.54606735 205.19822884 233.75083303 206.82500417 233.76303101 210.95437622 C233.76848434 211.9468486 233.77393768 212.93932098 233.77955627 213.96186829 C233.7805986 215.05484726 233.78164093 216.14782623 233.78271484 217.27392578 C233.78779556 218.42204239 233.79287628 219.570159 233.79811096 220.75306702 C233.80883383 223.25378779 233.81744644 225.75451828 233.82423019 228.25525284 C233.83599494 232.21464337 233.85544297 236.17392362 233.87734985 240.13327026 C233.93925697 251.39349432 233.9932103 262.65371442 234.02636719 273.9140625 C234.04475292 280.13069423 234.07374206 286.34718386 234.1143719 292.56371105 C234.13538378 295.85151448 234.14920128 299.13910103 234.15317917 302.42697525 C234.15809396 306.10143011 234.18126948 309.77535919 234.20849609 313.44970703 C234.20548996 314.53054062 234.20248383 315.61137421 234.1993866 316.72496033 C234.29047687 325.01359643 235.51074074 332.13574074 241.625 338.25 C246.7511809 341.86848064 251.29992213 343.51442633 257.625 343.25 C263.68546392 342.13463775 267.63471357 340.06181599 271.625 335.25 C272.181875 334.651875 272.73875 334.05375 273.3125 333.4375 C277.27591002 326.83181663 276.90939596 319.12307536 276.88037109 311.6809082 C276.88399155 310.5466037 276.887612 309.41229919 276.89134216 308.24362183 C276.89821175 305.79211033 276.90074619 303.34058363 276.89939499 300.88906288 C276.89842727 297.00977393 276.91139954 293.13076012 276.92837524 289.25151062 C276.97458691 278.22620654 276.99935365 267.2009346 277.00585938 256.17553711 C277.01001183 249.4229436 277.03506767 242.67068147 277.07118607 235.91817284 C277.08099656 233.34614998 277.08330925 230.77408728 277.07801437 228.20205116 C277.07096537 224.61135263 277.08818051 221.02152442 277.11083984 217.4309082 C277.09858116 215.8356707 277.09858116 215.8356707 277.08607483 214.20820618 C277.16713453 207.00296535 277.16713453 207.00296535 279.53213501 203.11369324 C283.35957113 199.70536692 286.76358146 200.08360064 291.66723633 200.05712891 C292.49830399 200.04895142 293.32937164 200.04077393 294.18562317 200.03234863 C296.94275182 200.00748532 299.69982897 199.99097655 302.45703125 199.9765625 C303.39775671 199.97123882 304.33848217 199.96591515 305.30771446 199.96043015 C310.28659628 199.93369492 315.26545299 199.91432092 320.24438477 199.89990234 C325.38953208 199.8832504 330.53403937 199.83846918 335.67894459 199.7875309 C339.63291671 199.75389137 343.58673628 199.74232855 347.54083824 199.73667526 C349.43748556 199.72995403 351.33412255 199.71470934 353.23063087 199.69078445 C355.88581277 199.65919909 358.53925999 199.65908578 361.19458008 199.66650391 C361.97762512 199.65009857 362.76067017 199.63369324 363.56744385 199.61679077 C367.62393502 199.66316767 369.39997083 200.06694423 372.58940125 202.66146851 C375.29372883 206.10037665 375.74977909 207.65584558 375.74957275 211.94091797 C375.75213577 212.93050003 375.75469879 213.92008209 375.75733948 214.93965149 C375.75523972 216.02948837 375.75313995 217.11932526 375.75097656 218.2421875 C375.75377876 219.95954353 375.75377876 219.95954353 375.75663757 221.71159363 C375.76064979 224.20576756 375.76271716 226.69994518 375.76309967 229.19412231 C375.76694813 235.18455608 375.79303897 241.17489558 375.81631613 247.16527748 C375.85138539 256.36459348 375.87798582 265.5637952 375.87548828 274.76318359 C375.87389443 280.96744005 375.89006185 287.17137918 375.92619491 293.37553406 C375.94457958 296.65572459 375.95130505 299.93527064 375.94171906 303.21551514 C375.93206942 306.88505158 375.95333739 310.5532412 375.98144531 314.22265625 C375.97124863 315.29629929 375.96105194 316.36994232 375.95054626 317.47612 C376.06390162 325.76458638 378.14092779 332.57759957 383.9375 338.6875 C390.66684018 342.59990708 395.90524536 344.09009049 403.625 342.25 C409.65244879 340.12266513 413.47579332 335.86565078 416.6898008 330.45866561 C417.7961875 327.84570545 417.87895508 325.92942174 417.88506222 323.094944 C417.89212781 322.04689472 417.8991934 320.99884545 417.9064731 319.9190371 C417.90405802 318.76886094 417.90164293 317.61868477 417.89915466 316.43365479 C417.90439134 315.2108159 417.90962802 313.98797702 417.91502339 312.72808242 C417.92744636 309.33202647 417.93086649 305.93617744 417.93042648 302.54011297 C417.93207382 298.87808174 417.94513881 295.2160883 417.95661926 291.55407715 C417.9794753 283.54576835 417.98739057 275.53748605 417.99244571 267.52914906 C417.99570214 262.52856107 418.00222431 257.52798079 418.0094471 252.52739716 C418.0290141 238.68178174 418.04541763 224.83617349 418.04832363 210.99054337 C418.04860499 209.66134777 418.04860499 209.66134777 418.04889202 208.30529974 C418.04925828 206.50889826 418.04962197 204.71249677 418.04998314 202.91609529 C418.05016595 202.02436001 418.05034876 201.13262474 418.05053711 200.21386719 C418.05071766 199.32104325 418.05089821 198.4282193 418.05108423 197.50834009 C418.05462576 183.04184587 418.08164634 168.57550052 418.119035 154.10905793 C418.15711559 139.25600169 418.17648109 124.40301932 418.17678314 109.54991317 C418.17736778 101.21065311 418.18586392 92.87157062 418.21478081 84.53235626 C418.23929146 77.43117398 418.24657985 70.33023401 418.23153328 63.22902086 C418.22436285 59.606648 418.22522668 55.98475364 418.24794388 52.36243439 C418.27235173 48.43283723 418.25790149 44.5039229 418.23973083 40.57427979 C418.25953079 38.86239987 418.25953079 38.86239987 418.27973074 37.11593652 C418.19717386 29.30579838 416.53246134 24.46430574 411.21773332 18.73222375 C407.15576607 14.97609289 402.96790064 13.35257998 397.4609375 13.18359375 C391.5855324 13.51673528 387.03274039 15.32240562 382.625 19.25 C378.73550154 24.20114816 376.50291628 28.73146363 376.49369812 35.08808899 C376.48968994 36.08482635 376.48568176 37.08156372 376.48155212 38.10850525 C376.48208084 39.20103104 376.48260956 40.29355682 376.4831543 41.41918945 C376.47967987 42.57066467 376.47620544 43.72213989 376.47262573 44.9085083 C376.4652655 47.41303841 376.45992154 49.91757506 376.45633507 52.42211342 C376.44917912 56.38522685 376.43387282 60.34825483 376.41499329 64.31132507 C376.408656 65.66886229 376.40233037 67.02639956 376.39601612 68.38393688 C376.39285031 69.06377679 376.3896845 69.7436167 376.38642275 70.44405782 C376.34437085 79.66931369 376.31137609 88.89452771 376.29907227 98.11987305 C376.29068563 104.34421247 376.26817314 110.56832997 376.2297166 116.79255837 C376.20997602 120.08481783 376.19975993 123.37667237 376.20255089 126.66900063 C376.20489966 130.34388281 376.18276757 134.0178661 376.1550293 137.69262695 C376.16163071 138.77908005 376.16823212 139.86553314 376.17503357 140.98490906 C376.10011233 147.02538869 375.71404875 150.67560917 371.625 155.25 C368.46198128 156.83150936 365.05704277 156.41516341 361.58276367 156.42700195 C360.75169601 156.43357315 359.92062836 156.44014435 359.06437683 156.44691467 C356.30723994 156.46666566 353.55015756 156.47831413 350.79296875 156.48828125 C349.85224329 156.49235678 348.91151783 156.4964323 347.94228554 156.50063133 C342.96339766 156.52149956 337.98453741 156.53579813 333.00561523 156.54516602 C327.86056696 156.55623326 322.71595085 156.59063463 317.57105541 156.63033772 C313.61708263 156.65647155 309.66321332 156.66485497 305.70916176 156.66844749 C303.81253452 156.67332167 301.91591215 156.68495924 300.01936913 156.70348549 C297.36437017 156.72780883 294.71049596 156.72692455 292.05541992 156.7199707 C290.88085236 156.73918579 290.88085236 156.73918579 289.68255615 156.75878906 C285.94851665 156.72315344 283.83367793 156.38405765 280.66059875 154.34562683 C277.72998473 151.32859149 277.4992998 149.72566867 277.48696899 145.63500977 C277.48151566 144.66225601 277.47606232 143.68950226 277.47044373 142.68727112 C277.4694014 141.61613571 277.46835907 140.54500031 277.46728516 139.44140625 C277.46220444 138.31600937 277.45712372 137.19061249 277.45188904 136.03111267 C277.44116577 133.57950628 277.43255331 131.12788999 277.42576981 128.67626953 C277.4140002 124.79193991 277.39454989 120.90772245 277.37265015 117.0234375 C277.31098557 105.97643816 277.25683463 94.92944856 277.22363281 83.88232422 C277.2032503 77.13017102 277.16730133 70.37822685 277.12287521 63.62619019 C277.1087407 61.05551532 277.09999856 58.48480478 277.09682083 55.91409302 C277.09189242 52.3070991 277.06868135 48.70063551 277.04150391 45.09375 C277.04451004 44.03880844 277.04751617 42.98386688 277.0506134 41.8969574 C276.96447599 34.16832418 276.29041085 26.56375402 271.3125 20.375 C270.425625 19.67375 269.53875 18.9725 268.625 18.25 C267.738125 17.5075 266.85125 16.765 265.9375 16 C260.94534123 13.3626331 255.95208688 12.54407896 250.37890625 13.7265625 C242.97401665 16.27418047 239.06859373 20.36281254 235.625 27.25 C234.66780657 30.28864738 234.49830491 33.03695668 234.49369812 36.21507263 C234.48968994 37.21462982 234.48568176 38.21418701 234.48155212 39.24403381 C234.48208084 40.33453537 234.48260956 41.42503693 234.4831543 42.54858398 C234.47967987 43.70181152 234.47620544 44.85503906 234.47262573 46.04321289 C234.46527244 48.54827327 234.45992478 51.05334014 234.45633507 53.55840874 C234.44917315 57.52132751 234.43386294 61.48416109 234.41499329 65.44703674 C234.40865639 66.80493445 234.40233076 68.16283221 234.39601612 69.52073002 C234.39285031 70.2006372 234.3896845 70.88054438 234.38642275 71.58105481 C234.34437528 80.80410228 234.31136271 90.02710715 234.29907227 99.25024414 C234.29069086 105.47604627 234.26820041 111.70162623 234.2297166 117.9273172 C234.20996361 121.22008911 234.19976196 124.51245512 234.20255089 127.80529594 C234.20489657 131.47787936 234.18279227 135.14955985 234.1550293 138.82202148 C234.16163071 139.91049881 234.16823212 140.99897614 234.17503357 142.12043762 C234.08333366 149.49294734 234.08333366 149.49294734 231.71687317 153.40174866 C227.8807929 156.79107484 224.48202511 156.41030781 219.58276367 156.42700195 C218.75169601 156.43357315 217.92062836 156.44014435 217.06437683 156.44691467 C214.30723994 156.46666566 211.55015756 156.47831413 208.79296875 156.48828125 C207.85224329 156.49235678 206.91151783 156.4964323 205.94228554 156.50063133 C200.96339766 156.52149956 195.98453741 156.53579813 191.00561523 156.54516602 C185.86056696 156.55623326 180.71595085 156.59063463 175.57105541 156.63033772 C171.61708263 156.65647155 167.66321332 156.66485497 163.70916176 156.66844749 C161.81253452 156.67332167 159.91591215 156.68495924 158.01936913 156.70348549 C155.36437017 156.72780883 152.71049596 156.72692455 150.05541992 156.7199707 C148.88085236 156.73918579 148.88085236 156.73918579 147.68255615 156.75878906 C143.94851665 156.72315344 141.83367793 156.38405765 138.66059875 154.34562683 C135.70393265 151.30177116 135.49916697 149.67499583 135.48696899 145.54562378 C135.48151566 144.5531514 135.47606232 143.56067902 135.47044373 142.53813171 C135.4694014 141.44515274 135.46835907 140.35217377 135.46728516 139.22607422 C135.46220444 138.07795761 135.45712372 136.929841 135.45188904 135.74693298 C135.44116617 133.24621221 135.43255356 130.74548172 135.42576981 128.24474716 C135.41400506 124.28535663 135.39455703 120.32607638 135.37265015 116.36672974 C135.31074303 105.10650568 135.2567897 93.84628558 135.22363281 82.5859375 C135.20524708 76.36930577 135.17625794 70.15281614 135.1356281 63.93628895 C135.11461622 60.64848552 135.10079872 57.36089897 135.09682083 54.07302475 C135.09190604 50.39856989 135.06873052 46.72464081 135.04150391 43.05029297 C135.04451004 41.96945938 135.04751617 40.88862579 135.0506134 39.77503967 C134.95952313 31.48640357 133.73925926 24.36425926 127.625 18.25 C122.4988191 14.63151936 117.95007787 12.98557367 111.625 13.25 C105.56453608 14.36536225 101.61528643 16.43818401 97.625 21.25 C97.068125 21.848125 96.51125 22.44625 95.9375 23.0625 C91.97408998 29.66818337 92.34060404 37.37692464 92.36962891 44.8190918 C92.36600845 45.9533963 92.362388 47.08770081 92.35865784 48.25637817 C92.35178825 50.70788967 92.34925381 53.15941637 92.35060501 55.61093712 C92.35157273 59.49022607 92.33860046 63.36923988 92.32162476 67.24848938 C92.27541309 78.27379346 92.25064635 89.2990654 92.24414062 100.32446289 C92.23998817 107.0770564 92.21493233 113.82931853 92.17881393 120.58182716 C92.16900344 123.15385002 92.16669075 125.72591272 92.17198563 128.29794884 C92.17903463 131.88864737 92.16181949 135.47847558 92.13916016 139.0690918 C92.15141884 140.6643293 92.15141884 140.6643293 92.16392517 142.29179382 C92.08286547 149.49703465 92.08286547 149.49703465 89.71786499 153.38630676 C85.89042887 156.79463308 82.48641854 156.41639936 77.58276367 156.44287109 C76.75169601 156.45104858 75.92062836 156.45922607 75.06437683 156.46765137 C72.30724818 156.49251468 69.55017103 156.50902345 66.79296875 156.5234375 C65.85224329 156.52876118 64.91151783 156.53408485 63.94228554 156.53956985 C58.96340372 156.56630508 53.98454701 156.58567908 49.00561523 156.60009766 C43.86046792 156.6167496 38.71596063 156.66153082 33.57105541 156.7124691 C29.61708329 156.74610863 25.66326372 156.75767145 21.70916176 156.76332474 C19.81251444 156.77004597 17.91587745 156.78529066 16.01936913 156.80921555 C13.36418723 156.84080091 10.71074001 156.84091422 8.05541992 156.83349609 C7.27237488 156.84990143 6.48932983 156.86630676 5.68255615 156.88320923 C1.62606498 156.83683233 -0.14997083 156.43305577 -3.33940125 153.83853149 C-6.04372883 150.39962335 -6.49977909 148.84415442 -6.49957275 144.55908203 C-6.50213577 143.56949997 -6.50469879 142.57991791 -6.50733948 141.56034851 C-6.50523972 140.47051163 -6.50313995 139.38067474 -6.50097656 138.2578125 C-6.5028447 137.11290848 -6.50471283 135.96800446 -6.50663757 134.78840637 C-6.51064979 132.29423244 -6.51271716 129.80005482 -6.51309967 127.30587769 C-6.51694813 121.31544392 -6.54303897 115.32510442 -6.56631613 109.33472252 C-6.60138539 100.13540652 -6.62798582 90.9362048 -6.62548828 81.73681641 C-6.62389443 75.53255995 -6.64006185 69.32862082 -6.67619491 63.12446594 C-6.69457958 59.84427541 -6.70130505 56.56472936 -6.69171906 53.28448486 C-6.68206942 49.61494842 -6.70333739 45.9467588 -6.73144531 42.27734375 C-6.72124863 41.20370071 -6.71105194 40.13005768 -6.70054626 39.02388 C-6.81390162 30.73541362 -8.89092779 23.92240043 -14.6875 17.8125 C-25.94712538 11.26620618 -36.42180521 11.73295958 -44.96484375 22.21484375 Z " fill="#000000" transform="translate(71.375,77.75)"/>
</svg>
