<?xml version="1.0" standalone="no"?>
<!DOCTYPE svg PUBLIC "-//W3C//DTD SVG 20010904//EN"
 "http://www.w3.org/TR/2001/REC-SVG-20010904/DTD/svg10.dtd">
<svg version="1.0" xmlns="http://www.w3.org/2000/svg"
 width="512.000000pt" height="512.000000pt" viewBox="0 0 512.000000 512.000000"
 preserveAspectRatio="xMidYMid meet">

<g transform="translate(0.000000,512.000000) scale(0.100000,-0.100000)"
fill="#000000" stroke="none">
<path d="M1500 4190 c-524 -30 -950 -265 -1221 -674 -333 -502 -370 -1195 -94
-1746 75 -149 161 -267 284 -390 284 -284 614 -423 1061 -450 227 -13 1465
-13 1528 1 75 16 105 53 163 205 126 327 213 701 250 1069 15 155 15 556 0
710 -38 375 -119 725 -244 1054 -65 168 -92 204 -169 220 -55 12 -1350 13
-1558 1z m779 -397 c281 -769 280 -1697 0 -2467 l-32 -88 -391 5 c-346 4 -404
7 -503 26 -527 100 -892 463 -1010 1003 -26 120 -26 458 1 578 88 405 321 721
655 890 127 63 337 119 506 133 22 2 198 4 391 5 l351 2 32 -87z m697 -70
c128 -382 187 -746 187 -1163 0 -417 -59 -781 -187 -1163 l-51 -152 -168 -3
c-92 -1 -167 1 -167 5 0 5 14 49 31 98 70 208 130 484 166 760 22 175 25 698
5 870 -33 275 -97 576 -168 788 -18 56 -34 105 -34 110 0 4 75 6 167 5 l168
-3 51 -152z"/>
<path d="M3781 4190 c-70 -17 -121 -80 -121 -150 1 -52 34 -117 72 -140 32
-19 49 -20 548 -20 499 0 516 1 548 20 45 28 76 98 69 158 -6 52 -31 89 -78
117 -33 19 -54 20 -519 22 -267 1 -500 -2 -519 -7z"/>
<path d="M3960 3192 c-50 -26 -83 -92 -77 -155 4 -51 26 -88 71 -121 27 -21
38 -21 546 -21 508 0 519 0 546 21 73 54 93 136 52 213 -44 84 -23 81 -598 81
-470 0 -508 -1 -540 -18z"/>
<path d="M3986 2220 c-59 -18 -106 -85 -106 -153 0 -49 39 -117 80 -139 32
-17 70 -18 540 -18 575 0 554 -3 598 81 41 77 21 159 -52 213 -27 21 -39 21
-529 23 -276 1 -515 -2 -531 -7z"/>
<path d="M3732 1220 c-45 -28 -76 -98 -69 -158 6 -52 31 -89 78 -117 33 -19
52 -20 539 -20 487 0 506 1 539 20 47 28 70 62 77 116 8 61 -22 130 -68 159
-32 19 -49 20 -548 20 -499 0 -516 -1 -548 -20z"/>
</g>
</svg>
