<?xml version="1.0" standalone="no"?>
<!DOCTYPE svg PUBLIC "-//W3C//DTD SVG 20010904//EN"
 "http://www.w3.org/TR/2001/REC-SVG-20010904/DTD/svg10.dtd">
<svg version="1.0" xmlns="http://www.w3.org/2000/svg"
 width="512.000000pt" height="512.000000pt" viewBox="0 0 512.000000 512.000000"
 preserveAspectRatio="xMidYMid meet">

<g transform="translate(0.000000,512.000000) scale(0.100000,-0.100000)"
fill="#000000" stroke="none">
<path d="M1434 4244 c-60 -29 -87 -123 -50 -179 38 -57 50 -60 308 -63 l238
-3 0 -159 0 -159 -319 -3 c-305 -3 -321 -4 -348 -24 -15 -11 -60 -76 -99 -145
l-72 -124 -99 -5 c-83 -5 -109 -11 -166 -37 -121 -57 -212 -175 -236 -308 -6
-32 -11 -125 -11 -207 l0 -148 -160 0 -160 0 -1 348 c0 241 -4 358 -12 382
-25 72 -132 105 -191 59 -59 -46 -56 -5 -56 -896 0 -803 0 -819 20 -851 25
-41 81 -66 129 -58 43 7 88 49 101 95 6 20 10 175 10 354 l0 317 160 0 160 0
0 -318 c0 -188 4 -343 11 -378 30 -164 153 -297 314 -339 45 -11 114 -15 290
-15 l230 0 245 -246 c135 -135 257 -252 272 -260 23 -12 176 -14 1015 -14 973
0 988 0 1021 20 55 34 62 65 62 285 l0 195 90 0 90 0 0 -130 c0 -150 11 -189
62 -220 31 -19 50 -20 301 -20 339 0 323 -6 385 157 117 309 175 802 142 1198
-29 337 -138 741 -221 821 l-30 29 -267 3 c-244 2 -270 1 -301 -16 -61 -33
-71 -67 -71 -234 l0 -148 -90 0 -90 0 0 145 c0 239 -8 248 -248 255 l-164 5
-90 205 c-49 113 -97 213 -107 224 -37 43 -62 46 -431 46 l-350 0 0 160 0 160
178 0 c97 0 194 5 214 10 40 12 84 57 95 98 10 40 -17 103 -56 129 l-34 23
-791 0 c-684 0 -795 -2 -822 -16z m956 -404 l0 -160 -100 0 -100 0 0 160 0
160 100 0 100 0 0 -160z m929 -568 c141 -323 140 -322 249 -322 32 0 93 -3
135 -6 l75 -7 4 -151 c3 -165 10 -187 65 -223 24 -16 55 -18 284 -18 245 0
259 1 286 21 53 39 63 74 63 232 l0 142 123 0 124 0 27 -87 c83 -275 110 -490
103 -823 -6 -297 -36 -499 -105 -725 l-18 -60 -127 -3 -127 -3 0 131 c0 150
-11 189 -62 220 -31 19 -50 20 -286 20 -360 0 -345 12 -350 -287 l-3 -203
-867 0 -867 0 -235 236 c-129 129 -248 245 -265 257 -29 21 -42 22 -315 27
-279 5 -286 6 -318 28 -18 13 -41 41 -52 62 -19 38 -20 61 -20 655 0 593 1
617 20 654 34 69 75 85 225 91 76 3 139 10 152 18 12 6 55 70 95 142 l73 129
925 0 925 1 64 -148z"/>
</g>
</svg>
