<?xml version="1.0" encoding="UTF-8"?>
<svg version="1.1" xmlns="http://www.w3.org/2000/svg" width="512" height="512">
<path d="M0 0 C7.89271539 5.58713724 14.51602974 13.10092056 20.765625 20.421875 C22.75912581 22.73864621 24.81554388 24.99169984 26.875 27.25 C30.81983111 31.58931422 34.43730599 36.11631032 37.96875 40.796875 C44.47582195 47.58511672 53.46694756 51.82252917 61.5625 56.4375 C63.27324106 57.41859703 64.98397606 58.39970488 66.69429016 59.38154602 C67.86425966 60.05316591 69.03441642 60.72445968 70.20475769 61.39543152 C76.46511113 64.98600555 82.70325827 68.61427301 88.9375 72.25 C89.95529541 72.84232422 90.97309082 73.43464844 92.02172852 74.04492188 C92.96201904 74.59341797 93.90230957 75.14191406 94.87109375 75.70703125 C96.1075061 76.42789917 96.1075061 76.42789917 97.36889648 77.16333008 C99.11029285 78.20449718 100.81184188 79.31206125 102.5 80.4375 C103.49 80.4375 104.48 80.4375 105.5 80.4375 C107.51048951 77.00603286 109.50655245 73.56639088 111.5 70.125 C112.07234375 69.14853516 112.6446875 68.17207031 113.234375 67.16601562 C113.77578125 66.22822266 114.3171875 65.29042969 114.875 64.32421875 C115.37773437 63.46014404 115.88046875 62.59606934 116.3984375 61.70581055 C117.71842177 59.40800472 117.71842177 59.40800472 117.5 56.4375 C116.81075439 56.05529297 116.12150879 55.67308594 115.41137695 55.27929688 C75.77856923 33.2732077 75.77856923 33.2732077 73.5 26.4375 C73.00072745 20.77267684 72.73085928 16.01431373 76.5 11.4375 C79.40987507 8.16389054 81.35982344 6.74048096 85.77294922 6.11572266 C94.20267769 5.67417283 99.54298455 8.50571247 106.625 12.8125 C107.72465088 13.45517822 108.82430176 14.09785645 109.95727539 14.76000977 C113.15108376 16.63169414 116.3263744 18.53186238 119.5 20.4375 C120.99452697 21.31647154 122.49041228 22.19314203 123.98828125 23.06640625 C126.65459521 24.6226497 129.31395977 26.18980722 131.96875 27.765625 C137.59868184 31.09752102 143.26932679 34.35873657 148.9375 37.625 C150.03747314 38.25937988 151.13744629 38.89375977 152.27075195 39.54736328 C157.97162851 42.83364902 163.67656171 46.11267851 169.38671875 49.3828125 C188.90838074 60.57352946 188.90838074 60.57352946 197.9375 66.0625 C198.57574707 66.43995361 199.21399414 66.81740723 199.87158203 67.20629883 C204.56367906 70.11021319 206.79024439 72.98065366 208.3125 78.25 C208.64522911 83.90639482 207.76006341 87.95127136 204.0625 92.3125 C199.14836988 96.38763229 196.22942938 97.09293337 189.95019531 96.98144531 C183.34750148 95.94048849 177.96413436 92.27416716 172.375 88.8125 C171.16679748 88.09004619 169.95716452 87.36997906 168.74609375 86.65234375 C165.31297579 84.60904624 161.90522879 82.52695577 158.5 80.4375 C156.60869321 79.28070529 154.71567303 78.12670329 152.8203125 76.9765625 C152.05219238 76.50686035 151.28407227 76.0371582 150.49267578 75.55322266 C148.401227 74.30037941 148.401227 74.30037941 145.5 73.4375 C145.16162109 74.40816406 145.16162109 74.40816406 144.81640625 75.3984375 C143.03757985 79.50504563 140.74641362 83.23499397 138.4375 87.0625 C137.52731714 88.57393971 136.61965477 90.08690088 135.71484375 91.6015625 C135.31386475 92.26623535 134.91288574 92.9309082 134.49975586 93.61572266 C133.35596326 95.57097198 133.35596326 95.57097198 132.5 98.4375 C133.20455322 98.70071045 133.90910645 98.9639209 134.63500977 99.23510742 C137.68883354 100.51675055 140.46658865 102.02889589 143.33984375 103.67578125 C144.47534668 104.32514648 145.61084961 104.97451172 146.78076172 105.64355469 C147.9997952 106.34549351 149.21870538 107.04764651 150.4375 107.75 C151.69021451 108.46916683 152.94298197 109.18824145 154.19580078 109.90722656 C162.11388917 114.45783892 170.00757858 119.04978384 177.875 123.6875 C178.76437256 124.21126221 179.65374512 124.73502441 180.57006836 125.2746582 C193.49069491 132.93174373 193.49069491 132.93174373 197.625 138.1875 C198.58792969 139.38632812 198.58792969 139.38632812 199.5703125 140.609375 C204.03806715 147.15725834 206.49106309 153.9702672 208.625 161.5625 C209.05244507 163.05559692 209.05244507 163.05559692 209.48852539 164.57885742 C212.41988953 174.93757605 215.18078549 185.34371485 217.9375 195.75 C218.16463684 196.60426575 218.39177368 197.45853149 218.62579346 198.33868408 C219.27433597 200.78328088 219.91741854 203.2292431 220.55859375 205.67578125 C220.85338371 206.78520332 220.85338371 206.78520332 221.15412903 207.91703796 C221.91542301 210.84430095 222.5 213.39856823 222.5 216.4375 C223.4417659 216.53261368 224.3835318 216.62772736 225.35383606 216.72572327 C240.00010496 218.25593638 254.57280044 220.32678734 269.1530683 222.37814593 C271.34452775 222.68645092 273.53606009 222.99423316 275.72760963 223.30189705 C282.60983591 224.26835723 289.49172352 225.23718334 296.37317055 226.20917648 C304.27469736 227.32518997 312.17733748 228.43285601 320.08100194 229.53362602 C326.22932942 230.39046245 332.37656382 231.25486619 338.52303058 232.12494904 C342.1793067 232.6423442 345.83596297 233.15654192 349.49381065 233.66271782 C353.56086024 234.22574702 357.62553311 234.80443976 361.69018555 235.38452148 C362.88973877 235.5482576 364.08929199 235.71199371 365.32519531 235.88069153 C374.01491782 237.14064005 380.56861546 238.45940054 386.5 245.4375 C388.21406508 250.57969525 388.40067745 256.18580638 386.375 261.25 C380.69814796 267.87299405 374.016869 270.71850766 366.125 274.125 C364.84934732 274.68488323 363.57421611 275.24595584 362.29956055 275.80810547 C360.24173031 276.71533663 358.1835331 277.62165304 356.12376404 278.5244751 C348.3316963 281.93995628 340.57581964 285.43498264 332.82012939 288.93209839 C330.28602936 290.07443257 327.75125866 291.21526637 325.21630859 292.35571289 C316.42962174 296.30957654 307.64742679 300.27320521 298.87109375 304.25 C297.99384644 304.64747437 297.11659912 305.04494873 296.21276855 305.45446777 C290.90311637 307.86029926 290.90311637 307.86029926 285.59356689 310.26635742 C272.74703192 316.08640326 259.87090743 321.83575341 246.97351074 327.54205322 C235.60317884 332.57622919 224.29008353 337.72606408 213 342.9375 C201.10640467 348.42489552 189.19282433 353.86364462 177.23022461 359.19921875 C175.68521566 359.88852304 174.14076191 360.57907338 172.59692383 361.27099609 C138.99699948 376.31883772 138.99699948 376.31883772 120.5 369.4375 C113.93703376 366.549153 107.70887173 363.01033357 101.5 359.4375 C100.46649414 358.84340332 100.46649414 358.84340332 99.41210938 358.23730469 C96.00663837 356.26721131 92.62078323 354.26577496 89.2421875 352.25 C83.54890438 348.85909335 77.80497507 345.55668487 72.0625 342.25 C70.40238892 341.29347534 70.40238892 341.29347534 68.70874023 340.31762695 C66.43762519 339.00922278 64.16638388 337.70103774 61.89501953 336.39306641 C56.4283002 333.24417946 50.96425113 330.09066736 45.5 326.9375 C43.33334689 325.6874765 41.16668021 324.43747653 39 323.1875 C32.5 319.4375 32.5 319.4375 26 315.6875 C24.92733887 315.06866943 23.85467773 314.44983887 22.74951172 313.81225586 C20.58442929 312.56314482 18.41939018 311.31395871 16.25439453 310.06469727 C10.81384294 306.92547691 5.37252784 303.78759437 -0.0703125 300.65234375 C-14.57488678 292.29531077 -29.0638422 283.91229799 -43.5 275.4375 C-44.29664063 274.97021484 -45.09328125 274.50292969 -45.9140625 274.02148438 C-48.00822328 272.79016162 -50.09873981 271.5529565 -52.1875 270.3125 C-53.30511719 269.64992188 -54.42273438 268.98734375 -55.57421875 268.3046875 C-65.62598597 261.88980802 -73.10768192 251.79804659 -76.08203125 240.16015625 C-79.16431314 220.08211443 -71.07945345 205.20672166 -61.0625 188.3125 C-59.83397815 186.22434488 -58.60613874 184.13578815 -57.37890625 182.046875 C-56.7461377 180.97115234 -56.11336914 179.89542969 -55.46142578 178.78710938 C-51.48455364 171.99563741 -47.57096396 165.16748096 -43.65063477 158.34326172 C-43.06467529 157.32506348 -42.47871582 156.30686523 -41.875 155.2578125 C-41.31683594 154.28102539 -40.75867187 153.30423828 -40.18359375 152.29785156 C-39.05094082 150.37352416 -37.87514507 148.47401615 -36.66015625 146.60058594 C-36.09167969 145.71918945 -35.52320313 144.83779297 -34.9375 143.9296875 C-34.42058594 143.15737793 -33.90367188 142.38506836 -33.37109375 141.58935547 C-32.23906429 139.46126502 -32.23906429 139.46126502 -33.20043945 137.32763672 C-35.11166193 134.5478726 -37.37466648 132.13059032 -39.6875 129.6875 C-40.68948716 128.61261738 -41.69079005 127.53709648 -42.69140625 126.4609375 C-43.17625488 125.94112305 -43.66110352 125.42130859 -44.16064453 124.88574219 C-46.41496517 122.44815013 -48.58277485 119.93774527 -50.7578125 117.4296875 C-52.81500399 115.07729365 -54.90596915 112.75715034 -57 110.4375 C-57.76441406 109.58800781 -58.52882813 108.73851562 -59.31640625 107.86328125 C-60.63383035 106.39973856 -61.95347238 104.93818206 -63.27734375 103.48046875 C-74.70855925 90.70440437 -83.56746417 79.15535256 -83.875 61.5 C-83.91238281 60.72076172 -83.94976562 59.94152344 -83.98828125 59.13867188 C-84.16537486 46.96840543 -77.74383687 36.42532229 -71.61645508 26.30566406 C-70.55480646 24.54977545 -69.51190707 22.78369798 -68.47070312 21.015625 C-60.93689597 8.34219331 -52.69536088 -1.52817718 -38.0390625 -5.90234375 C-24.4435694 -8.4383684 -11.91547336 -7.21199703 0 0 Z M-35.83398438 29.0378418 C-39.75705063 34.21896286 -43.10022528 39.60538558 -46.3125 45.25 C-46.80169922 46.09498047 -47.29089844 46.93996094 -47.79492188 47.81054688 C-50.47330558 52.47456497 -52.63247394 56.26394265 -52.8125 61.75 C-52.84988281 62.48863281 -52.88726562 63.22726563 -52.92578125 63.98828125 C-51.94999776 69.60127436 -47.44691682 73.77482714 -43.6875 77.8125 C-40.73392029 81.01221135 -37.79224675 84.21170526 -34.9375 87.5 C-32.32298058 90.50823528 -29.67048344 93.47880249 -27 96.4375 C-23.12300718 100.73344745 -19.29497102 105.06901246 -15.5 109.4375 C-13.00222912 107.1589362 -11.45135484 104.83985373 -9.8203125 101.88671875 C-9.05376343 100.51253784 -9.05376343 100.51253784 -8.27172852 99.1105957 C-7.4565979 97.63272583 -7.4565979 97.63272583 -6.625 96.125 C-3.08071359 89.73796932 0.49268818 83.38899322 4.31640625 77.1640625 C4.92307129 76.17059814 5.52973633 75.17713379 6.15478516 74.15356445 C7.32777065 72.24308561 8.51335511 70.34027566 9.71240234 68.44604492 C10.23914551 67.58342041 10.76588867 66.7207959 11.30859375 65.83203125 C11.78095459 65.07768799 12.25331543 64.32334473 12.73999023 63.54614258 C13.74356742 61.44591261 13.74356742 61.44591261 12.79785156 59.34741211 C10.76727909 56.35923144 8.29516324 53.79738222 5.8125 51.1875 C4.71798673 50.02024649 3.62423255 48.85228071 2.53125 47.68359375 C2.0053125 47.12269043 1.479375 46.56178711 0.9375 45.98388672 C-0.8091473 44.10493563 -2.5069429 42.18818968 -4.1875 40.25 C-4.7134375 39.64542969 -5.239375 39.04085937 -5.78125 38.41796875 C-7.11591983 36.88006511 -8.44892251 35.34071457 -9.78125 33.80078125 C-10.5753125 32.89714844 -11.369375 31.99351563 -12.1875 31.0625 C-12.91324219 30.22976562 -13.63898438 29.39703125 -14.38671875 28.5390625 C-17.69474514 25.24938007 -20.29274146 24.14914952 -24.9375 24.125 C-29.78987164 24.27564552 -32.63194301 25.19644701 -35.83398438 29.0378418 Z M37.5 80.4375 C37.12415771 81.08895996 36.74831543 81.74041992 36.36108398 82.41162109 C30.47119141 92.62076823 24.58129883 102.82991536 18.69140625 113.0390625 C17.77572876 114.62630127 17.77572876 114.62630127 16.84155273 116.24560547 C15.60553741 118.38794464 14.36937003 120.5301961 13.13305664 122.67236328 C9.97838989 128.13891901 6.82645695 133.60701895 3.6796875 139.078125 C2.41153879 141.28129631 1.14331027 143.48442169 -0.125 145.6875 C-0.73802979 146.75363525 -1.35105957 147.81977051 -1.98266602 148.91821289 C-5.05890233 154.25544008 -8.16541049 159.57129675 -11.33203125 164.85546875 C-12.24251221 166.37769043 -12.24251221 166.37769043 -13.17138672 167.93066406 C-14.32203678 169.84894437 -15.47834206 171.76384734 -16.64111328 173.67480469 C-17.40464111 174.94759277 -17.40464111 174.94759277 -18.18359375 176.24609375 C-18.63275146 176.98657959 -19.08190918 177.72706543 -19.54467773 178.48999023 C-20.72020137 180.52486659 -20.72020137 180.52486659 -20.5 183.4375 C-19.7879541 183.84363525 -19.0759082 184.24977051 -18.34228516 184.66821289 C-2.10954545 193.92941534 14.10059805 203.2282986 30.28222656 212.57861328 C35.68670645 215.70074605 41.09347412 218.81891204 46.5 221.9375 C48.6666775 223.18748122 50.83334417 224.43748121 53 225.6875 C54.60875 226.615625 54.60875 226.615625 56.25 227.5625 C68.16666667 234.4375 80.08333333 241.3125 92 248.1875 C93.07266113 248.80633057 94.14532227 249.42516113 95.25048828 250.06274414 C97.41557071 251.31185518 99.58060982 252.56104129 101.74560547 253.81030273 C107.18615706 256.94952309 112.62747216 260.08740563 118.0703125 263.22265625 C128.52206272 269.24497371 138.96293853 275.28428996 149.375 281.375 C161.57463193 288.5087694 173.80008112 295.61805196 186.15332031 302.48339844 C188.54553133 303.88019279 190.76524897 305.28912576 193.02636719 306.86816406 C199.16291118 311.19718182 199.16291118 311.19718182 206.37255859 312.13110352 C209.58903177 310.80900007 212.48240392 309.16715108 215.5 307.4375 C218.45803477 306.04059094 221.45832421 304.74161711 224.453125 303.42578125 C226.122888 302.67155251 227.79147806 301.91472252 229.45898438 301.15551758 C234.96568193 298.65185911 240.47485816 296.15369743 245.984375 293.65625 C247.41124634 293.00913811 247.41124634 293.00913811 248.86694336 292.34895325 C258.05754492 288.18175563 267.25674493 284.03376987 276.45935059 279.89315796 C278.12098712 279.14550934 279.78253068 278.39765404 281.44396973 277.64956665 C292.78099109 272.54494303 304.13430207 267.47794729 315.5 262.4375 C315.5 261.7775 315.5 261.1175 315.5 260.4375 C314.96107872 260.36295939 314.42215744 260.28841879 313.86690521 260.21161938 C300.72726523 258.39356715 287.58910407 256.56514402 274.45244598 254.72566509 C268.09949728 253.83640178 261.74611268 252.95054456 255.39160156 252.07250977 C249.25669236 251.22469001 243.12310058 250.36787335 236.99031067 249.50486183 C234.65286239 249.17753638 232.314961 248.85342951 229.97660828 248.53262901 C226.6960307 248.08199803 223.41726546 247.61984523 220.13867188 247.1550293 C219.1762558 247.02555405 218.21383972 246.8960788 217.22225952 246.76268005 C210.78250471 245.83307984 204.71834033 244.57460413 199.20800781 240.91552734 C196.4454251 236.90749211 195.43538293 232.45266255 194.171875 227.7890625 C193.72506378 226.19887802 193.72506378 226.19887802 193.26922607 224.5765686 C189.64968152 211.59754165 186.26625997 198.55239707 182.89599609 185.50683594 C182.06666541 182.30249585 181.22917727 179.10037469 180.390625 175.8984375 C180.14370911 174.93287933 179.89679321 173.96732117 179.64239502 172.97250366 C176.77292209 162.05894081 172.7725138 156.88688315 163.140625 151.1953125 C161.01371507 149.97859095 158.8832909 148.7679987 156.75 147.5625 C154.99993101 146.56344487 153.24986705 145.56438079 151.50012207 144.5647583 C149.69183576 143.53261879 147.88215381 142.50296032 146.07226562 141.47363281 C140.53343764 138.32052515 135.01803655 135.12680075 129.5 131.9375 C127.33344189 130.68731186 125.16677489 129.4373124 123 128.1875 C118.66666667 125.6875 114.33333333 123.1875 110 120.6875 C108.92733887 120.06866943 107.85467773 119.44983887 106.74951172 118.81225586 C104.58442929 117.56314482 102.41939018 116.31395871 100.25439453 115.06469727 C94.81384294 111.92547691 89.37252784 108.78759437 83.9296875 105.65234375 C82.84502197 105.027229 81.76035645 104.40211426 80.64282227 103.75805664 C78.48225807 102.51304867 76.3212946 101.26873332 74.15991211 100.02514648 C68.6339494 96.84115745 63.1245979 93.63206084 57.63671875 90.3828125 C56.53279785 89.73127197 55.42887695 89.07973145 54.29150391 88.40844727 C52.1824073 87.16190196 50.07645807 85.91001175 47.97412109 84.65209961 C47.0352002 84.0978833 46.0962793 83.54366699 45.12890625 82.97265625 C44.30463135 82.481604 43.48035645 81.99055176 42.63110352 81.48461914 C40.44698796 80.21700374 40.44698796 80.21700374 37.5 80.4375 Z M-37.5 210.4375 C-44.68960869 221.07646722 -44.68960869 221.07646722 -45.5 233.4375 C-41.89798364 242.24242888 -31.56169667 246.43910824 -23.75 250.8125 C-22.4971559 251.52003938 -21.24472113 252.22830399 -19.99267578 252.93725586 C-18.06360515 254.02946722 -16.13430949 255.12125515 -14.20376587 256.21086121 C-7.90411206 259.76680334 -1.63701652 263.37822908 4.625 267 C6.77080047 268.23964023 8.91663383 269.47922351 11.0625 270.71875 C12.12210938 271.33105469 13.18171875 271.94335938 14.2734375 272.57421875 C17.53524007 274.4578505 20.79861844 276.33872321 24.0625 278.21875 C34.51712951 284.24189739 44.96048442 290.28272445 55.375 296.375 C64.05262426 301.45025231 72.76612314 306.45996707 81.5 311.4375 C90.56580621 316.60464738 99.61181294 321.80386514 108.625 327.0625 C109.57761719 327.61808594 110.53023437 328.17367187 111.51171875 328.74609375 C116.80793791 331.84246085 122.07151459 334.98377525 127.2980957 338.1965332 C131.17566342 340.38188376 134.89227569 342.01503212 139.44677734 341.00634766 C145.8329291 338.80055012 151.93637451 336.09210058 158.0625 333.25 C159.07119141 332.78658203 160.07988281 332.32316406 161.11914062 331.84570312 C163.5813725 330.71377662 166.04156694 329.5776475 168.5 328.4375 C164.49346302 324.99887991 160.30711358 322.54749454 155.6875 320.0625 C148.38954087 316.07199404 141.17600722 311.95573358 134 307.75 C125.55741524 302.80564555 117.10196337 297.88521333 108.625 293 C107.54541016 292.37778564 106.46582031 291.75557129 105.35351562 291.11450195 C103.1631748 289.85238483 100.97274498 288.59042215 98.78222656 287.32861328 C93.35340058 284.20069852 87.92680719 281.06891552 82.5 277.9375 C80.33334417 276.68748121 78.1666775 275.43748122 76 274.1875 C11 236.6875 11 236.6875 7.74438477 234.80883789 C5.59692391 233.57019785 3.44898143 232.3323924 1.30053711 231.09545898 C-3.79715774 228.15917745 -8.88934229 225.21432582 -13.9649353 222.24002075 C-16.37323876 220.82943333 -18.7842803 219.42356439 -21.19555664 218.01806641 C-22.90455557 217.01925413 -24.6095486 216.0135977 -26.31445312 215.0078125 C-27.34376953 214.40839844 -28.37308594 213.80898437 -29.43359375 213.19140625 C-30.34165771 212.65845947 -31.24972168 212.1255127 -32.18530273 211.57641602 C-34.51868024 210.21675585 -34.51868024 210.21675585 -37.5 210.4375 Z " fill="#000000" transform="translate(83.5,22.5625)"/>
<path d="M0 0 C0.78375 -0.0103125 1.5675 -0.020625 2.375 -0.03125 C7.51541793 1.00907268 11.00136394 3.03274169 13.90625 7.30078125 C14.69515625 9.03908203 14.69515625 9.03908203 15.5 10.8125 C16.17257113 12.25158544 16.84581044 13.69035869 17.51953125 15.12890625 C17.90061035 15.9605127 18.28168945 16.79211914 18.67431641 17.64892578 C20.20497133 20.94082048 21.79107838 24.20415104 23.38671875 27.46484375 C30.24067262 41.48724967 36.95534249 55.56823188 43.48461914 69.74487305 C46.24601651 75.74019945 49.05509604 81.70497563 51.94995117 87.63696289 C59.79760353 103.8360957 63.48891838 120.82088138 58.375 138.6875 C52.19161406 155.23398223 41.47141403 168.13767379 25.4375 175.8125 C11.3515776 182.23117875 -6.59484812 183.20714986 -21.1875 177.75390625 C-37.87476473 170.31416739 -49.1562229 159.4475766 -56.73828125 142.80859375 C-59.58614182 135.34067453 -60.3639292 128.74473114 -60.375 120.8125 C-60.39949219 119.90822266 -60.42398437 119.00394531 -60.44921875 118.07226562 C-60.50940508 103.83819852 -53.94248942 91.56161134 -47.875 79.0625 C-47.07930941 77.40653449 -46.28456891 75.75011217 -45.49072266 74.09326172 C-43.83716283 70.64364722 -42.17952872 67.19603244 -40.51953125 63.74951172 C-38.02094656 58.55359128 -35.55307878 53.34350183 -33.09375 48.12890625 C-32.49676804 46.86376945 -32.49676804 46.86376945 -31.88772583 45.57307434 C-30.34757164 42.30851293 -28.80783504 39.04375587 -27.26947021 35.77835083 C-25.20132306 31.3913064 -23.11538094 27.01342508 -21.01501465 22.64172363 C-19.96861106 20.43376801 -18.95651684 18.21201527 -17.94628906 15.98730469 C-17.26950891 14.54072132 -16.59212309 13.09442113 -15.9140625 11.6484375 C-15.62340912 10.98663483 -15.33275574 10.32483215 -15.03329468 9.64297485 C-12.06692148 3.4325138 -7.04554503 -0.09270454 0 0 Z M-1 53.5 C-23.36580882 90.76949932 -23.36580882 90.76949932 -27.90625 130.87890625 C-25.00670834 137.04043227 -21.81929997 141.86894919 -16 145.5 C-15.35546875 145.90992188 -14.7109375 146.31984375 -14.046875 146.7421875 C-7.38598388 150.31933273 -0.38621835 150.55748044 7 149.5 C14.53708645 147.01688537 20.75834742 143.29788029 25 136.5 C25.40992188 135.85546875 25.81984375 135.2109375 26.2421875 134.546875 C29.86076116 127.80884129 30.01817918 120.96096264 29 113.5 C28.10660588 111.00758005 27.18527418 108.71614917 26.0703125 106.33203125 C25.76325882 105.65360168 25.45620514 104.97517212 25.1398468 104.27618408 C24.10765697 102.01049391 23.05623301 99.75457631 22 97.5 C21.62263702 96.69102264 21.24527405 95.88204529 20.85647583 95.04855347 C17.99827655 88.93395332 15.09648269 82.84056081 12.1875 76.75 C11.32074239 74.92979279 10.45420479 73.10948081 9.58789062 71.2890625 C8.01324276 67.98278696 6.43829814 64.6766564 4.86010742 61.37207031 C4.54812912 60.71861633 4.23615082 60.06516235 3.91471863 59.39190674 C2.96076543 57.41885139 1.98431604 55.45806101 1 53.5 C0.34 53.5 -0.32 53.5 -1 53.5 Z " fill="#000000" transform="translate(452,315.5)"/>
</svg>
