<?xml version="1.0" standalone="no"?>
<!DOCTYPE svg PUBLIC "-//W3C//DTD SVG 20010904//EN"
 "http://www.w3.org/TR/2001/REC-SVG-20010904/DTD/svg10.dtd">
<svg version="1.0" xmlns="http://www.w3.org/2000/svg"
 width="512.000000pt" height="512.000000pt" viewBox="0 0 512.000000 512.000000"
 preserveAspectRatio="xMidYMid meet">

<g transform="translate(0.000000,512.000000) scale(0.100000,-0.100000)"
fill="#000000" stroke="none">
<path d="M4590 5106 c-101 -29 -174 -78 -236 -159 -78 -104 -104 -249 -68
-378 l16 -57 -37 -71 c-21 -39 -41 -71 -46 -71 -5 0 -23 9 -41 20 -42 25 -102
26 -126 2 -10 -10 -49 -75 -87 -145 -37 -70 -74 -127 -82 -127 -8 0 -43 7 -78
16 -54 14 -67 14 -91 2 -59 -28 -66 -101 -13 -139 25 -19 1084 -309 1126 -309
35 0 73 42 73 82 0 52 -22 74 -94 93 l-65 18 25 48 c42 84 25 135 -56 169 -17
7 -30 17 -30 22 0 6 17 41 38 79 36 68 38 69 96 86 166 47 286 195 302 373 11
120 -29 232 -117 325 -105 111 -270 160 -409 121z m179 -172 c61 -18 123 -69
154 -128 16 -31 21 -58 21 -111 0 -81 -22 -133 -79 -188 -33 -32 -114 -67
-156 -67 -45 0 -69 -24 -124 -126 -32 -57 -61 -104 -66 -104 -12 0 -98 44
-123 62 -18 14 -16 20 40 126 l58 112 -24 58 c-69 165 -10 311 149 368 48 18
87 17 150 -2z m-407 -839 c117 -64 216 -119 220 -123 5 -5 2 -16 -4 -25 -12
-15 -34 -11 -258 50 -135 36 -247 68 -249 70 -8 6 63 143 74 143 3 0 101 -52
217 -115z"/>
<path d="M4615 4729 c-20 -39 -35 -72 -33 -73 31 -24 142 -76 147 -70 5 5 24
39 44 75 l36 65 -68 37 c-38 20 -73 37 -78 37 -6 0 -27 -32 -48 -71z"/>
<path d="M3535 3795 c-41 -40 -31 -105 20 -132 11 -6 261 -72 556 -147 573
-146 567 -145 603 -94 9 12 16 35 16 51 0 60 -7 63 -585 210 -297 76 -550 137
-563 137 -13 0 -34 -11 -47 -25z"/>
<path d="M300 3561 c-105 -34 -200 -112 -246 -203 -56 -111 -54 -44 -54 -1559
0 -896 4 -1415 10 -1449 32 -170 170 -308 339 -340 72 -13 1111 -13 1182 0
173 33 314 182 339 362 5 35 10 215 10 401 l0 337 139 0 c133 0 141 1 168 24
28 24 28 24 31 170 l3 146 382 0 c309 0 391 -3 431 -15 63 -19 172 -19 226 0
36 13 131 15 611 15 l569 0 0 -145 c0 -142 1 -147 25 -170 l24 -25 286 0 287
0 29 29 29 29 0 617 c0 651 -1 662 -45 679 -9 3 -146 6 -304 6 -280 0 -288 -1
-307 -21 -16 -18 -20 -42 -24 -168 l-5 -146 -272 -3 c-150 -1 -273 0 -273 4 0
3 27 54 60 114 87 157 82 180 -47 250 -43 24 -79 44 -81 45 -2 2 155 296 163
303 1 2 70 -15 152 -37 82 -23 160 -41 175 -41 39 0 82 54 74 94 -4 17 -14 39
-24 48 -18 18 -1054 308 -1100 308 -13 0 -37 -14 -54 -30 -25 -26 -29 -36 -24
-63 10 -51 34 -66 162 -101 89 -25 119 -37 118 -49 -1 -8 -23 -54 -48 -101
l-47 -86 -83 45 c-93 51 -124 55 -160 23 -32 -29 -186 -313 -193 -356 -5 -27
-1 -37 29 -65 19 -17 62 -45 96 -61 34 -16 62 -34 62 -39 0 -5 -9 -24 -20 -42
-15 -25 -32 -36 -67 -44 -62 -16 -99 -36 -155 -82 l-47 -39 -305 0 -306 0 0
129 c0 71 -5 142 -10 157 -19 49 -34 53 -187 54 l-143 0 0 338 c0 185 -5 369
-10 407 -21 142 -112 265 -243 326 l-72 34 -600 2 c-552 2 -604 1 -655 -16z
m380 -1771 l0 -1620 -85 0 -85 0 0 1620 0 1620 85 0 85 0 0 -1620z m340 0 l0
-1620 -85 0 -85 0 0 1620 0 1620 85 0 85 0 0 -1620z m340 0 l0 -1620 -85 0
-85 0 0 1620 0 1620 85 0 85 0 0 -1620z m-1020 0 c0 -970 -4 -1600 -9 -1600
-18 0 -96 66 -118 99 -13 19 -27 50 -33 70 -6 23 -10 528 -10 1436 1 1498 -1
1433 50 1508 24 35 87 86 108 87 9 0 12 -326 12 -1600z m1239 1586 c36 -19 89
-79 110 -125 15 -33 16 -167 16 -1461 l0 -1425 -30 -55 c-27 -49 -101 -120
-126 -120 -5 0 -9 630 -9 1600 0 880 2 1600 5 1600 4 0 19 -7 34 -14z m2144
-487 c37 -13 67 -28 67 -32 0 -9 -107 -207 -119 -219 -5 -6 -124 48 -149 67
-8 7 113 215 122 212 6 -2 41 -15 79 -28z m-189 -383 c149 -81 272 -148 274
-150 5 -6 -72 -146 -80 -146 -8 0 -580 309 -589 319 -4 3 11 39 33 78 39 73
40 73 66 59 15 -8 148 -80 296 -160z m-1484 -716 l0 -510 -85 0 -85 0 0 510 0
510 85 0 85 0 0 -510z m2900 0 l0 -510 -170 0 -170 0 0 510 0 510 170 0 170 0
0 -510z m-1537 390 c5 -4 -8 -40 -29 -80 -40 -78 -40 -71 0 -175 57 -151 -49
-317 -213 -332 -104 -10 -192 34 -241 119 -37 65 -46 122 -30 187 24 103 99
171 213 194 37 8 73 19 80 25 7 6 28 40 47 76 l35 65 65 -36 c36 -20 69 -39
73 -43z m-685 -262 c-14 -61 -2 -169 26 -238 l25 -60 -280 0 -279 0 0 170 0
170 259 0 259 0 -10 -42z m1370 -125 l-3 -168 -292 -3 -292 -2 27 57 c24 52
26 70 27 171 l0 112 268 0 267 0 -2 -167z m342 -3 l0 -170 -85 0 -85 0 0 170
0 170 85 0 85 0 0 -170z"/>
<path d="M3060 1845 l0 -85 85 0 85 0 0 85 0 85 -85 0 -85 0 0 -85z"/>
<path d="M3375 3497 c-47 -40 -35 -116 22 -138 61 -23 1052 -279 1081 -279 43
0 82 38 82 80 0 39 -35 75 -86 89 -826 218 -1031 271 -1050 271 -13 0 -35 -10
-49 -23z"/>
</g>
</svg>
